M48
;Layer_Color=9474304
;FILE_FORMAT=2:5
INCH,LZ
;TYPE=PLATED
T1F00S00C0.01200
T2F00S00C0.02362
T3F00S00C0.03346
T4F00S00C0.03740
T5F00S00C0.03937
T6F00S00C0.04000
T7F00S00C0.04724
T8F00S00C0.05906
;TYPE=NON_PLATED
T9F00S00C0.12598
%
T01
X0101378Y0086614
Y0148559
X01905Y01464
X01907Y0112154
X0235Y01281
X0279528Y0113189
X0361221Y009941
X0380906Y0105315
X0390748Y0113189
X0419291Y0097441
X0437992Y0103347
X03745Y01983
X0400591Y0233268
X0415354Y0252953
X0326772Y0229331
X0319882
X0317913Y020374
X0313976Y0185039
X03193Y01795
X0305118Y0185039
X0300197Y0189961
X0293307Y0214567
X0276575Y0209646
X02663Y0219488
X0249016Y0212684
X0248228Y0202559
X02451Y0200218
X0233268Y0200787
X02333Y01961
X0240158Y0189961
X02378Y01802
X0218504Y0168307
X02111Y01874
X02046Y0184646
X0201772Y0216535
X01948Y02213
X02187Y02132
X0231Y02108
X0236221Y0241142
X0241142Y0246063
X0250984Y0234252
X0253937Y0162402
X0260827
X0156496Y0239173
X0147638Y0201772
X0106299Y0267717
T02
X0169498Y02155
Y02205
Y02255
Y02305
Y02355
X0174498
Y02305
Y02255
Y02205
Y02155
T03
X0190798Y00839
X0200798
X0210798
X0220798
X0230798
X0240798
X0250798
X0260798
X0280798
X0290798
X0300798
X0310798
X0320798
X0330798
X0340798
X0350798
X0370798
X0380798
X0390798
X0400798
X0410798
X0420798
X0430798
X0440798
X0420798Y02739
X0410798
X0400798
X0390798
X0380798
X0370798
X0360798
X0350798
X0330798
X0320798
X0310798
X0300798
X0290798
X0280798
X0270798
X0260798
X0244798
X0234798
X0224798
X0214798
X0204798
X0194798
X0184798
X0174798
X0164798
X0154798
T04
X0172998Y01219
Y01319
Y01419
X0182998
Y01319
Y01219
X0450798Y01239
Y01139
Y01039
X0460798
Y01139
Y01239
Y01339
X0450798
Y01439
X0460798
Y01539
X0450798
Y01639
X0460798
Y01739
X0450798
Y01839
X0460798
Y01939
X0450798
Y02039
X0460798
Y02139
X0450798
Y02239
X0460798
Y02339
X0450798
Y02439
X0460798
Y02539
X0450798
Y02639
X0460798
Y02739
X0450798
X0341298Y01939
Y01839
Y01739
X0331298
Y01839
Y01939
T05
X0421063Y0122047
Y0132047
Y0142047
Y0160236
Y0170236
Y0180236
Y0198425
Y0208425
Y0218425
X0383347Y0253543
X0373346
X0363347
X0353346
X0329724Y0252953
X0319724
X0309724
T06
X0181798Y02451
X0191798
X0201798
X0211798
T07
X0096457Y009941
X0106299
X0125984Y0119095
X0106299Y0138779
X0096457
Y0158465
X0106299
X0125984Y017815
X0106299Y0197835
X0096457
Y0216535
X0106299
X0125984Y0236221
X0106299Y0255906
X0096457
T08
X0106299Y0119095
X0125984Y0138779
Y009941
Y0158465
X0106299Y017815
X0125984Y0197835
Y0216535
X0106299Y0236221
X0125984Y0255906
T09
X0135798Y00839
X0340798Y01039
X0460798Y00839
X0435798Y02739
X0340798Y02139
X0140798Y02739
M30
