G04 Layer_Color=8388736*
%FSLAX44Y44*%
%MOMM*%
G71*
G01*
G75*
%ADD18C,0.1524*%
%ADD29C,0.2540*%
%ADD30C,0.1270*%
D18*
X1236446Y425544D02*
Y415387D01*
X1244063D01*
X1241524Y420466D01*
Y423005D01*
X1244063Y425544D01*
X1249141D01*
X1251681Y423005D01*
Y417927D01*
X1249141Y415387D01*
X1238985Y430622D02*
X1236446Y433162D01*
Y438240D01*
X1238985Y440779D01*
X1241524D01*
X1244063Y438240D01*
Y435701D01*
Y438240D01*
X1246602Y440779D01*
X1249141D01*
X1251681Y438240D01*
Y433162D01*
X1249141Y430622D01*
X1254220Y448397D02*
X1251681Y450936D01*
X1249141D01*
Y448397D01*
X1251681D01*
Y450936D01*
X1254220Y448397D01*
X1256759Y445858D01*
X1238985Y461093D02*
X1236446Y463632D01*
Y468710D01*
X1238985Y471249D01*
X1249141D01*
X1251681Y468710D01*
Y463632D01*
X1249141Y461093D01*
X1238985D01*
Y476328D02*
X1236446Y478867D01*
Y483945D01*
X1238985Y486484D01*
X1249141D01*
X1251681Y483945D01*
Y478867D01*
X1249141Y476328D01*
X1238985D01*
X654040Y138319D02*
X659118D01*
X656579D01*
Y153554D01*
X654040Y151015D01*
X666735D02*
X669275Y153554D01*
X674353D01*
X676892Y151015D01*
Y140858D01*
X674353Y138319D01*
X669275D01*
X666735Y140858D01*
Y151015D01*
X681971D02*
X684510Y153554D01*
X689588D01*
X692127Y151015D01*
Y140858D01*
X689588Y138319D01*
X684510D01*
X681971Y140858D01*
Y151015D01*
X699745Y135780D02*
X702284Y138319D01*
Y140858D01*
X699745D01*
Y138319D01*
X702284D01*
X699745Y135780D01*
X697206Y133241D01*
X712441Y151015D02*
X714980Y153554D01*
X720058D01*
X722597Y151015D01*
Y140858D01*
X720058Y138319D01*
X714980D01*
X712441Y140858D01*
Y151015D01*
X727676D02*
X730215Y153554D01*
X735293D01*
X737832Y151015D01*
Y140858D01*
X735293Y138319D01*
X730215D01*
X727676Y140858D01*
Y151015D01*
D29*
X1202540Y190000D02*
X1242540D01*
X1202540Y720000D02*
X1242540D01*
X1240000Y190000D02*
Y411324D01*
Y490549D02*
Y720000D01*
Y190000D02*
X1245080Y205240D01*
X1234920D02*
X1240000Y190000D01*
X1234920Y704760D02*
X1240000Y720000D01*
X1245080Y704760D01*
X1200000Y147460D02*
Y187460D01*
X200000Y147460D02*
Y187460D01*
X741896Y150000D02*
X1200000D01*
X200000D02*
X649976D01*
X1184760Y155080D02*
X1200000Y150000D01*
X1184760Y144920D02*
X1200000Y150000D01*
X200000D02*
X215240Y144920D01*
X200000Y150000D02*
X215240Y155080D01*
D30*
X1008629Y264922D02*
Y269154D01*
X1010745Y271270D01*
X1012861Y269154D01*
Y264922D01*
Y268096D01*
X1008629D01*
X1014977Y271270D02*
Y264922D01*
X1018151D01*
X1019209Y265980D01*
Y270212D01*
X1018151Y271270D01*
X1014977D01*
X1025557Y270212D02*
X1024499Y271270D01*
X1022383D01*
X1021325Y270212D01*
Y265980D01*
X1022383Y264922D01*
X1024499D01*
X1025557Y265980D01*
X1027673Y271270D02*
Y264922D01*
Y268096D01*
X1031905D01*
Y271270D01*
Y264922D01*
X482087Y288800D02*
X479971D01*
X481029D01*
Y295148D01*
X482087D01*
X479971D01*
X472565Y289858D02*
X473623Y288800D01*
X475739D01*
X476797Y289858D01*
Y294090D01*
X475739Y295148D01*
X473623D01*
X472565Y294090D01*
X466217Y289858D02*
X467275Y288800D01*
X469391D01*
X470449Y289858D01*
Y290916D01*
X469391Y291974D01*
X467275D01*
X466217Y293032D01*
Y294090D01*
X467275Y295148D01*
X469391D01*
X470449Y294090D01*
X464101Y295148D02*
Y288800D01*
X460927D01*
X459869Y289858D01*
Y291974D01*
X460927Y293032D01*
X464101D01*
X457753Y295148D02*
X455637D01*
X456695D01*
Y288800D01*
X457753Y289858D01*
X503169Y602486D02*
Y596138D01*
X506343D01*
X507401Y597196D01*
Y601428D01*
X506343Y602486D01*
X503169D01*
X513749D02*
X509517D01*
Y596138D01*
X513749D01*
X509517Y599312D02*
X511633D01*
X515865Y602486D02*
Y596138D01*
X519039D01*
X520097Y597196D01*
Y598254D01*
X519039Y599312D01*
X515865D01*
X519039D01*
X520097Y600370D01*
Y601428D01*
X519039Y602486D01*
X515865D01*
X522213D02*
Y597196D01*
X523271Y596138D01*
X525387D01*
X526445Y597196D01*
Y602486D01*
X532793Y601428D02*
X531735Y602486D01*
X529619D01*
X528561Y601428D01*
Y597196D01*
X529619Y596138D01*
X531735D01*
X532793Y597196D01*
Y599312D01*
X530677D01*
X718561Y271780D02*
Y276012D01*
X720677Y278128D01*
X722793Y276012D01*
Y271780D01*
Y274954D01*
X718561D01*
X724909Y278128D02*
Y271780D01*
X728083D01*
X729141Y272838D01*
Y277070D01*
X728083Y278128D01*
X724909D01*
X735489Y277070D02*
X734431Y278128D01*
X732315D01*
X731257Y277070D01*
Y272838D01*
X732315Y271780D01*
X734431D01*
X735489Y272838D01*
X737605Y278128D02*
Y271780D01*
X741837D01*
M02*
