G04 Layer_Color=255*
%FSLAX44Y44*%
%MOMM*%
G71*
G01*
G75*
%ADD10R,0.5000X0.6000*%
%ADD11R,0.6000X0.9000*%
%ADD12O,1.5000X0.3000*%
%ADD13R,1.5000X0.3000*%
%ADD14R,0.9000X0.6000*%
%ADD15R,0.6000X0.5000*%
%ADD16R,3.0000X1.2000*%
%ADD17C,3.2000*%
%ADD20P,1.5396X8X112.5*%
%ADD21P,1.6777X8X112.5*%
%ADD22P,1.6496X8X292.5*%
%ADD23C,3.0000*%
%ADD24C,1.1080*%
%ADD25R,1.1080X1.1080*%
%ADD26P,1.8145X8X292.5*%
%ADD27C,2.0000*%
D10*
X1099900Y661162D02*
D03*
X1109900D02*
D03*
X576300Y239000D02*
D03*
X586300D02*
D03*
X1110000Y645000D02*
D03*
X1100000D02*
D03*
D11*
X596500Y239000D02*
D03*
X611500D02*
D03*
X547500Y580000D02*
D03*
X532500D02*
D03*
X547500Y567500D02*
D03*
X532500D02*
D03*
X412500Y540000D02*
D03*
X397500D02*
D03*
X412500Y522500D02*
D03*
X397500D02*
D03*
D12*
X721000Y443000D02*
D03*
Y449500D02*
D03*
Y456000D02*
D03*
Y462500D02*
D03*
Y469000D02*
D03*
Y475500D02*
D03*
Y482000D02*
D03*
Y488500D02*
D03*
Y495000D02*
D03*
Y501500D02*
D03*
Y508000D02*
D03*
Y514500D02*
D03*
Y521000D02*
D03*
Y527500D02*
D03*
X645000Y443000D02*
D03*
Y449500D02*
D03*
Y456000D02*
D03*
Y462500D02*
D03*
Y469000D02*
D03*
Y475500D02*
D03*
Y482000D02*
D03*
Y488500D02*
D03*
Y495000D02*
D03*
Y501500D02*
D03*
Y508000D02*
D03*
Y514500D02*
D03*
Y521000D02*
D03*
D13*
Y527500D02*
D03*
D14*
X755000Y447500D02*
D03*
Y432500D02*
D03*
D15*
X742500Y448000D02*
D03*
Y438000D02*
D03*
X707500Y597500D02*
D03*
Y587500D02*
D03*
X670000Y597500D02*
D03*
Y587500D02*
D03*
X695000Y597500D02*
D03*
Y587500D02*
D03*
X682500Y597500D02*
D03*
Y587500D02*
D03*
X1094000Y236300D02*
D03*
Y246300D02*
D03*
X1069000Y660000D02*
D03*
Y670000D02*
D03*
X1044000Y660000D02*
D03*
Y670000D02*
D03*
X942000Y236300D02*
D03*
Y246300D02*
D03*
X992500Y236300D02*
D03*
Y246300D02*
D03*
X710000Y236300D02*
D03*
Y246300D02*
D03*
X967250Y236300D02*
D03*
Y246300D02*
D03*
D16*
X559000Y377000D02*
D03*
X511000D02*
D03*
X559000Y311493D02*
D03*
X511000D02*
D03*
D17*
X357627Y695706D02*
D03*
X1106927D02*
D03*
X865627Y543306D02*
D03*
Y263906D02*
D03*
X1170427Y213106D02*
D03*
X344927D02*
D03*
D20*
X1119627D02*
D03*
X1094227D02*
D03*
X1068827D02*
D03*
X1043427D02*
D03*
X1018027D02*
D03*
X992627D02*
D03*
X967227D02*
D03*
X941827D02*
D03*
X891027D02*
D03*
X865627D02*
D03*
X840227D02*
D03*
X814827D02*
D03*
X789427D02*
D03*
X764027D02*
D03*
X738627D02*
D03*
X713227D02*
D03*
X393187Y695706D02*
D03*
X418587D02*
D03*
X443987D02*
D03*
X469387D02*
D03*
X494787D02*
D03*
X520187D02*
D03*
X545587D02*
D03*
X570987D02*
D03*
X596387D02*
D03*
X621787D02*
D03*
X662427D02*
D03*
X687827D02*
D03*
X713227D02*
D03*
X738627D02*
D03*
X764027D02*
D03*
X789427D02*
D03*
X814827D02*
D03*
X840227D02*
D03*
X662427Y213106D02*
D03*
X637027D02*
D03*
X611627D02*
D03*
X586227D02*
D03*
X560827D02*
D03*
X535427D02*
D03*
X510027D02*
D03*
X484627D02*
D03*
X1068827Y695706D02*
D03*
X1043427D02*
D03*
X1018027D02*
D03*
X992627D02*
D03*
X967227D02*
D03*
X941827D02*
D03*
X916427D02*
D03*
X891027D02*
D03*
D21*
X439415Y360426D02*
D03*
X464815D02*
D03*
X439415Y335026D02*
D03*
X464815D02*
D03*
X439415Y309626D02*
D03*
X464815D02*
D03*
X866897Y441706D02*
D03*
X841497D02*
D03*
X866897Y467106D02*
D03*
X841497D02*
D03*
X866897Y492506D02*
D03*
X841497D02*
D03*
D22*
X461767Y622554D02*
D03*
X487167D02*
D03*
X512567D02*
D03*
X537967D02*
D03*
D23*
X270000Y302500D02*
D03*
X320000Y352500D02*
D03*
Y252500D02*
D03*
X270000Y600000D02*
D03*
X320000Y650000D02*
D03*
Y550000D02*
D03*
X270000Y452500D02*
D03*
X320000Y502500D02*
D03*
Y402500D02*
D03*
D24*
X430525Y598170D02*
D03*
X443225D02*
D03*
X430525Y585470D02*
D03*
X443225D02*
D03*
X430525Y572770D02*
D03*
X443225D02*
D03*
X430525Y560070D02*
D03*
X443225D02*
D03*
X430525Y547370D02*
D03*
D25*
X443225D02*
D03*
D26*
X1170427Y263906D02*
D03*
X1145027D02*
D03*
X1170427Y289306D02*
D03*
X1145027D02*
D03*
X1170427Y314706D02*
D03*
X1145027D02*
D03*
X1170427Y340106D02*
D03*
X1145027D02*
D03*
X1170427Y365506D02*
D03*
X1145027D02*
D03*
X1170427Y390906D02*
D03*
X1145027D02*
D03*
X1170427Y416306D02*
D03*
X1145027D02*
D03*
X1170427Y441706D02*
D03*
X1145027D02*
D03*
X1170427Y467106D02*
D03*
X1145027D02*
D03*
X1170427Y492506D02*
D03*
X1145027D02*
D03*
X1170427Y517906D02*
D03*
X1145027D02*
D03*
X1170427Y543306D02*
D03*
X1145027D02*
D03*
X1170427Y568706D02*
D03*
X1145027D02*
D03*
X1170427Y594106D02*
D03*
X1145027D02*
D03*
X1170427Y619506D02*
D03*
X1145027D02*
D03*
X1170427Y644906D02*
D03*
X1145027D02*
D03*
X1170427Y670306D02*
D03*
X1145027D02*
D03*
X1170427Y695706D02*
D03*
X1145027D02*
D03*
D27*
X1069500Y554800D02*
D03*
Y529400D02*
D03*
Y504000D02*
D03*
Y457800D02*
D03*
Y432400D02*
D03*
Y407000D02*
D03*
Y360800D02*
D03*
Y335400D02*
D03*
Y310000D02*
D03*
X786700Y642500D02*
D03*
X812100D02*
D03*
X837500D02*
D03*
X948300Y643999D02*
D03*
X922900D02*
D03*
X897500D02*
D03*
X973700D02*
D03*
M02*
