G04 Layer_Physical_Order=1*
G04 Layer_Color=255*
%FSLAX44Y44*%
%MOMM*%
G71*
G01*
G75*
%ADD10R,0.5000X0.6000*%
%ADD11R,0.6000X0.9000*%
%ADD12O,1.5000X0.3000*%
%ADD13R,1.5000X0.3000*%
%ADD14R,0.9000X0.6000*%
%ADD15R,0.6000X0.5000*%
%ADD16R,3.0000X1.2000*%
%ADD17C,3.2000*%
%ADD18C,0.1524*%
%ADD19C,0.3048*%
%ADD20P,1.5396X8X112.5*%
%ADD21P,1.6777X8X112.5*%
%ADD22P,1.6496X8X292.5*%
%ADD23C,3.0000*%
%ADD24C,1.1080*%
%ADD25R,1.1080X1.1080*%
%ADD26P,1.8145X8X292.5*%
%ADD27C,2.0000*%
%ADD28C,0.6096*%
G36*
X996208Y377075D02*
X994235D01*
Y381346D01*
X990386D01*
Y377075D01*
X988413D01*
Y386830D01*
X990386D01*
Y382995D01*
X994235D01*
Y386830D01*
X996208D01*
Y377075D01*
D02*
G37*
G36*
X943190D02*
X941371D01*
X941357Y384743D01*
X939440Y377075D01*
X937537D01*
X935620Y384743D01*
Y377075D01*
X933801D01*
Y386830D01*
X936747D01*
X938495Y380162D01*
X940229Y386830D01*
X943190D01*
Y377075D01*
D02*
G37*
G36*
X930446D02*
X928317D01*
X926400Y384363D01*
X924455Y377075D01*
X922312D01*
X920000Y386830D01*
X922016D01*
X923482Y380120D01*
X925258Y386830D01*
X927626D01*
X929318Y380007D01*
X930812Y386830D01*
X932800D01*
X930446Y377075D01*
D02*
G37*
G36*
X998154Y396519D02*
X998281Y396505D01*
X998436Y396476D01*
X998605Y396448D01*
X998788Y396406D01*
X998986Y396350D01*
X999183Y396279D01*
X999394Y396194D01*
X999606Y396082D01*
X999803Y395969D01*
X1000001Y395828D01*
X1000198Y395659D01*
X1000367Y395476D01*
X1000381Y395462D01*
X1000409Y395433D01*
X1000452Y395363D01*
X1000508Y395278D01*
X1000578Y395165D01*
X1000649Y395039D01*
X1000733Y394869D01*
X1000818Y394686D01*
X1000903Y394475D01*
X1000987Y394235D01*
X1001058Y393981D01*
X1001128Y393685D01*
X1001185Y393375D01*
X1001227Y393037D01*
X1001255Y392684D01*
Y392290D01*
X996575D01*
Y392276D01*
Y392247D01*
Y392205D01*
X996589Y392149D01*
X996603Y392008D01*
X996631Y391810D01*
X996688Y391613D01*
X996772Y391387D01*
X996871Y391176D01*
X997012Y390993D01*
X997026Y390979D01*
X997096Y390922D01*
X997181Y390852D01*
X997308Y390767D01*
X997463Y390683D01*
X997660Y390612D01*
X997872Y390556D01*
X998097Y390542D01*
X998168D01*
X998252Y390556D01*
X998351Y390570D01*
X998464Y390598D01*
X998591Y390640D01*
X998718Y390697D01*
X998830Y390781D01*
X998845Y390795D01*
X998887Y390824D01*
X998943Y390880D01*
X999000Y390965D01*
X999084Y391077D01*
X999155Y391204D01*
X999225Y391373D01*
X999296Y391557D01*
X1001156Y391246D01*
Y391232D01*
X1001142Y391204D01*
X1001114Y391148D01*
X1001086Y391077D01*
X1001044Y390993D01*
X1001001Y390894D01*
X1000874Y390668D01*
X1000719Y390415D01*
X1000522Y390147D01*
X1000282Y389907D01*
X1000015Y389682D01*
X1000001D01*
X999986Y389654D01*
X999930Y389639D01*
X999874Y389597D01*
X999803Y389555D01*
X999704Y389512D01*
X999606Y389470D01*
X999479Y389414D01*
X999197Y389315D01*
X998873Y389231D01*
X998492Y389174D01*
X998083Y389146D01*
X997999D01*
X997914Y389160D01*
X997787D01*
X997632Y389188D01*
X997449Y389216D01*
X997252Y389245D01*
X997054Y389301D01*
X996829Y389357D01*
X996603Y389442D01*
X996377Y389541D01*
X996152Y389654D01*
X995926Y389795D01*
X995715Y389949D01*
X995532Y390133D01*
X995349Y390344D01*
X995334Y390358D01*
X995320Y390387D01*
X995292Y390443D01*
X995236Y390513D01*
X995193Y390612D01*
X995137Y390725D01*
X995067Y390852D01*
X995010Y391007D01*
X994940Y391176D01*
X994883Y391359D01*
X994813Y391557D01*
X994771Y391782D01*
X994728Y392008D01*
X994686Y392247D01*
X994672Y392515D01*
X994658Y392783D01*
Y392797D01*
Y392854D01*
Y392952D01*
X994672Y393079D01*
X994686Y393220D01*
X994700Y393389D01*
X994728Y393573D01*
X994771Y393784D01*
X994883Y394221D01*
X994954Y394446D01*
X995038Y394686D01*
X995151Y394912D01*
X995278Y395123D01*
X995419Y395335D01*
X995574Y395532D01*
X995588Y395546D01*
X995616Y395574D01*
X995673Y395631D01*
X995743Y395687D01*
X995828Y395757D01*
X995940Y395842D01*
X996067Y395941D01*
X996208Y396039D01*
X996363Y396124D01*
X996547Y396223D01*
X996730Y396307D01*
X996941Y396378D01*
X997153Y396434D01*
X997393Y396491D01*
X997632Y396519D01*
X997886Y396533D01*
X998041D01*
X998154Y396519D01*
D02*
G37*
G36*
X968381D02*
X968522Y396505D01*
X968677Y396476D01*
X968860Y396448D01*
X969044Y396406D01*
X969255Y396350D01*
X969466Y396279D01*
X969678Y396194D01*
X969903Y396096D01*
X970129Y395969D01*
X970340Y395828D01*
X970552Y395673D01*
X970749Y395490D01*
X970763Y395476D01*
X970791Y395447D01*
X970848Y395377D01*
X970904Y395306D01*
X970989Y395194D01*
X971073Y395081D01*
X971172Y394926D01*
X971271Y394771D01*
X971355Y394588D01*
X971454Y394390D01*
X971539Y394165D01*
X971623Y393939D01*
X971680Y393685D01*
X971736Y393432D01*
X971764Y393150D01*
X971778Y392854D01*
Y392839D01*
Y392783D01*
Y392699D01*
X971764Y392586D01*
X971750Y392445D01*
X971722Y392290D01*
X971694Y392106D01*
X971651Y391923D01*
X971595Y391712D01*
X971525Y391500D01*
X971440Y391275D01*
X971341Y391049D01*
X971214Y390824D01*
X971073Y390612D01*
X970918Y390401D01*
X970735Y390189D01*
X970721Y390175D01*
X970693Y390147D01*
X970636Y390090D01*
X970552Y390020D01*
X970453Y389949D01*
X970326Y389865D01*
X970185Y389766D01*
X970030Y389668D01*
X969847Y389569D01*
X969650Y389470D01*
X969438Y389386D01*
X969199Y389315D01*
X968959Y389245D01*
X968691Y389188D01*
X968423Y389160D01*
X968127Y389146D01*
X968028D01*
X967958Y389160D01*
X967873D01*
X967775Y389174D01*
X967535Y389202D01*
X967239Y389259D01*
X966929Y389329D01*
X966605Y389442D01*
X966266Y389583D01*
X966252D01*
X966224Y389597D01*
X966182Y389625D01*
X966125Y389668D01*
X965970Y389766D01*
X965773Y389907D01*
X965562Y390090D01*
X965336Y390316D01*
X965125Y390570D01*
X964927Y390866D01*
Y390880D01*
X964913Y390908D01*
X964885Y390950D01*
X964857Y391021D01*
X964828Y391105D01*
X964786Y391204D01*
X964744Y391317D01*
X964702Y391444D01*
X964659Y391585D01*
X964617Y391740D01*
X964547Y392092D01*
X964490Y392501D01*
X964476Y392938D01*
Y392952D01*
Y392980D01*
Y393037D01*
X964490Y393093D01*
Y393178D01*
X964504Y393276D01*
X964532Y393516D01*
X964589Y393784D01*
X964673Y394080D01*
X964772Y394404D01*
X964927Y394728D01*
Y394743D01*
X964955Y394771D01*
X964969Y394813D01*
X965012Y394869D01*
X965125Y395024D01*
X965266Y395222D01*
X965449Y395433D01*
X965674Y395659D01*
X965928Y395870D01*
X966224Y396068D01*
X966238D01*
X966266Y396082D01*
X966309Y396110D01*
X966379Y396138D01*
X966450Y396180D01*
X966548Y396209D01*
X966661Y396251D01*
X966774Y396307D01*
X967056Y396392D01*
X967380Y396462D01*
X967732Y396519D01*
X968113Y396533D01*
X968268D01*
X968381Y396519D01*
D02*
G37*
G36*
X983014Y386999D02*
X983169Y386985D01*
X983352Y386971D01*
X983535Y386943D01*
X983747Y386914D01*
X984198Y386816D01*
X984423Y386745D01*
X984649Y386675D01*
X984874Y386576D01*
X985086Y386463D01*
X985283Y386337D01*
X985467Y386195D01*
X985481Y386181D01*
X985509Y386153D01*
X985551Y386111D01*
X985607Y386054D01*
X985678Y385970D01*
X985762Y385871D01*
X985847Y385759D01*
X985946Y385632D01*
X986030Y385476D01*
X986115Y385322D01*
X986199Y385138D01*
X986270Y384941D01*
X986340Y384743D01*
X986397Y384518D01*
X986439Y384292D01*
X986453Y384039D01*
X984480Y383968D01*
Y383982D01*
Y383996D01*
X984452Y384095D01*
X984423Y384222D01*
X984367Y384377D01*
X984296Y384560D01*
X984198Y384729D01*
X984071Y384899D01*
X983930Y385039D01*
X983916Y385054D01*
X983859Y385096D01*
X983761Y385152D01*
X983620Y385209D01*
X983451Y385265D01*
X983239Y385322D01*
X982985Y385364D01*
X982689Y385378D01*
X982548D01*
X982393Y385364D01*
X982210Y385336D01*
X981999Y385293D01*
X981773Y385223D01*
X981562Y385138D01*
X981364Y385011D01*
X981350Y384997D01*
X981322Y384969D01*
X981266Y384927D01*
X981209Y384856D01*
X981153Y384772D01*
X981096Y384659D01*
X981068Y384546D01*
X981054Y384405D01*
Y384391D01*
Y384349D01*
X981068Y384278D01*
X981096Y384208D01*
X981125Y384109D01*
X981167Y384011D01*
X981237Y383912D01*
X981336Y383813D01*
X981350Y383799D01*
X981421Y383757D01*
X981463Y383728D01*
X981533Y383700D01*
X981604Y383658D01*
X981703Y383616D01*
X981815Y383573D01*
X981942Y383517D01*
X982097Y383461D01*
X982252Y383404D01*
X982450Y383348D01*
X982661Y383292D01*
X982887Y383235D01*
X983140Y383165D01*
X983155D01*
X983211Y383150D01*
X983281Y383136D01*
X983380Y383108D01*
X983493Y383080D01*
X983634Y383038D01*
X983789Y382995D01*
X983944Y382953D01*
X984282Y382840D01*
X984635Y382728D01*
X984973Y382601D01*
X985114Y382530D01*
X985255Y382460D01*
X985269D01*
X985283Y382446D01*
X985368Y382389D01*
X985495Y382305D01*
X985650Y382192D01*
X985819Y382051D01*
X986002Y381882D01*
X986185Y381684D01*
X986340Y381459D01*
X986355Y381431D01*
X986397Y381346D01*
X986467Y381219D01*
X986538Y381036D01*
X986608Y380810D01*
X986679Y380543D01*
X986721Y380247D01*
X986735Y379908D01*
Y379894D01*
Y379866D01*
Y379824D01*
Y379767D01*
X986721Y379697D01*
X986707Y379598D01*
X986679Y379401D01*
X986622Y379147D01*
X986538Y378879D01*
X986411Y378611D01*
X986256Y378329D01*
Y378315D01*
X986228Y378301D01*
X986171Y378217D01*
X986059Y378076D01*
X985918Y377921D01*
X985734Y377737D01*
X985495Y377568D01*
X985241Y377399D01*
X984931Y377244D01*
X984917D01*
X984889Y377230D01*
X984846Y377216D01*
X984776Y377188D01*
X984691Y377159D01*
X984592Y377131D01*
X984480Y377103D01*
X984353Y377075D01*
X984198Y377032D01*
X984043Y377004D01*
X983676Y376948D01*
X983267Y376906D01*
X982816Y376892D01*
X982633D01*
X982506Y376906D01*
X982351Y376920D01*
X982182Y376934D01*
X981984Y376962D01*
X981773Y377004D01*
X981308Y377103D01*
X981068Y377173D01*
X980843Y377244D01*
X980603Y377343D01*
X980377Y377455D01*
X980166Y377582D01*
X979969Y377737D01*
X979955Y377751D01*
X979926Y377780D01*
X979870Y377822D01*
X979814Y377892D01*
X979729Y377991D01*
X979644Y378104D01*
X979546Y378231D01*
X979447Y378372D01*
X979348Y378541D01*
X979250Y378724D01*
X979151Y378936D01*
X979052Y379161D01*
X978982Y379401D01*
X978897Y379669D01*
X978841Y379950D01*
X978799Y380247D01*
X980716Y380430D01*
Y380416D01*
X980730Y380387D01*
Y380331D01*
X980744Y380275D01*
X980800Y380106D01*
X980871Y379894D01*
X980955Y379655D01*
X981082Y379415D01*
X981223Y379203D01*
X981406Y379006D01*
X981435Y378992D01*
X981505Y378936D01*
X981618Y378865D01*
X981787Y378781D01*
X981999Y378696D01*
X982238Y378625D01*
X982520Y378569D01*
X982844Y378555D01*
X982999D01*
X983169Y378583D01*
X983380Y378611D01*
X983606Y378654D01*
X983845Y378724D01*
X984071Y378823D01*
X984268Y378950D01*
X984296Y378964D01*
X984353Y379020D01*
X984423Y379105D01*
X984522Y379217D01*
X984606Y379358D01*
X984691Y379528D01*
X984747Y379697D01*
X984762Y379894D01*
Y379908D01*
Y379950D01*
X984747Y380021D01*
X984733Y380106D01*
X984705Y380190D01*
X984677Y380289D01*
X984621Y380387D01*
X984550Y380486D01*
X984536Y380500D01*
X984508Y380528D01*
X984466Y380571D01*
X984395Y380627D01*
X984296Y380698D01*
X984169Y380768D01*
X984029Y380839D01*
X983845Y380909D01*
X983831D01*
X983775Y380937D01*
X983676Y380965D01*
X983606Y380994D01*
X983521Y381008D01*
X983422Y381036D01*
X983310Y381078D01*
X983183Y381106D01*
X983042Y381149D01*
X982873Y381191D01*
X982689Y381233D01*
X982492Y381290D01*
X982266Y381346D01*
X982252D01*
X982196Y381360D01*
X982111Y381388D01*
X982013Y381417D01*
X981886Y381459D01*
X981731Y381501D01*
X981576Y381558D01*
X981392Y381614D01*
X981026Y381755D01*
X980674Y381924D01*
X980490Y382009D01*
X980335Y382107D01*
X980180Y382206D01*
X980053Y382305D01*
X980039Y382319D01*
X980011Y382347D01*
X979969Y382389D01*
X979912Y382446D01*
X979842Y382530D01*
X979771Y382629D01*
X979687Y382728D01*
X979616Y382854D01*
X979447Y383150D01*
X979306Y383489D01*
X979250Y383672D01*
X979207Y383855D01*
X979179Y384067D01*
X979165Y384278D01*
Y384292D01*
Y384306D01*
Y384349D01*
Y384405D01*
X979193Y384546D01*
X979221Y384729D01*
X979264Y384941D01*
X979334Y385181D01*
X979433Y385434D01*
X979574Y385674D01*
Y385688D01*
X979588Y385702D01*
X979659Y385787D01*
X979743Y385900D01*
X979884Y386040D01*
X980053Y386195D01*
X980265Y386365D01*
X980504Y386520D01*
X980786Y386661D01*
X980800D01*
X980828Y386675D01*
X980871Y386689D01*
X980927Y386717D01*
X981012Y386745D01*
X981096Y386773D01*
X981209Y386802D01*
X981336Y386844D01*
X981618Y386900D01*
X981942Y386957D01*
X982309Y386999D01*
X982718Y387013D01*
X982887D01*
X983014Y386999D01*
D02*
G37*
G36*
X963235Y386872D02*
X963362Y386858D01*
X963489Y386844D01*
X963644Y386816D01*
X963799Y386773D01*
X964152Y386675D01*
X964335Y386604D01*
X964532Y386506D01*
X964716Y386407D01*
X964885Y386294D01*
X965068Y386153D01*
X965223Y385998D01*
X965237Y385984D01*
X965251Y385970D01*
X965294Y385928D01*
X965336Y385871D01*
X965449Y385730D01*
X965576Y385533D01*
X965703Y385293D01*
X965801Y385011D01*
X965886Y384701D01*
X965900Y384546D01*
X965914Y384377D01*
Y384363D01*
Y384321D01*
X965900Y384250D01*
X965886Y384165D01*
X965872Y384053D01*
X965843Y383926D01*
X965801Y383785D01*
X965745Y383630D01*
X965660Y383475D01*
X965576Y383306D01*
X965463Y383136D01*
X965322Y382967D01*
X965153Y382798D01*
X964969Y382629D01*
X964758Y382474D01*
X964504Y382319D01*
X964518D01*
X964547Y382305D01*
X964589D01*
X964645Y382276D01*
X964800Y382234D01*
X964984Y382150D01*
X965195Y382037D01*
X965421Y381896D01*
X965646Y381713D01*
X965843Y381501D01*
X965872Y381473D01*
X965928Y381388D01*
X965999Y381261D01*
X966097Y381078D01*
X966196Y380867D01*
X966266Y380599D01*
X966323Y380317D01*
X966351Y379993D01*
Y379979D01*
Y379936D01*
Y379866D01*
X966337Y379781D01*
X966323Y379669D01*
X966294Y379542D01*
X966266Y379387D01*
X966238Y379232D01*
X966125Y378893D01*
X966041Y378710D01*
X965956Y378513D01*
X965843Y378329D01*
X965717Y378146D01*
X965576Y377963D01*
X965406Y377794D01*
X965392Y377780D01*
X965364Y377751D01*
X965308Y377709D01*
X965237Y377653D01*
X965139Y377582D01*
X965040Y377512D01*
X964899Y377427D01*
X964758Y377343D01*
X964603Y377258D01*
X964420Y377173D01*
X964222Y377103D01*
X964025Y377032D01*
X963799Y376976D01*
X963574Y376934D01*
X963320Y376906D01*
X963066Y376892D01*
X962940D01*
X962841Y376906D01*
X962728Y376920D01*
X962601Y376934D01*
X962460Y376962D01*
X962291Y376990D01*
X961953Y377075D01*
X961586Y377216D01*
X961389Y377300D01*
X961220Y377399D01*
X961036Y377526D01*
X960867Y377653D01*
X960853Y377667D01*
X960825Y377695D01*
X960783Y377737D01*
X960726Y377794D01*
X960656Y377864D01*
X960585Y377963D01*
X960501Y378061D01*
X960416Y378188D01*
X960331Y378329D01*
X960233Y378470D01*
X960078Y378809D01*
X959951Y379203D01*
X959894Y379415D01*
X959866Y379640D01*
X961671Y379866D01*
Y379852D01*
Y379838D01*
X961685Y379753D01*
X961713Y379626D01*
X961755Y379471D01*
X961826Y379302D01*
X961896Y379119D01*
X962009Y378950D01*
X962136Y378795D01*
X962150Y378781D01*
X962206Y378738D01*
X962291Y378682D01*
X962390Y378625D01*
X962531Y378555D01*
X962686Y378498D01*
X962855Y378456D01*
X963052Y378442D01*
X963080D01*
X963151Y378456D01*
X963250Y378470D01*
X963391Y378498D01*
X963546Y378555D01*
X963701Y378625D01*
X963870Y378738D01*
X964025Y378879D01*
X964039Y378893D01*
X964095Y378964D01*
X964152Y379062D01*
X964236Y379189D01*
X964307Y379358D01*
X964377Y379570D01*
X964420Y379810D01*
X964434Y380077D01*
Y380092D01*
Y380106D01*
Y380190D01*
X964420Y380317D01*
X964391Y380486D01*
X964335Y380670D01*
X964265Y380853D01*
X964166Y381036D01*
X964039Y381205D01*
X964025Y381219D01*
X963969Y381276D01*
X963884Y381346D01*
X963785Y381417D01*
X963644Y381501D01*
X963489Y381558D01*
X963320Y381614D01*
X963123Y381628D01*
X962982D01*
X962883Y381614D01*
X962756Y381600D01*
X962601Y381572D01*
X962446Y381529D01*
X962263Y381487D01*
X962460Y382995D01*
X962587D01*
X962728Y383010D01*
X962897Y383024D01*
X963080Y383066D01*
X963278Y383122D01*
X963461Y383207D01*
X963630Y383320D01*
X963644Y383334D01*
X963701Y383390D01*
X963757Y383461D01*
X963842Y383573D01*
X963912Y383700D01*
X963983Y383855D01*
X964025Y384039D01*
X964039Y384250D01*
Y384278D01*
Y384335D01*
X964025Y384419D01*
X963997Y384532D01*
X963969Y384659D01*
X963912Y384786D01*
X963842Y384927D01*
X963743Y385039D01*
X963729Y385054D01*
X963687Y385082D01*
X963630Y385138D01*
X963531Y385195D01*
X963419Y385237D01*
X963292Y385293D01*
X963123Y385322D01*
X962953Y385336D01*
X962869D01*
X962784Y385322D01*
X962672Y385293D01*
X962545Y385251D01*
X962404Y385195D01*
X962263Y385110D01*
X962136Y384997D01*
X962122Y384983D01*
X962079Y384941D01*
X962023Y384856D01*
X961953Y384743D01*
X961882Y384617D01*
X961826Y384448D01*
X961769Y384250D01*
X961727Y384025D01*
X960007Y384306D01*
Y384321D01*
X960021Y384349D01*
Y384391D01*
X960035Y384462D01*
X960078Y384617D01*
X960134Y384828D01*
X960219Y385054D01*
X960303Y385293D01*
X960416Y385519D01*
X960543Y385730D01*
X960557Y385759D01*
X960613Y385815D01*
X960698Y385914D01*
X960811Y386040D01*
X960952Y386167D01*
X961121Y386308D01*
X961332Y386449D01*
X961558Y386576D01*
X961572D01*
X961586Y386590D01*
X961671Y386618D01*
X961812Y386675D01*
X961981Y386731D01*
X962192Y386788D01*
X962446Y386844D01*
X962714Y386872D01*
X963010Y386886D01*
X963137D01*
X963235Y386872D01*
D02*
G37*
G36*
X1000155Y377075D02*
X998182D01*
Y386830D01*
X1000155D01*
Y377075D01*
D02*
G37*
G36*
X972300D02*
X970425D01*
Y384137D01*
X970411Y384123D01*
X970383Y384095D01*
X970326Y384053D01*
X970242Y383982D01*
X970143Y383898D01*
X970030Y383813D01*
X969889Y383714D01*
X969734Y383602D01*
X969565Y383489D01*
X969382Y383376D01*
X969184Y383249D01*
X968973Y383136D01*
X968522Y382925D01*
X968014Y382728D01*
Y384419D01*
X968028D01*
X968043Y384433D01*
X968085Y384448D01*
X968141Y384462D01*
X968282Y384532D01*
X968480Y384617D01*
X968719Y384729D01*
X968987Y384884D01*
X969283Y385082D01*
X969593Y385307D01*
X969607Y385322D01*
X969635Y385336D01*
X969678Y385378D01*
X969734Y385434D01*
X969889Y385575D01*
X970058Y385759D01*
X970256Y385984D01*
X970453Y386266D01*
X970636Y386562D01*
X970777Y386886D01*
X972300D01*
Y377075D01*
D02*
G37*
G36*
X958753Y385350D02*
X958738Y385336D01*
X958710Y385307D01*
X958668Y385265D01*
X958612Y385209D01*
X958541Y385124D01*
X958457Y385025D01*
X958358Y384913D01*
X958245Y384772D01*
X958132Y384617D01*
X958006Y384448D01*
X957865Y384264D01*
X957724Y384067D01*
X957583Y383841D01*
X957442Y383616D01*
X957287Y383362D01*
X957132Y383094D01*
X957117Y383080D01*
X957089Y383024D01*
X957047Y382953D01*
X956991Y382840D01*
X956934Y382714D01*
X956850Y382544D01*
X956765Y382361D01*
X956666Y382164D01*
X956568Y381938D01*
X956469Y381699D01*
X956356Y381445D01*
X956257Y381177D01*
X956060Y380599D01*
X955877Y379993D01*
Y379979D01*
X955863Y379922D01*
X955835Y379838D01*
X955806Y379711D01*
X955778Y379570D01*
X955750Y379415D01*
X955708Y379217D01*
X955665Y379020D01*
X955623Y378795D01*
X955595Y378569D01*
X955524Y378076D01*
X955482Y377568D01*
X955468Y377075D01*
X953664D01*
Y377103D01*
Y377159D01*
X953678Y377272D01*
Y377427D01*
X953692Y377610D01*
X953720Y377822D01*
X953748Y378076D01*
X953791Y378344D01*
X953833Y378639D01*
X953889Y378964D01*
X953960Y379302D01*
X954030Y379669D01*
X954129Y380035D01*
X954228Y380416D01*
X954354Y380796D01*
X954495Y381191D01*
X954509Y381219D01*
X954538Y381290D01*
X954580Y381403D01*
X954636Y381544D01*
X954721Y381727D01*
X954820Y381952D01*
X954932Y382192D01*
X955059Y382460D01*
X955200Y382742D01*
X955355Y383038D01*
X955524Y383362D01*
X955722Y383672D01*
X956131Y384335D01*
X956596Y384969D01*
X952353D01*
Y386703D01*
X958753D01*
Y385350D01*
D02*
G37*
G36*
X1023472Y386816D02*
X1023740Y386802D01*
X1024036Y386788D01*
X1024346Y386745D01*
X1024642Y386703D01*
X1024910Y386632D01*
X1024924D01*
X1024952Y386618D01*
X1024994Y386604D01*
X1025051Y386590D01*
X1025220Y386520D01*
X1025417Y386421D01*
X1025643Y386294D01*
X1025897Y386139D01*
X1026136Y385956D01*
X1026376Y385730D01*
X1026390D01*
X1026404Y385702D01*
X1026475Y385617D01*
X1026587Y385476D01*
X1026714Y385293D01*
X1026869Y385068D01*
X1027024Y384800D01*
X1027179Y384490D01*
X1027306Y384151D01*
Y384137D01*
X1027320Y384109D01*
X1027335Y384053D01*
X1027363Y383982D01*
X1027377Y383898D01*
X1027405Y383785D01*
X1027433Y383658D01*
X1027476Y383517D01*
X1027504Y383362D01*
X1027532Y383179D01*
X1027560Y382995D01*
X1027574Y382784D01*
X1027617Y382347D01*
X1027631Y381854D01*
Y381839D01*
Y381797D01*
Y381741D01*
Y381656D01*
X1027617Y381544D01*
Y381431D01*
X1027602Y381290D01*
X1027588Y381135D01*
X1027560Y380810D01*
X1027504Y380472D01*
X1027419Y380120D01*
X1027320Y379781D01*
Y379767D01*
X1027306Y379739D01*
X1027278Y379683D01*
X1027250Y379598D01*
X1027222Y379514D01*
X1027165Y379415D01*
X1027053Y379161D01*
X1026912Y378893D01*
X1026728Y378597D01*
X1026517Y378315D01*
X1026277Y378047D01*
X1026249Y378019D01*
X1026179Y377963D01*
X1026066Y377878D01*
X1025911Y377766D01*
X1025713Y377639D01*
X1025488Y377512D01*
X1025206Y377385D01*
X1024896Y377272D01*
X1024882D01*
X1024868Y377258D01*
X1024825D01*
X1024783Y377244D01*
X1024628Y377216D01*
X1024431Y377173D01*
X1024191Y377131D01*
X1023895Y377103D01*
X1023542Y377089D01*
X1023162Y377075D01*
X1019468D01*
Y386830D01*
X1023359D01*
X1023472Y386816D01*
D02*
G37*
G36*
X1013153Y378724D02*
X1018059D01*
Y377075D01*
X1011179D01*
Y386759D01*
X1013153D01*
Y378724D01*
D02*
G37*
G36*
X1009276Y385181D02*
X1004018D01*
Y383024D01*
X1008910D01*
Y381374D01*
X1004018D01*
Y378724D01*
X1009460D01*
Y377075D01*
X1002045D01*
Y386830D01*
X1009276D01*
Y385181D01*
D02*
G37*
G36*
X336856Y706952D02*
X335699Y704789D01*
X334349Y700336D01*
X333893Y695706D01*
X334349Y691076D01*
X335699Y686623D01*
X337893Y682520D01*
X340844Y678923D01*
X344441Y675972D01*
X348544Y673778D01*
X352997Y672428D01*
X357627Y671972D01*
X362257Y672428D01*
X366710Y673778D01*
X370813Y675972D01*
X374410Y678923D01*
X377361Y682520D01*
X378268Y684216D01*
X382022Y684773D01*
X385821Y680974D01*
X400553D01*
X405887Y686308D01*
X411221Y680974D01*
X425953D01*
X431287Y686308D01*
X436621Y680974D01*
X451353D01*
X458342Y687963D01*
X458719Y688340D01*
X461767Y688848D01*
X464561Y686054D01*
X468117D01*
Y695706D01*
X470657D01*
Y686054D01*
X474213D01*
X477007Y688848D01*
X480055Y688340D01*
X480432Y687963D01*
X487421Y680974D01*
X502153D01*
X507487Y686308D01*
X512821Y680974D01*
X527553D01*
X532887Y686308D01*
X537133Y682062D01*
Y679413D01*
X537421Y677225D01*
X537915Y676031D01*
X538265Y675186D01*
X539609Y673435D01*
X544022Y669022D01*
X545773Y667678D01*
X547812Y666834D01*
X550000Y666546D01*
X888397D01*
X891591Y663352D01*
X891121Y661475D01*
X890432Y660200D01*
X887663Y658721D01*
X884980Y656519D01*
X882779Y653836D01*
X881143Y650775D01*
X880135Y647453D01*
X879795Y643999D01*
X880135Y640545D01*
X881143Y637224D01*
X882779Y634163D01*
X884980Y631480D01*
X887663Y629278D01*
X890724Y627642D01*
X894046Y626634D01*
X897500Y626294D01*
X900954Y626634D01*
X904276Y627642D01*
X907337Y629278D01*
X910020Y631480D01*
X910380D01*
X913064Y629278D01*
X916124Y627642D01*
X919446Y626634D01*
X922900Y626294D01*
X926354Y626634D01*
X929676Y627642D01*
X932737Y629278D01*
X935419Y631480D01*
X935780D01*
X938464Y629278D01*
X941525Y627642D01*
X944846Y626634D01*
X948300Y626294D01*
X951754Y626634D01*
X955076Y627642D01*
X958137Y629278D01*
X960819Y631480D01*
X961180D01*
X963864Y629278D01*
X966925Y627642D01*
X970246Y626634D01*
X970357Y626623D01*
X971492Y623449D01*
X892328Y544284D01*
X889153Y545420D01*
X888905Y547936D01*
X887554Y552389D01*
X885361Y556492D01*
X882410Y560089D01*
X878813Y563040D01*
X874710Y565234D01*
X870257Y566584D01*
X865627Y567040D01*
X860997Y566584D01*
X856544Y565234D01*
X852441Y563040D01*
X848844Y560089D01*
X845893Y556492D01*
X843699Y552389D01*
X842349Y547936D01*
X841893Y543306D01*
X842349Y538676D01*
X843699Y534223D01*
X845154Y531502D01*
X843483Y528454D01*
X830000D01*
X827812Y528166D01*
X825773Y527322D01*
X824022Y525978D01*
X820354Y522310D01*
X816853Y522874D01*
X816729Y522996D01*
X815108Y525108D01*
X812880Y526819D01*
X810285Y527893D01*
X807500Y528260D01*
X804715Y527893D01*
X802120Y526819D01*
X799892Y525108D01*
X798182Y522880D01*
X797107Y520285D01*
X796921Y518877D01*
X794498Y516454D01*
X743480D01*
X742314Y519270D01*
X751522Y528478D01*
X752987Y530389D01*
X753909Y532613D01*
X754223Y535000D01*
Y539495D01*
X754318Y539620D01*
X755393Y542215D01*
X755760Y545000D01*
X755393Y547785D01*
X754318Y550380D01*
X752608Y552608D01*
X750380Y554319D01*
X747785Y555393D01*
X745000Y555760D01*
X742215Y555393D01*
X739620Y554319D01*
X737392Y552608D01*
X735682Y550380D01*
X734607Y547785D01*
X734240Y545000D01*
X734607Y542215D01*
X735682Y539620D01*
X735777Y539495D01*
Y538820D01*
X728315Y531358D01*
X727000Y531619D01*
X715000D01*
X713424Y531306D01*
X712087Y530413D01*
X712001Y530283D01*
X710825Y530217D01*
X708197Y532500D01*
X707764Y534680D01*
X706529Y536529D01*
X704680Y537764D01*
X703770Y537945D01*
Y532500D01*
X701230D01*
Y539240D01*
X700954Y539466D01*
Y568998D01*
X709336Y577380D01*
X718120D01*
Y597620D01*
X713040D01*
Y602540D01*
X701960D01*
Y602540D01*
X700540Y602540D01*
Y602540D01*
X689460D01*
Y602540D01*
X688040Y602540D01*
Y602540D01*
X676960D01*
Y602540D01*
X675540D01*
Y602540D01*
X664460D01*
Y597620D01*
X659380D01*
Y577380D01*
X661546D01*
Y538502D01*
X659664Y536620D01*
X645781D01*
X645709Y536629D01*
X644923Y536854D01*
X643201Y539771D01*
X643260Y540218D01*
X642893Y543003D01*
X641818Y545598D01*
X640108Y547826D01*
X637880Y549537D01*
X635285Y550611D01*
X632500Y550978D01*
X629715Y550611D01*
X627120Y549537D01*
X624892Y547826D01*
X623181Y545598D01*
X622107Y543003D01*
X621740Y540218D01*
X622107Y537433D01*
X623181Y534838D01*
X623277Y534713D01*
Y527500D01*
X623591Y525113D01*
X624367Y523241D01*
X622892Y522108D01*
X621182Y519880D01*
X620854Y519090D01*
X619769Y518947D01*
X617174Y517872D01*
X616840Y517616D01*
X597269Y537187D01*
X597133Y538217D01*
X596059Y540812D01*
X594587Y542729D01*
X594864Y544020D01*
X595789Y545777D01*
X597500D01*
X599887Y546091D01*
X602111Y547013D01*
X604022Y548478D01*
X640129Y584586D01*
X640285Y584607D01*
X642880Y585681D01*
X645108Y587392D01*
X646818Y589620D01*
X647893Y592215D01*
X648260Y595000D01*
X647893Y597785D01*
X646818Y600380D01*
X645108Y602608D01*
X642880Y604319D01*
X640285Y605393D01*
X637500Y605760D01*
X634715Y605393D01*
X632120Y604319D01*
X629892Y602608D01*
X628181Y600380D01*
X627107Y597785D01*
X627086Y597629D01*
X623770Y594314D01*
X620954Y595480D01*
Y618494D01*
X621819Y619620D01*
X622893Y622215D01*
X623260Y625000D01*
X622893Y627785D01*
X621819Y630380D01*
X620108Y632608D01*
X617880Y634319D01*
X615285Y635393D01*
X612500Y635760D01*
X609715Y635393D01*
X607120Y634319D01*
X604892Y632608D01*
X603181Y630380D01*
X602107Y627785D01*
X601883Y626087D01*
X600696Y624304D01*
X598913Y623117D01*
X597215Y622893D01*
X594620Y621819D01*
X592392Y620108D01*
X590681Y617880D01*
X589607Y615285D01*
X589240Y612500D01*
X589607Y609715D01*
X590681Y607120D01*
X591546Y605994D01*
Y588502D01*
X591498Y588454D01*
X558120D01*
Y592120D01*
X521880D01*
Y588454D01*
X505000D01*
X502812Y588166D01*
X500773Y587322D01*
X499022Y585978D01*
X488814Y575770D01*
X487470Y574019D01*
X487121Y573175D01*
X486626Y571980D01*
X486338Y569792D01*
Y568608D01*
X485474Y567482D01*
X484399Y564887D01*
X484032Y562102D01*
X484399Y559317D01*
X485474Y556722D01*
X487183Y554493D01*
X489412Y552784D01*
X492007Y551709D01*
X494792Y551342D01*
X497577Y551709D01*
X498966Y552284D01*
X501625Y550537D01*
X501779Y550299D01*
X501740Y550000D01*
X502107Y547215D01*
X503181Y544620D01*
X504892Y542392D01*
X507120Y540681D01*
X509715Y539607D01*
X512500Y539240D01*
X515285Y539607D01*
X517880Y540681D01*
X520108Y542392D01*
X521819Y544620D01*
X521990Y545033D01*
X532336Y555380D01*
X549069D01*
X550820Y552332D01*
X550118Y550846D01*
X547890Y549137D01*
X546180Y546908D01*
X545105Y544313D01*
X544738Y541528D01*
X545105Y538743D01*
X546180Y536148D01*
X547890Y533919D01*
X550118Y532210D01*
X552713Y531135D01*
X555498Y530768D01*
X558283Y531135D01*
X560878Y532210D01*
X563106Y533919D01*
X564817Y536148D01*
X565891Y538743D01*
X566135Y540592D01*
X571320Y545777D01*
X577691D01*
X578616Y544020D01*
X578893Y542729D01*
X577421Y540812D01*
X576347Y538217D01*
X575980Y535432D01*
X576347Y532647D01*
X577421Y530052D01*
X579132Y527823D01*
X581360Y526114D01*
X583955Y525039D01*
X585596Y524823D01*
X587622Y522431D01*
X587126Y519353D01*
X587004Y519229D01*
X584892Y517608D01*
X583181Y515380D01*
X582107Y512785D01*
X581740Y510000D01*
X582107Y507215D01*
X583181Y504620D01*
X583662Y503994D01*
X583264Y503474D01*
X582189Y500879D01*
X581822Y498094D01*
X582189Y495309D01*
X583264Y492714D01*
X584973Y490485D01*
X587202Y488775D01*
X589797Y487701D01*
X592582Y487334D01*
X595367Y487701D01*
X597710Y488671D01*
X598478Y488270D01*
X600017Y486760D01*
X599850Y486119D01*
X598725Y483954D01*
X543347D01*
X541574Y485314D01*
X538979Y486389D01*
X536194Y486756D01*
X533409Y486389D01*
X530814Y485314D01*
X528586Y483605D01*
X526875Y481376D01*
X526642Y480811D01*
X525397Y478844D01*
X522819Y479248D01*
X522469Y479393D01*
X519684Y479760D01*
X516899Y479393D01*
X514304Y478318D01*
X512076Y476608D01*
X510365Y474380D01*
X509291Y471785D01*
X509181Y470954D01*
X501002D01*
X440562Y531394D01*
X441729Y534210D01*
X456385D01*
Y560530D01*
X451314D01*
X451097Y562179D01*
X450283Y564145D01*
X450276Y564154D01*
X449253Y566420D01*
X450276Y568686D01*
X450283Y568695D01*
X451097Y570661D01*
X451375Y572770D01*
X451097Y574879D01*
X451083Y574912D01*
X452611Y576084D01*
X454720Y578833D01*
X456046Y582034D01*
X456498Y585470D01*
X456046Y588905D01*
X454720Y592107D01*
X452611Y594856D01*
X451083Y596028D01*
X451097Y596061D01*
X451375Y598170D01*
X451097Y600279D01*
X450283Y602245D01*
X448988Y603933D01*
X447300Y605228D01*
X445334Y606042D01*
X443225Y606320D01*
X441116Y606042D01*
X441083Y606028D01*
X439911Y607556D01*
X437162Y609665D01*
X433960Y610991D01*
X430525Y611444D01*
X427090Y610991D01*
X423888Y609665D01*
X421139Y607556D01*
X419030Y604807D01*
X417704Y601605D01*
X417251Y598170D01*
X417704Y594734D01*
X418911Y591820D01*
X417704Y588905D01*
X417251Y585470D01*
X417704Y582034D01*
X418911Y579120D01*
X417704Y576205D01*
X417251Y572770D01*
X417704Y569334D01*
X418911Y566420D01*
X417704Y563506D01*
X417251Y560070D01*
X417704Y556634D01*
X418324Y555136D01*
X416529Y552120D01*
X405954D01*
Y600994D01*
X406819Y602120D01*
X407893Y604715D01*
X408260Y607500D01*
X407893Y610285D01*
X406819Y612880D01*
X405108Y615108D01*
X402880Y616819D01*
X400285Y617893D01*
X397500Y618260D01*
X394715Y617893D01*
X392120Y616819D01*
X389892Y615108D01*
X388181Y612880D01*
X387107Y610285D01*
X386740Y607500D01*
X387107Y604715D01*
X388181Y602120D01*
X389046Y600994D01*
Y552120D01*
X386880D01*
Y527880D01*
Y523836D01*
X383998Y520954D01*
X381506D01*
X380380Y521819D01*
X377785Y522893D01*
X375000Y523260D01*
X372215Y522893D01*
X369620Y521819D01*
X367392Y520108D01*
X365681Y517880D01*
X364607Y515285D01*
X364240Y512500D01*
X364607Y509715D01*
X365681Y507120D01*
X367392Y504892D01*
X369620Y503181D01*
X372215Y502107D01*
X375000Y501740D01*
X377785Y502107D01*
X380380Y503181D01*
X381506Y504046D01*
X387500D01*
X389688Y504334D01*
X390883Y504828D01*
X391727Y505178D01*
X393478Y506522D01*
X397336Y510380D01*
X423120D01*
Y510380D01*
X424565Y510979D01*
X484022Y451522D01*
X485773Y450178D01*
X487812Y449334D01*
X490000Y449046D01*
X566498D01*
X586522Y429022D01*
X588273Y427678D01*
X590312Y426834D01*
X592500Y426546D01*
X607500D01*
X609688Y426834D01*
X610883Y427328D01*
X611727Y427678D01*
X613478Y429022D01*
X625502Y441045D01*
X630059D01*
X630115Y440619D01*
X631034Y438400D01*
X632496Y436495D01*
X634401Y435033D01*
X635777Y434463D01*
Y418005D01*
X635681Y417880D01*
X634607Y415285D01*
X634240Y412500D01*
X634607Y409715D01*
X635681Y407120D01*
X637392Y404892D01*
X639620Y403181D01*
X642215Y402107D01*
X645000Y401740D01*
X647785Y402107D01*
X650380Y403181D01*
X652608Y404892D01*
X654318Y407120D01*
X654850Y408404D01*
X658209Y408863D01*
X658471Y408471D01*
X660320Y407236D01*
X661230Y407055D01*
Y412500D01*
Y417945D01*
X660320Y417764D01*
X658471Y416529D01*
X658209Y416137D01*
X654850Y416596D01*
X654318Y417880D01*
X654223Y418005D01*
Y434463D01*
X655599Y435033D01*
X657505Y436495D01*
X658966Y438400D01*
X659885Y440619D01*
X660199Y443000D01*
X659885Y445381D01*
X659525Y446250D01*
X659885Y447119D01*
X660199Y449500D01*
X659885Y451881D01*
X659525Y452750D01*
X659885Y453619D01*
X660199Y456000D01*
X659885Y458381D01*
X658966Y460599D01*
X657508Y462500D01*
X658966Y464400D01*
X659885Y466619D01*
X660199Y469000D01*
X659885Y471381D01*
X659525Y472250D01*
X659885Y473119D01*
X660199Y475500D01*
X659885Y477881D01*
X659525Y478750D01*
X659885Y479619D01*
X660199Y482000D01*
X659885Y484381D01*
X659525Y485250D01*
X659885Y486119D01*
X660199Y488500D01*
X659885Y490881D01*
X659525Y491750D01*
X659885Y492619D01*
X660199Y495000D01*
X659885Y497381D01*
X659525Y498250D01*
X659885Y499119D01*
X660199Y501500D01*
X659885Y503881D01*
X659525Y504750D01*
X659885Y505619D01*
X660199Y508000D01*
X659885Y510381D01*
X659711Y510802D01*
X660227Y513678D01*
X661978Y515022D01*
X671230Y524273D01*
X674046Y523107D01*
Y497500D01*
X674334Y495312D01*
X674828Y494117D01*
X675178Y493273D01*
X676522Y491522D01*
X691522Y476522D01*
X693273Y475178D01*
X695312Y474334D01*
X697500Y474046D01*
X704288D01*
X705852Y471764D01*
X706068Y471029D01*
X705801Y469000D01*
X706115Y466619D01*
X706475Y465750D01*
X706115Y464881D01*
X705801Y462500D01*
X706115Y460119D01*
X706475Y459250D01*
X706115Y458381D01*
X705801Y456000D01*
X706115Y453619D01*
X706475Y452750D01*
X706115Y451881D01*
X705801Y449500D01*
X706115Y447119D01*
X707034Y444901D01*
X708496Y442995D01*
X710401Y441534D01*
X711396Y441121D01*
X712087Y440087D01*
X713424Y439194D01*
X715000Y438881D01*
X727000D01*
X728576Y439194D01*
X728832Y439365D01*
X731880Y437963D01*
Y437880D01*
X736960D01*
Y432960D01*
X747960D01*
Y426960D01*
X753730D01*
Y432500D01*
X755000D01*
Y433770D01*
X762040D01*
Y436880D01*
X767120D01*
Y447546D01*
X804425D01*
X805642Y446612D01*
X808237Y445537D01*
X811022Y445170D01*
X813807Y445537D01*
X816402Y446612D01*
X818631Y448321D01*
X820340Y450550D01*
X821415Y453145D01*
X821782Y455930D01*
X821415Y458715D01*
X820340Y461310D01*
X818631Y463539D01*
X816402Y465248D01*
X813807Y466323D01*
X811022Y466690D01*
X810827Y466664D01*
X808180Y469390D01*
X808260Y470000D01*
X807893Y472785D01*
X806818Y475380D01*
X805108Y477608D01*
X802880Y479319D01*
X800285Y480393D01*
X797500Y480760D01*
X794715Y480393D01*
X792120Y479319D01*
X789892Y477608D01*
X788182Y475380D01*
X787900Y474699D01*
X784600D01*
X784318Y475380D01*
X782608Y477608D01*
X780380Y479319D01*
X777785Y480393D01*
X776087Y480617D01*
X774992Y481346D01*
X774258Y483978D01*
X776201Y486546D01*
X812500D01*
X814688Y486834D01*
X815882Y487328D01*
X816727Y487678D01*
X818478Y489022D01*
X823311Y493855D01*
X826127Y492688D01*
Y484821D01*
X831142Y479806D01*
X826127Y474791D01*
Y459421D01*
X831142Y454406D01*
X826127Y449391D01*
Y434021D01*
X833812Y426336D01*
X849182D01*
X856867Y434021D01*
X858479Y434689D01*
X861752Y431416D01*
X865627D01*
Y441706D01*
X866897D01*
Y442976D01*
X877187D01*
Y446851D01*
X873914Y450124D01*
X874582Y451736D01*
X882267Y459421D01*
Y474791D01*
X877252Y479806D01*
X882267Y484821D01*
Y500191D01*
X878728Y503730D01*
X879895Y506546D01*
X882500D01*
X884688Y506834D01*
X885883Y507328D01*
X886727Y507678D01*
X888478Y509022D01*
X1030564Y651108D01*
X1033380Y649941D01*
Y649880D01*
X1043699D01*
X1045247Y646832D01*
X1044607Y645285D01*
X1044240Y642500D01*
X1044607Y639715D01*
X1045682Y637120D01*
X1047392Y634892D01*
X1049620Y633181D01*
X1052215Y632107D01*
X1054303Y631832D01*
X1055295Y630021D01*
X1055515Y628733D01*
X1035438Y608656D01*
X1006348D01*
X1004160Y608368D01*
X1002121Y607524D01*
X1000370Y606180D01*
X945252Y551062D01*
X943908Y549311D01*
X943559Y548467D01*
X943064Y547272D01*
X942776Y545084D01*
Y510188D01*
X941911Y509062D01*
X940837Y506467D01*
X940470Y503682D01*
X940837Y500897D01*
X941911Y498302D01*
X943622Y496073D01*
X945850Y494364D01*
X947439Y493705D01*
X948516Y490473D01*
X732649Y274605D01*
X731305Y272854D01*
X730955Y272010D01*
X730461Y270815D01*
X730173Y268627D01*
Y226750D01*
X725927Y222504D01*
X720620Y227811D01*
Y236180D01*
Y256420D01*
X718454D01*
Y280994D01*
X719318Y282120D01*
X720393Y284715D01*
X720760Y287500D01*
X720393Y290285D01*
X719318Y292880D01*
X717608Y295109D01*
X715380Y296819D01*
X712785Y297893D01*
X710000Y298260D01*
X707215Y297893D01*
X704620Y296819D01*
X702392Y295109D01*
X700682Y292880D01*
X699607Y290285D01*
X699240Y287500D01*
X699607Y284715D01*
X700682Y282120D01*
X701546Y280994D01*
Y256420D01*
X699380D01*
Y236180D01*
Y226180D01*
X700602D01*
X701155Y223132D01*
X698495Y220472D01*
Y205740D01*
X701419Y202816D01*
X700253Y200000D01*
X675401D01*
X674235Y202816D01*
X677159Y205740D01*
Y220472D01*
X669793Y227838D01*
X655061D01*
X648072Y220849D01*
X647695Y220472D01*
X644647Y219964D01*
X641853Y222758D01*
X638297D01*
Y213106D01*
Y203454D01*
X641853D01*
X644647Y206248D01*
X647695Y205740D01*
X648072Y205363D01*
X650619Y202816D01*
X649453Y200000D01*
X599201D01*
X598035Y202816D01*
X600582Y205363D01*
X600959Y205740D01*
X604007Y206248D01*
X606801Y203454D01*
X610357D01*
Y213106D01*
Y222758D01*
X606801D01*
X604007Y219964D01*
X600959Y220472D01*
X600582Y220849D01*
X597367Y224064D01*
X598533Y226880D01*
X607120D01*
Y231960D01*
X610230D01*
Y239000D01*
Y246040D01*
X607120D01*
Y251120D01*
X585880D01*
Y249620D01*
X566180D01*
Y248181D01*
X564113Y247909D01*
X561889Y246987D01*
X561509Y246696D01*
X510027D01*
X507640Y246382D01*
X505415Y245460D01*
X503505Y243995D01*
X502040Y242085D01*
X501118Y239860D01*
X500804Y237473D01*
Y225981D01*
X497327Y222504D01*
X491993Y227838D01*
X477261D01*
X469895Y220472D01*
Y205740D01*
X472819Y202816D01*
X471652Y200000D01*
X367668D01*
X366101Y202614D01*
X366855Y204023D01*
X368205Y208476D01*
X368661Y213106D01*
X368205Y217736D01*
X366855Y222189D01*
X364661Y226292D01*
X361710Y229889D01*
X358113Y232840D01*
X354010Y235034D01*
X349557Y236384D01*
X344927Y236840D01*
X340297Y236384D01*
X339874Y236256D01*
X338105Y238904D01*
X338899Y239872D01*
X340999Y243802D01*
X342293Y248066D01*
X342729Y252500D01*
X342293Y256934D01*
X340999Y261198D01*
X338899Y265128D01*
X336072Y268572D01*
X332628Y271399D01*
X328698Y273499D01*
X324434Y274793D01*
X320000Y275229D01*
X315566Y274793D01*
X311302Y273499D01*
X307372Y271399D01*
X303928Y268572D01*
X301101Y265128D01*
X299001Y261198D01*
X297707Y256934D01*
X297271Y252500D01*
X297707Y248066D01*
X299001Y243802D01*
X301101Y239872D01*
X303928Y236428D01*
X307372Y233601D01*
X311302Y231501D01*
X315566Y230207D01*
X320000Y229771D01*
X324434Y230207D01*
X324472Y230219D01*
X326242Y227570D01*
X325193Y226292D01*
X322999Y222189D01*
X321649Y217736D01*
X321193Y213106D01*
X321649Y208476D01*
X322999Y204023D01*
X323752Y202614D01*
X322185Y200000D01*
X210000D01*
Y710000D01*
X335029D01*
X336856Y706952D01*
D02*
G37*
G36*
X954650Y397322D02*
X952775D01*
Y399056D01*
X954650D01*
Y397322D01*
D02*
G37*
G36*
X942612Y389301D02*
X940878D01*
Y390330D01*
X940863Y390302D01*
X940807Y390232D01*
X940708Y390119D01*
X940582Y389992D01*
X940441Y389851D01*
X940257Y389696D01*
X940060Y389555D01*
X939849Y389428D01*
X939820Y389414D01*
X939750Y389386D01*
X939623Y389343D01*
X939482Y389287D01*
X939299Y389231D01*
X939087Y389188D01*
X938876Y389160D01*
X938650Y389146D01*
X938538D01*
X938453Y389160D01*
X938340Y389174D01*
X938227Y389202D01*
X938086Y389231D01*
X937931Y389273D01*
X937776Y389315D01*
X937607Y389386D01*
X937438Y389456D01*
X937255Y389555D01*
X937086Y389668D01*
X936902Y389795D01*
X936733Y389949D01*
X936564Y390119D01*
X936550Y390133D01*
X936522Y390161D01*
X936479Y390217D01*
X936437Y390302D01*
X936367Y390401D01*
X936296Y390527D01*
X936211Y390668D01*
X936141Y390838D01*
X936057Y391021D01*
X935972Y391218D01*
X935901Y391444D01*
X935845Y391684D01*
X935789Y391951D01*
X935746Y392233D01*
X935718Y392529D01*
X935704Y392854D01*
Y392868D01*
Y392938D01*
Y393023D01*
X935718Y393150D01*
X935732Y393305D01*
X935746Y393474D01*
X935775Y393671D01*
X935803Y393868D01*
X935901Y394320D01*
X935972Y394545D01*
X936057Y394771D01*
X936155Y394996D01*
X936268Y395208D01*
X936395Y395405D01*
X936536Y395588D01*
X936550Y395602D01*
X936578Y395631D01*
X936620Y395673D01*
X936691Y395743D01*
X936775Y395814D01*
X936874Y395884D01*
X936987Y395969D01*
X937128Y396068D01*
X937269Y396152D01*
X937438Y396237D01*
X937790Y396392D01*
X938002Y396448D01*
X938213Y396491D01*
X938439Y396519D01*
X938679Y396533D01*
X938791D01*
X938876Y396519D01*
X938975Y396505D01*
X939101Y396476D01*
X939228Y396448D01*
X939383Y396406D01*
X939538Y396364D01*
X939708Y396293D01*
X939877Y396209D01*
X940046Y396124D01*
X940229Y395997D01*
X940398Y395870D01*
X940567Y395715D01*
X940737Y395546D01*
Y399056D01*
X942612D01*
Y389301D01*
D02*
G37*
G36*
X1190000Y230887D02*
X1188638Y230400D01*
X1186952Y230100D01*
X1183613Y232840D01*
X1179510Y235034D01*
X1175057Y236384D01*
X1170427Y236840D01*
X1165797Y236384D01*
X1161344Y235034D01*
X1157241Y232840D01*
X1153644Y229889D01*
X1150693Y226292D01*
X1148499Y222189D01*
X1147149Y217736D01*
X1146693Y213106D01*
X1147149Y208476D01*
X1148499Y204023D01*
X1149252Y202614D01*
X1147685Y200000D01*
X1132601D01*
X1131435Y202816D01*
X1134359Y205740D01*
Y220472D01*
X1126993Y227838D01*
X1112261D01*
X1106927Y222504D01*
X1104219Y225212D01*
X1104620Y226180D01*
X1104620D01*
Y236180D01*
Y256420D01*
X1083380D01*
Y254754D01*
X1072880D01*
X1072608Y255109D01*
X1070380Y256819D01*
X1067785Y257893D01*
X1065000Y258260D01*
X1062215Y257893D01*
X1059620Y256819D01*
X1057392Y255109D01*
X1055682Y252880D01*
X1054607Y250285D01*
X1054240Y247500D01*
X1054607Y244715D01*
X1055682Y242120D01*
X1057392Y239891D01*
X1059620Y238181D01*
X1062215Y237107D01*
X1065000Y236740D01*
X1067785Y237107D01*
X1069569Y237846D01*
X1083380D01*
Y226180D01*
X1083380D01*
X1083914Y224891D01*
X1081527Y222504D01*
X1076193Y227838D01*
X1061461D01*
X1056127Y222504D01*
X1050793Y227838D01*
X1036061D01*
X1030727Y222504D01*
X1025393Y227838D01*
X1010661D01*
X1005327Y222504D01*
X1002690Y225141D01*
X1003120Y226180D01*
X1003120D01*
Y236180D01*
Y256420D01*
X1000954D01*
Y280994D01*
X1001818Y282120D01*
X1002893Y284715D01*
X1003260Y287500D01*
X1002893Y290285D01*
X1001818Y292880D01*
X1000108Y295109D01*
X997880Y296819D01*
X995285Y297893D01*
X992500Y298260D01*
X989715Y297893D01*
X987120Y296819D01*
X984892Y295109D01*
X983182Y292880D01*
X982107Y290285D01*
X981740Y287500D01*
X982107Y284715D01*
X983182Y282120D01*
X984046Y280994D01*
Y256420D01*
X981880D01*
Y236180D01*
Y226180D01*
X981880D01*
X982385Y224962D01*
X979927Y222504D01*
X977396Y225035D01*
X977870Y226180D01*
X977870D01*
Y236180D01*
Y256420D01*
X975954D01*
Y260994D01*
X976818Y262120D01*
X977893Y264715D01*
X978260Y267500D01*
X977893Y270285D01*
X976818Y272880D01*
X975108Y275109D01*
X972880Y276819D01*
X970285Y277893D01*
X967500Y278260D01*
X964715Y277893D01*
X962120Y276819D01*
X959892Y275109D01*
X958182Y272880D01*
X957107Y270285D01*
X956740Y267500D01*
X957107Y264715D01*
X958182Y262120D01*
X959046Y260994D01*
Y256420D01*
X956630D01*
Y236180D01*
Y226180D01*
X956630D01*
X957091Y225068D01*
X954527Y222504D01*
X952102Y224929D01*
X952620Y226180D01*
X952620D01*
Y236180D01*
Y256420D01*
X943836D01*
X941778Y258478D01*
X940027Y259822D01*
X939183Y260172D01*
X937988Y260666D01*
X935800Y260954D01*
X924006D01*
X922880Y261819D01*
X920285Y262893D01*
X917500Y263260D01*
X914715Y262893D01*
X912120Y261819D01*
X909892Y260109D01*
X908182Y257880D01*
X907107Y255285D01*
X906740Y252500D01*
X907107Y249715D01*
X908182Y247120D01*
X909892Y244891D01*
X912120Y243181D01*
X914715Y242107D01*
X917500Y241740D01*
X920285Y242107D01*
X922880Y243181D01*
X924006Y244046D01*
X931380D01*
Y236180D01*
Y226180D01*
X931380D01*
X931797Y225174D01*
X927095Y220472D01*
Y205740D01*
X930019Y202816D01*
X928852Y200000D01*
X904001D01*
X902835Y202816D01*
X905759Y205740D01*
Y220472D01*
X898393Y227838D01*
X883661D01*
X878327Y222504D01*
X872993Y227838D01*
X858261D01*
X852927Y222504D01*
X847593Y227838D01*
X832861D01*
X827527Y222504D01*
X822193Y227838D01*
X807461D01*
X802127Y222504D01*
X797881Y226750D01*
Y283425D01*
X841402Y326946D01*
X1054040D01*
X1054779Y325564D01*
X1056981Y322881D01*
Y322519D01*
X1054779Y319837D01*
X1053142Y316775D01*
X1052135Y313454D01*
X1051795Y310000D01*
X1052135Y306546D01*
X1053142Y303225D01*
X1054779Y300163D01*
X1056981Y297481D01*
X1059663Y295279D01*
X1062725Y293642D01*
X1066046Y292635D01*
X1069500Y292295D01*
X1072954Y292635D01*
X1076275Y293642D01*
X1079336Y295279D01*
X1082020Y297481D01*
X1084221Y300163D01*
X1085857Y303225D01*
X1086865Y306546D01*
X1087205Y310000D01*
X1086865Y313454D01*
X1085857Y316775D01*
X1084221Y319837D01*
X1082020Y322519D01*
Y322881D01*
X1084221Y325564D01*
X1085857Y328624D01*
X1086865Y331946D01*
X1087205Y335400D01*
X1086865Y338854D01*
X1085857Y342175D01*
X1084221Y345237D01*
X1082020Y347920D01*
X1080232Y349387D01*
X1079378Y350567D01*
X1079640Y353415D01*
X1080454Y354476D01*
X1081717Y357526D01*
X1081981Y359530D01*
X1069500D01*
X1057019D01*
X1057283Y357526D01*
X1058546Y354476D01*
X1059360Y353415D01*
X1059622Y350567D01*
X1058768Y349387D01*
X1056981Y347920D01*
X1054779Y345237D01*
X1054040Y343854D01*
X1037620D01*
Y407620D01*
X912380D01*
Y343854D01*
X847293D01*
X846127Y346670D01*
X923402Y423946D01*
X1054040D01*
X1054779Y422564D01*
X1056981Y419880D01*
Y419520D01*
X1054779Y416837D01*
X1053142Y413775D01*
X1052135Y410454D01*
X1051795Y407000D01*
X1052135Y403546D01*
X1053142Y400224D01*
X1054779Y397164D01*
X1056981Y394481D01*
X1059663Y392279D01*
X1062725Y390642D01*
X1066046Y389635D01*
X1069500Y389295D01*
X1072954Y389635D01*
X1076275Y390642D01*
X1079336Y392279D01*
X1082020Y394481D01*
X1084221Y397164D01*
X1085857Y400224D01*
X1086865Y403546D01*
X1087205Y407000D01*
X1086865Y410454D01*
X1085857Y413775D01*
X1084221Y416837D01*
X1082020Y419520D01*
Y419880D01*
X1084221Y422564D01*
X1085857Y425625D01*
X1086865Y428946D01*
X1087205Y432400D01*
X1086865Y435854D01*
X1085857Y439175D01*
X1084221Y442237D01*
X1082020Y444920D01*
X1080232Y446387D01*
X1079378Y447567D01*
X1079640Y450415D01*
X1080454Y451476D01*
X1081717Y454526D01*
X1081981Y456530D01*
X1069500D01*
X1057019D01*
X1057283Y454526D01*
X1058546Y451476D01*
X1059360Y450415D01*
X1059622Y447567D01*
X1058768Y446387D01*
X1056981Y444920D01*
X1054779Y442237D01*
X1054040Y440854D01*
X926793D01*
X925627Y443670D01*
X1002902Y520946D01*
X1054040D01*
X1054779Y519563D01*
X1056981Y516880D01*
Y516520D01*
X1054779Y513837D01*
X1053142Y510775D01*
X1052135Y507454D01*
X1051795Y504000D01*
X1052135Y500546D01*
X1053142Y497225D01*
X1054779Y494164D01*
X1056981Y491480D01*
X1059663Y489279D01*
X1062725Y487642D01*
X1066046Y486635D01*
X1069500Y486295D01*
X1072954Y486635D01*
X1076275Y487642D01*
X1079336Y489279D01*
X1082020Y491480D01*
X1084221Y494164D01*
X1085857Y497225D01*
X1086865Y500546D01*
X1087205Y504000D01*
X1086865Y507454D01*
X1085857Y510775D01*
X1084221Y513837D01*
X1082020Y516520D01*
Y516880D01*
X1084221Y519563D01*
X1085857Y522625D01*
X1086865Y525946D01*
X1087205Y529400D01*
X1086865Y532854D01*
X1085857Y536175D01*
X1084221Y539236D01*
X1082020Y541920D01*
X1080232Y543387D01*
X1079378Y544567D01*
X1079640Y547415D01*
X1080454Y548476D01*
X1081717Y551526D01*
X1081981Y553530D01*
X1069500D01*
X1057019D01*
X1057283Y551526D01*
X1058546Y548476D01*
X1059360Y547415D01*
X1059622Y544567D01*
X1058768Y543387D01*
X1056981Y541920D01*
X1054779Y539236D01*
X1054040Y537854D01*
X999400D01*
X997212Y537566D01*
X995173Y536722D01*
X993422Y535378D01*
X964439Y506396D01*
X961207Y507473D01*
X960548Y509062D01*
X959684Y510188D01*
Y541582D01*
X1005257Y587155D01*
X1008768Y586355D01*
X1009892Y584892D01*
X1012120Y583181D01*
X1014715Y582107D01*
X1017500Y581740D01*
X1020285Y582107D01*
X1022880Y583181D01*
X1024006Y584046D01*
X1047500D01*
X1049688Y584334D01*
X1050883Y584828D01*
X1051727Y585178D01*
X1053478Y586522D01*
X1101336Y634380D01*
X1120120D01*
Y636546D01*
X1129384D01*
X1133724Y632206D01*
X1129025Y627507D01*
Y611505D01*
X1133724Y606806D01*
X1129025Y602107D01*
Y586105D01*
X1133724Y581406D01*
X1129025Y576707D01*
Y560705D01*
X1133724Y556006D01*
X1129025Y551307D01*
Y535305D01*
X1133724Y530606D01*
X1129025Y525907D01*
Y509905D01*
X1133724Y505206D01*
X1129025Y500507D01*
Y484505D01*
X1133724Y479806D01*
X1129025Y475107D01*
Y459105D01*
X1133724Y454406D01*
X1129025Y449707D01*
Y433705D01*
X1133724Y429006D01*
X1129025Y424307D01*
Y408305D01*
X1133724Y403606D01*
X1129025Y398907D01*
Y382905D01*
X1133724Y378206D01*
X1129025Y373507D01*
Y357505D01*
X1133724Y352806D01*
X1129025Y348107D01*
Y332105D01*
X1133724Y327406D01*
X1129025Y322707D01*
Y306705D01*
X1133724Y302006D01*
X1129025Y297307D01*
Y281305D01*
X1137026Y273304D01*
X1137324Y272586D01*
X1134105Y269367D01*
Y265176D01*
X1145027D01*
X1155949D01*
Y269367D01*
X1152730Y272586D01*
X1153028Y273304D01*
X1157727Y278003D01*
X1162426Y273304D01*
X1162723Y272586D01*
X1159505Y269367D01*
Y265176D01*
X1170427D01*
Y263906D01*
D01*
Y265176D01*
X1181349D01*
Y269367D01*
X1178130Y272586D01*
X1178428Y273304D01*
X1186429Y281305D01*
Y297307D01*
X1181730Y302006D01*
X1186429Y306705D01*
Y322707D01*
X1181730Y327406D01*
X1186429Y332105D01*
Y348107D01*
X1181730Y352806D01*
X1186429Y357505D01*
Y373507D01*
X1181730Y378206D01*
X1186429Y382905D01*
Y398907D01*
X1181730Y403606D01*
X1186429Y408305D01*
Y424307D01*
X1181730Y429006D01*
X1186429Y433705D01*
Y449707D01*
X1181730Y454406D01*
X1186429Y459105D01*
Y475107D01*
X1181730Y479806D01*
X1186429Y484505D01*
Y500507D01*
X1181730Y505206D01*
X1186429Y509905D01*
Y525907D01*
X1181730Y530606D01*
X1186429Y535305D01*
Y551307D01*
X1181730Y556006D01*
X1186429Y560705D01*
Y576707D01*
X1181730Y581406D01*
X1186429Y586105D01*
Y602107D01*
X1181730Y606806D01*
X1186429Y611505D01*
Y627507D01*
X1181730Y632206D01*
X1186429Y636905D01*
Y652907D01*
X1181730Y657606D01*
X1186429Y662305D01*
Y678307D01*
X1181730Y683006D01*
X1186429Y687705D01*
Y703707D01*
X1182952Y707184D01*
X1184118Y710000D01*
X1190000D01*
Y230887D01*
D02*
G37*
G36*
X780973Y277534D02*
Y226750D01*
X776727Y222504D01*
X772481Y226750D01*
Y273025D01*
X778157Y278700D01*
X780973Y277534D01*
D02*
G37*
G36*
X755573Y269634D02*
Y226750D01*
X751327Y222504D01*
X747081Y226750D01*
Y265125D01*
X752757Y270800D01*
X755573Y269634D01*
D02*
G37*
G36*
X934308Y396519D02*
X934464Y396491D01*
X934661Y396448D01*
X934872Y396378D01*
X935084Y396293D01*
X935309Y396166D01*
X934717Y394545D01*
X934703Y394559D01*
X934633Y394588D01*
X934548Y394644D01*
X934435Y394700D01*
X934294Y394757D01*
X934153Y394813D01*
X933998Y394841D01*
X933843Y394855D01*
X933787D01*
X933702Y394841D01*
X933618Y394827D01*
X933519Y394799D01*
X933406Y394757D01*
X933294Y394700D01*
X933181Y394630D01*
X933167Y394616D01*
X933138Y394588D01*
X933082Y394531D01*
X933026Y394446D01*
X932955Y394348D01*
X932885Y394207D01*
X932814Y394038D01*
X932758Y393840D01*
Y393812D01*
X932744Y393770D01*
X932730Y393727D01*
Y393657D01*
X932716Y393573D01*
X932701Y393460D01*
X932687Y393333D01*
X932673Y393192D01*
X932659Y393009D01*
X932645Y392825D01*
Y392600D01*
X932631Y392360D01*
X932617Y392092D01*
Y391796D01*
Y391472D01*
Y389301D01*
X930742D01*
Y396378D01*
X932476D01*
Y395377D01*
X932490Y395391D01*
X932546Y395476D01*
X932631Y395602D01*
X932744Y395757D01*
X932857Y395913D01*
X932997Y396068D01*
X933124Y396209D01*
X933265Y396307D01*
X933279Y396321D01*
X933322Y396350D01*
X933406Y396378D01*
X933505Y396420D01*
X933618Y396462D01*
X933759Y396505D01*
X933900Y396519D01*
X934069Y396533D01*
X934182D01*
X934308Y396519D01*
D02*
G37*
G36*
X981054Y399042D02*
X981322Y399028D01*
X981618Y399014D01*
X981928Y398972D01*
X982224Y398929D01*
X982492Y398859D01*
X982506D01*
X982534Y398845D01*
X982577Y398831D01*
X982633Y398817D01*
X982802Y398746D01*
X982999Y398647D01*
X983225Y398521D01*
X983479Y398365D01*
X983718Y398182D01*
X983958Y397957D01*
X983972D01*
X983986Y397928D01*
X984057Y397844D01*
X984169Y397703D01*
X984296Y397520D01*
X984452Y397294D01*
X984606Y397026D01*
X984762Y396716D01*
X984889Y396378D01*
Y396364D01*
X984903Y396335D01*
X984917Y396279D01*
X984945Y396209D01*
X984959Y396124D01*
X984987Y396011D01*
X985015Y395884D01*
X985058Y395743D01*
X985086Y395588D01*
X985114Y395405D01*
X985142Y395222D01*
X985156Y395010D01*
X985199Y394573D01*
X985213Y394080D01*
Y394066D01*
Y394024D01*
Y393967D01*
Y393883D01*
X985199Y393770D01*
Y393657D01*
X985184Y393516D01*
X985170Y393361D01*
X985142Y393037D01*
X985086Y392699D01*
X985001Y392346D01*
X984903Y392008D01*
Y391994D01*
X984889Y391965D01*
X984860Y391909D01*
X984832Y391824D01*
X984804Y391740D01*
X984747Y391641D01*
X984635Y391387D01*
X984494Y391120D01*
X984311Y390824D01*
X984099Y390542D01*
X983859Y390274D01*
X983831Y390246D01*
X983761Y390189D01*
X983648Y390105D01*
X983493Y389992D01*
X983296Y389865D01*
X983070Y389738D01*
X982788Y389611D01*
X982478Y389498D01*
X982464D01*
X982450Y389484D01*
X982407D01*
X982365Y389470D01*
X982210Y389442D01*
X982013Y389400D01*
X981773Y389357D01*
X981477Y389329D01*
X981125Y389315D01*
X980744Y389301D01*
X977050D01*
Y399056D01*
X980941D01*
X981054Y399042D01*
D02*
G37*
G36*
X954650Y389301D02*
X952775D01*
Y396378D01*
X954650D01*
Y389301D01*
D02*
G37*
G36*
X929783D02*
X927655D01*
X926809Y391514D01*
X922890D01*
X922086Y389301D01*
X920000D01*
X923778Y399056D01*
X925864D01*
X929783Y389301D01*
D02*
G37*
G36*
X960839Y396519D02*
X960994Y396505D01*
X961163Y396476D01*
X961347Y396434D01*
X961544Y396378D01*
X961741Y396307D01*
X961769Y396293D01*
X961826Y396265D01*
X961925Y396223D01*
X962037Y396152D01*
X962164Y396068D01*
X962291Y395969D01*
X962418Y395856D01*
X962531Y395729D01*
X962545Y395715D01*
X962573Y395673D01*
X962615Y395602D01*
X962672Y395504D01*
X962742Y395391D01*
X962798Y395250D01*
X962855Y395109D01*
X962897Y394940D01*
Y394926D01*
X962911Y394855D01*
X962940Y394757D01*
X962953Y394616D01*
X962982Y394446D01*
X962996Y394221D01*
X963010Y393981D01*
Y393685D01*
Y389301D01*
X961135D01*
Y392896D01*
Y392910D01*
Y392952D01*
Y393009D01*
Y393079D01*
Y393178D01*
Y393276D01*
X961121Y393516D01*
X961107Y393756D01*
X961079Y394010D01*
X961050Y394221D01*
X961036Y394305D01*
X961008Y394376D01*
Y394390D01*
X960980Y394432D01*
X960952Y394489D01*
X960910Y394573D01*
X960783Y394743D01*
X960712Y394827D01*
X960613Y394898D01*
X960599Y394912D01*
X960571Y394926D01*
X960515Y394954D01*
X960430Y394996D01*
X960331Y395039D01*
X960233Y395067D01*
X960106Y395081D01*
X959965Y395095D01*
X959880D01*
X959796Y395081D01*
X959683Y395067D01*
X959542Y395024D01*
X959401Y394982D01*
X959246Y394912D01*
X959091Y394827D01*
X959077Y394813D01*
X959035Y394785D01*
X958964Y394714D01*
X958879Y394644D01*
X958795Y394531D01*
X958710Y394418D01*
X958626Y394263D01*
X958569Y394108D01*
Y394094D01*
X958541Y394024D01*
X958527Y393911D01*
X958499Y393742D01*
X958485Y393643D01*
X958471Y393516D01*
X958457Y393389D01*
Y393234D01*
X958443Y393079D01*
X958428Y392896D01*
Y392699D01*
Y392487D01*
Y389301D01*
X956553D01*
Y396378D01*
X958287D01*
Y395335D01*
X958301Y395349D01*
X958330Y395391D01*
X958386Y395447D01*
X958457Y395518D01*
X958541Y395616D01*
X958654Y395715D01*
X958781Y395828D01*
X958922Y395941D01*
X959077Y396039D01*
X959260Y396152D01*
X959443Y396251D01*
X959655Y396350D01*
X959880Y396420D01*
X960106Y396476D01*
X960360Y396519D01*
X960613Y396533D01*
X960712D01*
X960839Y396519D01*
D02*
G37*
G36*
X993276Y389301D02*
X991542D01*
Y390358D01*
X991528Y390330D01*
X991472Y390260D01*
X991387Y390161D01*
X991260Y390034D01*
X991119Y389879D01*
X990936Y389738D01*
X990739Y389583D01*
X990513Y389456D01*
X990485Y389442D01*
X990400Y389414D01*
X990274Y389357D01*
X990104Y389301D01*
X989907Y389245D01*
X989681Y389188D01*
X989442Y389160D01*
X989188Y389146D01*
X989061D01*
X988934Y389160D01*
X988765Y389188D01*
X988554Y389216D01*
X988342Y389273D01*
X988117Y389357D01*
X987905Y389456D01*
X987877Y389470D01*
X987821Y389512D01*
X987708Y389583D01*
X987595Y389682D01*
X987454Y389809D01*
X987327Y389949D01*
X987200Y390133D01*
X987088Y390330D01*
X987074Y390358D01*
X987045Y390429D01*
X987003Y390556D01*
X986961Y390739D01*
X986918Y390965D01*
X986876Y391232D01*
X986848Y391543D01*
X986834Y391895D01*
Y396378D01*
X988709D01*
Y393121D01*
Y393107D01*
Y393051D01*
Y392980D01*
Y392882D01*
Y392769D01*
Y392642D01*
X988723Y392346D01*
X988737Y392022D01*
X988751Y391726D01*
X988765Y391599D01*
X988779Y391472D01*
X988793Y391373D01*
X988807Y391303D01*
Y391289D01*
X988821Y391246D01*
X988850Y391190D01*
X988892Y391105D01*
X988934Y391021D01*
X989005Y390936D01*
X989075Y390852D01*
X989174Y390767D01*
X989188Y390753D01*
X989230Y390739D01*
X989287Y390711D01*
X989371Y390683D01*
X989470Y390640D01*
X989597Y390612D01*
X989724Y390598D01*
X989879Y390584D01*
X989963D01*
X990048Y390598D01*
X990161Y390612D01*
X990302Y390640D01*
X990443Y390697D01*
X990598Y390753D01*
X990739Y390838D01*
X990753Y390852D01*
X990795Y390880D01*
X990866Y390936D01*
X990950Y391021D01*
X991035Y391120D01*
X991119Y391218D01*
X991204Y391345D01*
X991260Y391486D01*
Y391500D01*
X991289Y391571D01*
Y391627D01*
X991303Y391698D01*
X991317Y391768D01*
X991331Y391867D01*
X991345Y391994D01*
X991359Y392121D01*
X991373Y392276D01*
Y392459D01*
X991387Y392656D01*
X991401Y392882D01*
Y393121D01*
Y393389D01*
Y396378D01*
X993276D01*
Y389301D01*
D02*
G37*
G36*
X950858D02*
X949124D01*
Y390358D01*
X949110Y390330D01*
X949054Y390260D01*
X948969Y390161D01*
X948842Y390034D01*
X948701Y389879D01*
X948518Y389738D01*
X948321Y389583D01*
X948095Y389456D01*
X948067Y389442D01*
X947982Y389414D01*
X947856Y389357D01*
X947686Y389301D01*
X947489Y389245D01*
X947264Y389188D01*
X947024Y389160D01*
X946770Y389146D01*
X946643D01*
X946516Y389160D01*
X946347Y389188D01*
X946136Y389216D01*
X945924Y389273D01*
X945699Y389357D01*
X945487Y389456D01*
X945459Y389470D01*
X945403Y389512D01*
X945290Y389583D01*
X945177Y389682D01*
X945036Y389809D01*
X944909Y389949D01*
X944782Y390133D01*
X944670Y390330D01*
X944656Y390358D01*
X944627Y390429D01*
X944585Y390556D01*
X944543Y390739D01*
X944501Y390965D01*
X944458Y391232D01*
X944430Y391543D01*
X944416Y391895D01*
Y396378D01*
X946291D01*
Y393121D01*
Y393107D01*
Y393051D01*
Y392980D01*
Y392882D01*
Y392769D01*
Y392642D01*
X946305Y392346D01*
X946319Y392022D01*
X946333Y391726D01*
X946347Y391599D01*
X946361Y391472D01*
X946376Y391373D01*
X946390Y391303D01*
Y391289D01*
X946404Y391246D01*
X946432Y391190D01*
X946474Y391105D01*
X946516Y391021D01*
X946587Y390936D01*
X946657Y390852D01*
X946756Y390767D01*
X946770Y390753D01*
X946813Y390739D01*
X946869Y390711D01*
X946954Y390683D01*
X947052Y390640D01*
X947179Y390612D01*
X947306Y390598D01*
X947461Y390584D01*
X947545D01*
X947630Y390598D01*
X947743Y390612D01*
X947884Y390640D01*
X948025Y390697D01*
X948180Y390753D01*
X948321Y390838D01*
X948335Y390852D01*
X948377Y390880D01*
X948448Y390936D01*
X948532Y391021D01*
X948617Y391120D01*
X948701Y391218D01*
X948786Y391345D01*
X948842Y391486D01*
Y391500D01*
X948871Y391571D01*
Y391627D01*
X948885Y391698D01*
X948899Y391768D01*
X948913Y391867D01*
X948927Y391994D01*
X948941Y392121D01*
X948955Y392276D01*
Y392459D01*
X948969Y392656D01*
X948983Y392882D01*
Y393121D01*
Y393389D01*
Y396378D01*
X950858D01*
Y389301D01*
D02*
G37*
G36*
X948138Y386872D02*
X948264Y386858D01*
X948391Y386844D01*
X948546Y386830D01*
X948701Y386802D01*
X949054Y386717D01*
X949420Y386590D01*
X949590Y386506D01*
X949773Y386407D01*
X949928Y386294D01*
X950083Y386167D01*
X950097Y386153D01*
X950111Y386139D01*
X950154Y386097D01*
X950210Y386040D01*
X950266Y385970D01*
X950323Y385885D01*
X950478Y385674D01*
X950619Y385406D01*
X950731Y385110D01*
X950830Y384758D01*
X950844Y384560D01*
X950858Y384363D01*
Y384349D01*
Y384335D01*
Y384250D01*
X950844Y384123D01*
X950816Y383954D01*
X950774Y383771D01*
X950703Y383573D01*
X950619Y383362D01*
X950492Y383150D01*
X950478Y383122D01*
X950421Y383066D01*
X950351Y382967D01*
X950238Y382854D01*
X950097Y382714D01*
X949928Y382587D01*
X949731Y382460D01*
X949505Y382347D01*
X949519D01*
X949547Y382333D01*
X949590Y382319D01*
X949646Y382291D01*
X949787Y382206D01*
X949970Y382093D01*
X950168Y381966D01*
X950379Y381797D01*
X950576Y381600D01*
X950745Y381374D01*
X950760Y381346D01*
X950816Y381261D01*
X950887Y381135D01*
X950957Y380965D01*
X951042Y380754D01*
X951098Y380500D01*
X951154Y380233D01*
X951169Y379936D01*
Y379922D01*
Y379880D01*
Y379810D01*
X951154Y379711D01*
X951140Y379598D01*
X951126Y379457D01*
X951098Y379316D01*
X951056Y379161D01*
X950957Y378809D01*
X950887Y378625D01*
X950802Y378442D01*
X950703Y378259D01*
X950576Y378076D01*
X950450Y377906D01*
X950294Y377737D01*
X950280Y377723D01*
X950252Y377695D01*
X950210Y377653D01*
X950139Y377610D01*
X950055Y377540D01*
X949942Y377469D01*
X949829Y377399D01*
X949688Y377314D01*
X949533Y377230D01*
X949350Y377159D01*
X949167Y377089D01*
X948969Y377018D01*
X948744Y376976D01*
X948504Y376934D01*
X948264Y376906D01*
X947997Y376892D01*
X947870D01*
X947771Y376906D01*
X947658Y376920D01*
X947531Y376934D01*
X947391Y376948D01*
X947221Y376976D01*
X946869Y377061D01*
X946502Y377188D01*
X946319Y377258D01*
X946136Y377357D01*
X945953Y377455D01*
X945783Y377582D01*
X945769Y377596D01*
X945741Y377625D01*
X945685Y377667D01*
X945614Y377737D01*
X945544Y377822D01*
X945459Y377921D01*
X945360Y378047D01*
X945262Y378174D01*
X945163Y378329D01*
X945064Y378498D01*
X944980Y378682D01*
X944909Y378893D01*
X944839Y379105D01*
X944782Y379344D01*
X944754Y379584D01*
X944740Y379852D01*
Y379866D01*
Y379894D01*
Y379936D01*
Y379993D01*
X944754Y380148D01*
X944782Y380331D01*
X944839Y380557D01*
X944895Y380810D01*
X944994Y381064D01*
X945121Y381318D01*
Y381332D01*
X945135Y381346D01*
X945191Y381431D01*
X945290Y381544D01*
X945431Y381699D01*
X945600Y381868D01*
X945812Y382037D01*
X946065Y382192D01*
X946361Y382347D01*
X946347D01*
X946333Y382361D01*
X946249Y382403D01*
X946122Y382474D01*
X945967Y382559D01*
X945783Y382685D01*
X945614Y382826D01*
X945445Y382995D01*
X945304Y383179D01*
X945290Y383207D01*
X945248Y383277D01*
X945205Y383376D01*
X945149Y383531D01*
X945079Y383700D01*
X945036Y383912D01*
X944994Y384123D01*
X944980Y384363D01*
Y384377D01*
Y384405D01*
Y384462D01*
X944994Y384546D01*
X945008Y384631D01*
X945022Y384743D01*
X945079Y384997D01*
X945163Y385279D01*
X945304Y385589D01*
X945389Y385730D01*
X945487Y385885D01*
X945614Y386026D01*
X945741Y386167D01*
X945755Y386181D01*
X945783Y386195D01*
X945826Y386238D01*
X945882Y386280D01*
X945967Y386337D01*
X946051Y386393D01*
X946164Y386463D01*
X946305Y386534D01*
X946446Y386590D01*
X946601Y386661D01*
X946784Y386717D01*
X946982Y386773D01*
X947193Y386816D01*
X947419Y386858D01*
X947658Y386872D01*
X947912Y386886D01*
X948053D01*
X948138Y386872D01*
D02*
G37*
G36*
X995616Y350183D02*
X993741D01*
Y357246D01*
X993727Y357232D01*
X993699Y357204D01*
X993643Y357161D01*
X993558Y357091D01*
X993459Y357006D01*
X993347Y356922D01*
X993206Y356823D01*
X993051Y356710D01*
X992881Y356597D01*
X992698Y356485D01*
X992501Y356358D01*
X992289Y356245D01*
X991838Y356034D01*
X991331Y355836D01*
Y357528D01*
X991345D01*
X991359Y357542D01*
X991401Y357556D01*
X991458Y357570D01*
X991599Y357641D01*
X991796Y357725D01*
X992036Y357838D01*
X992303Y357993D01*
X992599Y358190D01*
X992910Y358416D01*
X992924Y358430D01*
X992952Y358444D01*
X992994Y358486D01*
X993051Y358543D01*
X993206Y358684D01*
X993375Y358867D01*
X993572Y359093D01*
X993770Y359375D01*
X993953Y359671D01*
X994094Y359995D01*
X995616D01*
Y350183D01*
D02*
G37*
G36*
X979123Y359981D02*
X979250Y359967D01*
X979391Y359953D01*
X979546Y359924D01*
X979715Y359896D01*
X980081Y359797D01*
X980448Y359656D01*
X980645Y359572D01*
X980814Y359473D01*
X980998Y359346D01*
X981153Y359205D01*
X981167Y359191D01*
X981195Y359177D01*
X981223Y359121D01*
X981280Y359064D01*
X981350Y358994D01*
X981421Y358895D01*
X981491Y358797D01*
X981576Y358670D01*
X981717Y358388D01*
X981858Y358064D01*
X981914Y357880D01*
X981942Y357683D01*
X981970Y357471D01*
X981984Y357260D01*
Y357232D01*
Y357147D01*
X981970Y357020D01*
X981956Y356865D01*
X981928Y356668D01*
X981886Y356456D01*
X981829Y356231D01*
X981745Y356005D01*
X981731Y355977D01*
X981703Y355907D01*
X981646Y355780D01*
X981562Y355625D01*
X981463Y355442D01*
X981336Y355230D01*
X981181Y355004D01*
X980998Y354765D01*
X980984Y354751D01*
X980927Y354680D01*
X980843Y354581D01*
X980716Y354441D01*
X980547Y354271D01*
X980335Y354046D01*
X980081Y353806D01*
X979771Y353510D01*
X979757Y353496D01*
X979729Y353482D01*
X979687Y353440D01*
X979630Y353383D01*
X979475Y353242D01*
X979292Y353073D01*
X979109Y352890D01*
X978925Y352707D01*
X978756Y352552D01*
X978700Y352481D01*
X978643Y352425D01*
X978629Y352411D01*
X978601Y352382D01*
X978559Y352326D01*
X978503Y352256D01*
X978376Y352100D01*
X978263Y351917D01*
X981984D01*
Y350183D01*
X975429D01*
Y350197D01*
Y350226D01*
X975443Y350282D01*
X975458Y350352D01*
X975472Y350437D01*
X975486Y350536D01*
X975542Y350789D01*
X975627Y351071D01*
X975740Y351381D01*
X975881Y351720D01*
X976064Y352044D01*
Y352058D01*
X976092Y352086D01*
X976120Y352143D01*
X976177Y352199D01*
X976233Y352298D01*
X976318Y352397D01*
X976416Y352523D01*
X976529Y352664D01*
X976656Y352834D01*
X976811Y353003D01*
X976980Y353200D01*
X977177Y353411D01*
X977389Y353623D01*
X977628Y353863D01*
X977882Y354116D01*
X978164Y354384D01*
X978178Y354398D01*
X978221Y354441D01*
X978277Y354497D01*
X978362Y354581D01*
X978474Y354666D01*
X978587Y354779D01*
X978841Y355033D01*
X979095Y355300D01*
X979348Y355568D01*
X979461Y355681D01*
X979574Y355808D01*
X979659Y355907D01*
X979715Y355991D01*
X979729Y356019D01*
X979771Y356090D01*
X979842Y356203D01*
X979912Y356358D01*
X979983Y356527D01*
X980053Y356724D01*
X980096Y356922D01*
X980110Y357133D01*
Y357147D01*
Y357161D01*
Y357232D01*
X980096Y357359D01*
X980067Y357500D01*
X980025Y357655D01*
X979969Y357810D01*
X979884Y357965D01*
X979771Y358106D01*
X979757Y358120D01*
X979715Y358162D01*
X979630Y358219D01*
X979532Y358275D01*
X979391Y358331D01*
X979236Y358388D01*
X979052Y358430D01*
X978841Y358444D01*
X978742D01*
X978629Y358430D01*
X978503Y358402D01*
X978347Y358359D01*
X978192Y358289D01*
X978037Y358204D01*
X977896Y358092D01*
X977882Y358078D01*
X977840Y358021D01*
X977784Y357937D01*
X977727Y357810D01*
X977657Y357655D01*
X977600Y357443D01*
X977544Y357204D01*
X977516Y356922D01*
X975655Y357105D01*
Y357119D01*
X975669Y357175D01*
Y357246D01*
X975697Y357359D01*
X975711Y357486D01*
X975754Y357626D01*
X975796Y357782D01*
X975838Y357965D01*
X975979Y358317D01*
X976148Y358684D01*
X976261Y358867D01*
X976388Y359036D01*
X976529Y359177D01*
X976684Y359318D01*
X976698Y359332D01*
X976726Y359346D01*
X976769Y359375D01*
X976839Y359431D01*
X976924Y359473D01*
X977037Y359530D01*
X977149Y359600D01*
X977290Y359656D01*
X977445Y359727D01*
X977614Y359783D01*
X977981Y359896D01*
X978418Y359967D01*
X978643Y359981D01*
X978883Y359995D01*
X979024D01*
X979123Y359981D01*
D02*
G37*
G36*
X962770Y350183D02*
X960895D01*
Y352058D01*
X962770D01*
Y350183D01*
D02*
G37*
G36*
X1002171Y359981D02*
X1002270D01*
X1002383Y359967D01*
X1002637Y359910D01*
X1002918Y359840D01*
X1003229Y359727D01*
X1003539Y359572D01*
X1003680Y359473D01*
X1003821Y359360D01*
X1003835D01*
X1003849Y359332D01*
X1003891Y359290D01*
X1003933Y359248D01*
X1004004Y359177D01*
X1004060Y359107D01*
X1004215Y358909D01*
X1004370Y358642D01*
X1004526Y358331D01*
X1004667Y357979D01*
X1004765Y357556D01*
X1002961Y357359D01*
Y357387D01*
X1002947Y357443D01*
X1002918Y357542D01*
X1002890Y357669D01*
X1002848Y357796D01*
X1002778Y357937D01*
X1002707Y358064D01*
X1002608Y358176D01*
X1002594Y358190D01*
X1002552Y358219D01*
X1002496Y358261D01*
X1002411Y358317D01*
X1002312Y358359D01*
X1002186Y358402D01*
X1002030Y358430D01*
X1001875Y358444D01*
X1001847D01*
X1001777Y358430D01*
X1001664Y358416D01*
X1001523Y358374D01*
X1001368Y358317D01*
X1001199Y358219D01*
X1001030Y358092D01*
X1000874Y357908D01*
X1000860Y357880D01*
X1000832Y357852D01*
X1000804Y357796D01*
X1000776Y357739D01*
X1000733Y357655D01*
X1000705Y357556D01*
X1000663Y357429D01*
X1000607Y357288D01*
X1000564Y357133D01*
X1000522Y356950D01*
X1000480Y356753D01*
X1000437Y356527D01*
X1000409Y356273D01*
X1000381Y355991D01*
X1000353Y355695D01*
X1000367Y355709D01*
X1000381Y355737D01*
X1000423Y355766D01*
X1000480Y355822D01*
X1000550Y355893D01*
X1000635Y355963D01*
X1000832Y356118D01*
X1001086Y356259D01*
X1001382Y356400D01*
X1001551Y356456D01*
X1001720Y356485D01*
X1001904Y356513D01*
X1002101Y356527D01*
X1002214D01*
X1002298Y356513D01*
X1002397Y356499D01*
X1002510Y356485D01*
X1002651Y356456D01*
X1002792Y356414D01*
X1003102Y356301D01*
X1003271Y356231D01*
X1003440Y356146D01*
X1003609Y356048D01*
X1003779Y355921D01*
X1003948Y355780D01*
X1004103Y355625D01*
X1004117Y355611D01*
X1004145Y355582D01*
X1004187Y355540D01*
X1004230Y355470D01*
X1004300Y355371D01*
X1004370Y355272D01*
X1004441Y355145D01*
X1004526Y355004D01*
X1004610Y354849D01*
X1004681Y354666D01*
X1004751Y354483D01*
X1004822Y354271D01*
X1004864Y354060D01*
X1004906Y353820D01*
X1004934Y353581D01*
X1004949Y353313D01*
Y353299D01*
Y353242D01*
Y353172D01*
X1004934Y353059D01*
X1004920Y352932D01*
X1004906Y352791D01*
X1004878Y352622D01*
X1004836Y352453D01*
X1004737Y352058D01*
X1004667Y351861D01*
X1004568Y351664D01*
X1004469Y351466D01*
X1004356Y351269D01*
X1004215Y351071D01*
X1004060Y350902D01*
X1004046Y350888D01*
X1004018Y350860D01*
X1003976Y350818D01*
X1003905Y350761D01*
X1003821Y350691D01*
X1003708Y350620D01*
X1003595Y350536D01*
X1003454Y350451D01*
X1003299Y350367D01*
X1003130Y350282D01*
X1002947Y350211D01*
X1002735Y350141D01*
X1002524Y350085D01*
X1002298Y350042D01*
X1002059Y350014D01*
X1001805Y350000D01*
X1001734D01*
X1001664Y350014D01*
X1001565D01*
X1001438Y350042D01*
X1001283Y350056D01*
X1001128Y350099D01*
X1000945Y350141D01*
X1000762Y350197D01*
X1000564Y350282D01*
X1000353Y350367D01*
X1000155Y350479D01*
X999944Y350606D01*
X999747Y350761D01*
X999549Y350945D01*
X999366Y351142D01*
X999352Y351156D01*
X999324Y351198D01*
X999281Y351269D01*
X999225Y351367D01*
X999140Y351494D01*
X999070Y351649D01*
X998986Y351833D01*
X998901Y352044D01*
X998802Y352298D01*
X998718Y352566D01*
X998647Y352876D01*
X998577Y353228D01*
X998506Y353595D01*
X998464Y354004D01*
X998436Y354441D01*
X998422Y354920D01*
Y354934D01*
Y354948D01*
Y354990D01*
Y355033D01*
Y355174D01*
X998436Y355357D01*
X998450Y355582D01*
X998478Y355836D01*
X998506Y356118D01*
X998549Y356414D01*
X998591Y356724D01*
X998661Y357048D01*
X998746Y357373D01*
X998845Y357697D01*
X998957Y357993D01*
X999084Y358289D01*
X999239Y358557D01*
X999408Y358797D01*
X999423Y358811D01*
X999451Y358853D01*
X999507Y358909D01*
X999592Y358980D01*
X999690Y359078D01*
X999803Y359177D01*
X999944Y359290D01*
X1000099Y359403D01*
X1000282Y359501D01*
X1000466Y359614D01*
X1000691Y359713D01*
X1000917Y359812D01*
X1001156Y359882D01*
X1001424Y359938D01*
X1001692Y359981D01*
X1001988Y359995D01*
X1002101D01*
X1002171Y359981D01*
D02*
G37*
G36*
X950999Y355385D02*
X949124D01*
Y357260D01*
X950999D01*
Y355385D01*
D02*
G37*
G36*
X941019Y350183D02*
X939327D01*
X936479Y357260D01*
X938439D01*
X939778Y353637D01*
X940159Y352439D01*
X940173Y352453D01*
X940187Y352509D01*
X940215Y352594D01*
X940243Y352678D01*
X940314Y352890D01*
X940342Y352975D01*
X940356Y353045D01*
Y353059D01*
X940370Y353101D01*
X940384Y353158D01*
X940412Y353228D01*
X940469Y353426D01*
X940553Y353637D01*
X941907Y357260D01*
X943824D01*
X941019Y350183D01*
D02*
G37*
G36*
X957695D02*
X955820D01*
Y357246D01*
X955806Y357232D01*
X955778Y357204D01*
X955722Y357161D01*
X955637Y357091D01*
X955538Y357006D01*
X955426Y356922D01*
X955285Y356823D01*
X955130Y356710D01*
X954960Y356597D01*
X954777Y356485D01*
X954580Y356358D01*
X954369Y356245D01*
X953917Y356034D01*
X953410Y355836D01*
Y357528D01*
X953424D01*
X953438Y357542D01*
X953480Y357556D01*
X953537Y357570D01*
X953678Y357641D01*
X953875Y357725D01*
X954115Y357838D01*
X954383Y357993D01*
X954679Y358190D01*
X954989Y358416D01*
X955003Y358430D01*
X955031Y358444D01*
X955073Y358486D01*
X955130Y358543D01*
X955285Y358684D01*
X955454Y358867D01*
X955651Y359093D01*
X955849Y359375D01*
X956032Y359671D01*
X956173Y359995D01*
X957695D01*
Y350183D01*
D02*
G37*
G36*
X932772Y357401D02*
X932899Y357387D01*
X933054Y357359D01*
X933223Y357331D01*
X933406Y357288D01*
X933604Y357232D01*
X933801Y357161D01*
X934012Y357077D01*
X934224Y356964D01*
X934421Y356851D01*
X934619Y356710D01*
X934816Y356541D01*
X934985Y356358D01*
X934999Y356344D01*
X935027Y356315D01*
X935070Y356245D01*
X935126Y356160D01*
X935197Y356048D01*
X935267Y355921D01*
X935352Y355752D01*
X935436Y355568D01*
X935521Y355357D01*
X935605Y355117D01*
X935676Y354864D01*
X935746Y354567D01*
X935803Y354257D01*
X935845Y353919D01*
X935873Y353567D01*
Y353172D01*
X931193D01*
Y353158D01*
Y353130D01*
Y353087D01*
X931207Y353031D01*
X931221Y352890D01*
X931249Y352692D01*
X931306Y352495D01*
X931390Y352270D01*
X931489Y352058D01*
X931630Y351875D01*
X931644Y351861D01*
X931715Y351804D01*
X931799Y351734D01*
X931926Y351649D01*
X932081Y351565D01*
X932279Y351494D01*
X932490Y351438D01*
X932716Y351424D01*
X932786D01*
X932870Y351438D01*
X932969Y351452D01*
X933082Y351480D01*
X933209Y351522D01*
X933336Y351579D01*
X933448Y351664D01*
X933463Y351678D01*
X933505Y351706D01*
X933561Y351762D01*
X933618Y351847D01*
X933702Y351959D01*
X933773Y352086D01*
X933843Y352256D01*
X933914Y352439D01*
X935775Y352129D01*
Y352115D01*
X935760Y352086D01*
X935732Y352030D01*
X935704Y351959D01*
X935662Y351875D01*
X935620Y351776D01*
X935493Y351551D01*
X935338Y351297D01*
X935140Y351029D01*
X934901Y350789D01*
X934633Y350564D01*
X934619D01*
X934604Y350536D01*
X934548Y350522D01*
X934492Y350479D01*
X934421Y350437D01*
X934323Y350395D01*
X934224Y350352D01*
X934097Y350296D01*
X933815Y350197D01*
X933491Y350113D01*
X933110Y350056D01*
X932701Y350028D01*
X932617D01*
X932532Y350042D01*
X932405D01*
X932250Y350070D01*
X932067Y350099D01*
X931870Y350127D01*
X931672Y350183D01*
X931447Y350240D01*
X931221Y350324D01*
X930996Y350423D01*
X930770Y350536D01*
X930545Y350677D01*
X930333Y350832D01*
X930150Y351015D01*
X929967Y351227D01*
X929952Y351241D01*
X929938Y351269D01*
X929910Y351325D01*
X929854Y351396D01*
X929811Y351494D01*
X929755Y351607D01*
X929685Y351734D01*
X929628Y351889D01*
X929558Y352058D01*
X929501Y352241D01*
X929431Y352439D01*
X929389Y352664D01*
X929346Y352890D01*
X929304Y353130D01*
X929290Y353397D01*
X929276Y353665D01*
Y353679D01*
Y353736D01*
Y353834D01*
X929290Y353961D01*
X929304Y354102D01*
X929318Y354271D01*
X929346Y354455D01*
X929389Y354666D01*
X929501Y355103D01*
X929572Y355329D01*
X929656Y355568D01*
X929769Y355794D01*
X929896Y356005D01*
X930037Y356217D01*
X930192Y356414D01*
X930206Y356428D01*
X930234Y356456D01*
X930291Y356513D01*
X930361Y356569D01*
X930446Y356640D01*
X930559Y356724D01*
X930686Y356823D01*
X930826Y356922D01*
X930982Y357006D01*
X931165Y357105D01*
X931348Y357189D01*
X931560Y357260D01*
X931771Y357316D01*
X932011Y357373D01*
X932250Y357401D01*
X932504Y357415D01*
X932659D01*
X932772Y357401D01*
D02*
G37*
G36*
X986651Y359981D02*
X986763Y359967D01*
X986904Y359938D01*
X987045Y359910D01*
X987215Y359868D01*
X987398Y359812D01*
X987567Y359741D01*
X987750Y359671D01*
X987933Y359572D01*
X988117Y359445D01*
X988300Y359318D01*
X988469Y359163D01*
X988624Y358980D01*
X988638Y358966D01*
X988667Y358923D01*
X988709Y358853D01*
X988779Y358754D01*
X988850Y358613D01*
X988934Y358444D01*
X989019Y358261D01*
X989103Y358021D01*
X989188Y357767D01*
X989287Y357471D01*
X989357Y357147D01*
X989428Y356781D01*
X989498Y356386D01*
X989540Y355963D01*
X989569Y355498D01*
X989583Y354990D01*
Y354976D01*
Y354962D01*
Y354920D01*
Y354864D01*
Y354723D01*
X989569Y354539D01*
X989555Y354314D01*
X989526Y354046D01*
X989498Y353764D01*
X989470Y353454D01*
X989414Y353130D01*
X989343Y352791D01*
X989273Y352467D01*
X989174Y352143D01*
X989075Y351819D01*
X988934Y351522D01*
X988793Y351241D01*
X988624Y351001D01*
X988610Y350987D01*
X988582Y350959D01*
X988540Y350902D01*
X988483Y350846D01*
X988399Y350775D01*
X988300Y350691D01*
X988173Y350592D01*
X988046Y350508D01*
X987891Y350409D01*
X987736Y350310D01*
X987553Y350226D01*
X987355Y350155D01*
X987144Y350099D01*
X986904Y350042D01*
X986665Y350014D01*
X986411Y350000D01*
X986355D01*
X986270Y350014D01*
X986171D01*
X986059Y350028D01*
X985918Y350056D01*
X985762Y350085D01*
X985593Y350141D01*
X985410Y350197D01*
X985227Y350268D01*
X985029Y350352D01*
X984846Y350465D01*
X984649Y350578D01*
X984466Y350733D01*
X984282Y350888D01*
X984113Y351086D01*
X984099Y351100D01*
X984071Y351142D01*
X984029Y351212D01*
X983986Y351297D01*
X983916Y351424D01*
X983845Y351579D01*
X983761Y351776D01*
X983690Y351988D01*
X983606Y352241D01*
X983521Y352523D01*
X983451Y352848D01*
X983394Y353200D01*
X983338Y353595D01*
X983296Y354032D01*
X983267Y354497D01*
X983253Y355004D01*
Y355019D01*
Y355033D01*
Y355075D01*
Y355131D01*
Y355272D01*
X983267Y355456D01*
X983281Y355681D01*
X983310Y355949D01*
X983338Y356231D01*
X983366Y356541D01*
X983422Y356865D01*
X983479Y357189D01*
X983563Y357528D01*
X983648Y357852D01*
X983761Y358162D01*
X983888Y358458D01*
X984029Y358740D01*
X984198Y358980D01*
X984212Y358994D01*
X984240Y359022D01*
X984282Y359078D01*
X984353Y359135D01*
X984423Y359219D01*
X984522Y359304D01*
X984649Y359389D01*
X984776Y359487D01*
X984931Y359586D01*
X985086Y359671D01*
X985269Y359755D01*
X985467Y359840D01*
X985678Y359896D01*
X985918Y359953D01*
X986157Y359981D01*
X986411Y359995D01*
X986552D01*
X986651Y359981D01*
D02*
G37*
G36*
X967690D02*
X967803Y359967D01*
X967944Y359938D01*
X968085Y359910D01*
X968254Y359868D01*
X968437Y359812D01*
X968606Y359741D01*
X968790Y359671D01*
X968973Y359572D01*
X969156Y359445D01*
X969340Y359318D01*
X969509Y359163D01*
X969664Y358980D01*
X969678Y358966D01*
X969706Y358923D01*
X969748Y358853D01*
X969819Y358754D01*
X969889Y358613D01*
X969974Y358444D01*
X970058Y358261D01*
X970143Y358021D01*
X970228Y357767D01*
X970326Y357471D01*
X970397Y357147D01*
X970467Y356781D01*
X970538Y356386D01*
X970580Y355963D01*
X970608Y355498D01*
X970622Y354990D01*
Y354976D01*
Y354962D01*
Y354920D01*
Y354864D01*
Y354723D01*
X970608Y354539D01*
X970594Y354314D01*
X970566Y354046D01*
X970538Y353764D01*
X970509Y353454D01*
X970453Y353130D01*
X970383Y352791D01*
X970312Y352467D01*
X970213Y352143D01*
X970115Y351819D01*
X969974Y351522D01*
X969833Y351241D01*
X969664Y351001D01*
X969650Y350987D01*
X969621Y350959D01*
X969579Y350902D01*
X969523Y350846D01*
X969438Y350775D01*
X969340Y350691D01*
X969213Y350592D01*
X969086Y350508D01*
X968931Y350409D01*
X968776Y350310D01*
X968592Y350226D01*
X968395Y350155D01*
X968184Y350099D01*
X967944Y350042D01*
X967704Y350014D01*
X967450Y350000D01*
X967394D01*
X967309Y350014D01*
X967211D01*
X967098Y350028D01*
X966957Y350056D01*
X966802Y350085D01*
X966633Y350141D01*
X966450Y350197D01*
X966266Y350268D01*
X966069Y350352D01*
X965886Y350465D01*
X965688Y350578D01*
X965505Y350733D01*
X965322Y350888D01*
X965153Y351086D01*
X965139Y351100D01*
X965110Y351142D01*
X965068Y351212D01*
X965026Y351297D01*
X964955Y351424D01*
X964885Y351579D01*
X964800Y351776D01*
X964730Y351988D01*
X964645Y352241D01*
X964561Y352523D01*
X964490Y352848D01*
X964434Y353200D01*
X964377Y353595D01*
X964335Y354032D01*
X964307Y354497D01*
X964293Y355004D01*
Y355019D01*
Y355033D01*
Y355075D01*
Y355131D01*
Y355272D01*
X964307Y355456D01*
X964321Y355681D01*
X964349Y355949D01*
X964377Y356231D01*
X964406Y356541D01*
X964462Y356865D01*
X964518Y357189D01*
X964603Y357528D01*
X964688Y357852D01*
X964800Y358162D01*
X964927Y358458D01*
X965068Y358740D01*
X965237Y358980D01*
X965251Y358994D01*
X965280Y359022D01*
X965322Y359078D01*
X965392Y359135D01*
X965463Y359219D01*
X965562Y359304D01*
X965688Y359389D01*
X965815Y359487D01*
X965970Y359586D01*
X966125Y359671D01*
X966309Y359755D01*
X966506Y359840D01*
X966717Y359896D01*
X966957Y359953D01*
X967197Y359981D01*
X967450Y359995D01*
X967591D01*
X967690Y359981D01*
D02*
G37*
G36*
X950999Y350183D02*
X949124D01*
Y352058D01*
X950999D01*
Y350183D01*
D02*
G37*
G36*
X946855D02*
X944980D01*
Y352058D01*
X946855D01*
Y350183D01*
D02*
G37*
G36*
X924525Y359924D02*
X924680D01*
X924835Y359910D01*
X925018D01*
X925385Y359868D01*
X925766Y359826D01*
X926118Y359755D01*
X926273Y359713D01*
X926414Y359671D01*
X926428D01*
X926442Y359656D01*
X926527Y359614D01*
X926654Y359544D01*
X926823Y359459D01*
X927006Y359318D01*
X927189Y359163D01*
X927373Y358966D01*
X927542Y358726D01*
Y358712D01*
X927556Y358698D01*
X927584Y358656D01*
X927612Y358613D01*
X927683Y358472D01*
X927767Y358289D01*
X927838Y358064D01*
X927908Y357810D01*
X927965Y357514D01*
X927979Y357204D01*
Y357189D01*
Y357161D01*
Y357091D01*
X927965Y357020D01*
Y356922D01*
X927951Y356823D01*
X927894Y356569D01*
X927824Y356273D01*
X927711Y355977D01*
X927542Y355667D01*
X927443Y355526D01*
X927330Y355385D01*
X927316Y355371D01*
X927302Y355357D01*
X927260Y355315D01*
X927204Y355272D01*
X927147Y355216D01*
X927063Y355145D01*
X926964Y355075D01*
X926851Y355004D01*
X926724Y354920D01*
X926569Y354849D01*
X926414Y354779D01*
X926245Y354708D01*
X926048Y354638D01*
X925850Y354581D01*
X925639Y354525D01*
X925399Y354483D01*
X925413D01*
X925427Y354469D01*
X925512Y354412D01*
X925625Y354342D01*
X925766Y354243D01*
X925935Y354116D01*
X926104Y353989D01*
X926287Y353834D01*
X926442Y353665D01*
X926456Y353651D01*
X926527Y353581D01*
X926611Y353468D01*
X926738Y353299D01*
X926908Y353087D01*
X926992Y352946D01*
X927091Y352805D01*
X927204Y352650D01*
X927316Y352481D01*
X927443Y352284D01*
X927570Y352086D01*
X928768Y350183D01*
X926400D01*
X924990Y352298D01*
X924976Y352312D01*
X924962Y352354D01*
X924920Y352411D01*
X924864Y352481D01*
X924807Y352566D01*
X924737Y352678D01*
X924582Y352904D01*
X924398Y353158D01*
X924229Y353383D01*
X924074Y353595D01*
X924004Y353665D01*
X923947Y353736D01*
X923933Y353750D01*
X923905Y353778D01*
X923848Y353834D01*
X923778Y353905D01*
X923679Y353961D01*
X923581Y354032D01*
X923468Y354088D01*
X923355Y354145D01*
X923341D01*
X923299Y354159D01*
X923228Y354187D01*
X923115Y354201D01*
X922974Y354229D01*
X922805Y354243D01*
X922608Y354257D01*
X921974D01*
Y350183D01*
X920000D01*
Y359938D01*
X924398D01*
X924525Y359924D01*
D02*
G37*
G36*
X946770Y365004D02*
X944797D01*
Y369275D01*
X940948D01*
Y365004D01*
X938975D01*
Y374759D01*
X940948D01*
Y370924D01*
X944797D01*
Y374759D01*
X946770D01*
Y365004D01*
D02*
G37*
G36*
X960811Y372221D02*
X960952Y372207D01*
X961107Y372193D01*
X961276Y372179D01*
X961628Y372122D01*
X961981Y372038D01*
X962319Y371911D01*
X962474Y371841D01*
X962615Y371756D01*
X962629D01*
X962643Y371728D01*
X962728Y371671D01*
X962855Y371559D01*
X962996Y371404D01*
X963165Y371220D01*
X963320Y370981D01*
X963475Y370699D01*
X963588Y370374D01*
X961826Y370050D01*
Y370064D01*
X961798Y370121D01*
X961769Y370191D01*
X961727Y370276D01*
X961671Y370388D01*
X961586Y370487D01*
X961502Y370586D01*
X961389Y370671D01*
X961375Y370685D01*
X961332Y370713D01*
X961262Y370741D01*
X961163Y370783D01*
X961036Y370826D01*
X960881Y370868D01*
X960698Y370882D01*
X960487Y370896D01*
X960360D01*
X960233Y370882D01*
X960078Y370868D01*
X959894Y370840D01*
X959725Y370811D01*
X959570Y370755D01*
X959429Y370685D01*
X959415D01*
X959401Y370656D01*
X959331Y370586D01*
X959246Y370459D01*
X959232Y370388D01*
X959218Y370304D01*
Y370290D01*
Y370276D01*
X959246Y370191D01*
X959302Y370078D01*
X959345Y370022D01*
X959401Y369966D01*
X959415Y369952D01*
X959472Y369937D01*
X959500Y369909D01*
X959556Y369895D01*
X959627Y369867D01*
X959711Y369825D01*
X959824Y369796D01*
X959937Y369754D01*
X960078Y369712D01*
X960247Y369670D01*
X960430Y369613D01*
X960642Y369557D01*
X960881Y369500D01*
X961149Y369430D01*
X961163D01*
X961220Y369416D01*
X961290Y369402D01*
X961389Y369374D01*
X961516Y369331D01*
X961657Y369303D01*
X961967Y369204D01*
X962319Y369077D01*
X962657Y368937D01*
X962827Y368852D01*
X962982Y368782D01*
X963109Y368683D01*
X963235Y368598D01*
X963264Y368570D01*
X963334Y368514D01*
X963419Y368401D01*
X963531Y368246D01*
X963644Y368048D01*
X963729Y367809D01*
X963799Y367527D01*
X963828Y367217D01*
Y367203D01*
Y367174D01*
Y367118D01*
X963813Y367048D01*
X963799Y366977D01*
X963785Y366878D01*
X963729Y366639D01*
X963630Y366385D01*
X963560Y366244D01*
X963489Y366103D01*
X963391Y365962D01*
X963278Y365821D01*
X963151Y365680D01*
X963010Y365539D01*
X962996Y365525D01*
X962968Y365511D01*
X962925Y365483D01*
X962855Y365426D01*
X962770Y365384D01*
X962672Y365328D01*
X962545Y365257D01*
X962404Y365201D01*
X962249Y365130D01*
X962065Y365074D01*
X961868Y365004D01*
X961657Y364961D01*
X961417Y364919D01*
X961163Y364877D01*
X960895Y364863D01*
X960613Y364848D01*
X960472D01*
X960374Y364863D01*
X960247D01*
X960106Y364877D01*
X959951Y364891D01*
X959782Y364919D01*
X959415Y364989D01*
X959035Y365088D01*
X958654Y365229D01*
X958485Y365328D01*
X958316Y365426D01*
X958301Y365440D01*
X958273Y365455D01*
X958231Y365483D01*
X958189Y365539D01*
X958034Y365666D01*
X957865Y365849D01*
X957681Y366075D01*
X957512Y366343D01*
X957357Y366667D01*
X957230Y367019D01*
X959105Y367301D01*
Y367273D01*
X959133Y367217D01*
X959162Y367118D01*
X959204Y366991D01*
X959274Y366850D01*
X959359Y366723D01*
X959457Y366582D01*
X959584Y366469D01*
X959598Y366455D01*
X959655Y366427D01*
X959739Y366385D01*
X959852Y366343D01*
X959993Y366286D01*
X960176Y366244D01*
X960374Y366216D01*
X960613Y366202D01*
X960726D01*
X960867Y366216D01*
X961022Y366230D01*
X961191Y366258D01*
X961375Y366315D01*
X961544Y366371D01*
X961699Y366455D01*
X961713Y366469D01*
X961741Y366498D01*
X961784Y366540D01*
X961826Y366596D01*
X961868Y366667D01*
X961910Y366752D01*
X961939Y366850D01*
X961953Y366963D01*
Y366977D01*
Y367005D01*
X961939Y367090D01*
X961896Y367203D01*
X961812Y367315D01*
X961784Y367344D01*
X961741Y367358D01*
X961685Y367400D01*
X961600Y367428D01*
X961488Y367470D01*
X961361Y367513D01*
X961191Y367555D01*
X961163D01*
X961093Y367583D01*
X960980Y367611D01*
X960825Y367640D01*
X960642Y367682D01*
X960444Y367738D01*
X960219Y367795D01*
X959979Y367865D01*
X959486Y368006D01*
X959246Y368077D01*
X959020Y368161D01*
X958809Y368232D01*
X958612Y368316D01*
X958443Y368401D01*
X958316Y368471D01*
X958301Y368485D01*
X958273Y368499D01*
X958245Y368528D01*
X958189Y368584D01*
X958048Y368711D01*
X957907Y368894D01*
X957752Y369120D01*
X957611Y369388D01*
X957554Y369543D01*
X957526Y369712D01*
X957498Y369881D01*
X957484Y370064D01*
Y370078D01*
Y370107D01*
Y370149D01*
X957498Y370219D01*
X957512Y370290D01*
X957526Y370388D01*
X957569Y370600D01*
X957653Y370840D01*
X957794Y371093D01*
X957865Y371234D01*
X957963Y371361D01*
X958076Y371488D01*
X958203Y371601D01*
X958217Y371615D01*
X958231Y371629D01*
X958273Y371657D01*
X958344Y371699D01*
X958414Y371742D01*
X958513Y371798D01*
X958626Y371855D01*
X958753Y371925D01*
X958908Y371982D01*
X959077Y372038D01*
X959260Y372094D01*
X959457Y372136D01*
X959683Y372179D01*
X959923Y372207D01*
X960176Y372235D01*
X960698D01*
X960811Y372221D01*
D02*
G37*
G36*
X968677D02*
X968790D01*
X968917Y372207D01*
X969057Y372193D01*
X969213Y372165D01*
X969537Y372094D01*
X969875Y371996D01*
X970213Y371855D01*
X970524Y371671D01*
X970538D01*
X970552Y371643D01*
X970594Y371615D01*
X970650Y371573D01*
X970777Y371446D01*
X970947Y371263D01*
X971130Y371023D01*
X971313Y370741D01*
X971482Y370403D01*
X971623Y370008D01*
X969777Y369670D01*
Y369698D01*
X969762Y369754D01*
X969734Y369853D01*
X969692Y369980D01*
X969621Y370107D01*
X969551Y370247D01*
X969452Y370374D01*
X969340Y370487D01*
X969325Y370501D01*
X969283Y370530D01*
X969213Y370572D01*
X969114Y370628D01*
X968987Y370685D01*
X968846Y370727D01*
X968677Y370755D01*
X968494Y370769D01*
X968465D01*
X968381Y370755D01*
X968254Y370741D01*
X968085Y370713D01*
X967916Y370642D01*
X967732Y370558D01*
X967549Y370445D01*
X967380Y370276D01*
X967366Y370247D01*
X967324Y370177D01*
X967253Y370064D01*
X967183Y369895D01*
X967098Y369670D01*
X967070Y369543D01*
X967042Y369402D01*
X967013Y369233D01*
X966985Y369063D01*
X966971Y368866D01*
Y368669D01*
Y368655D01*
Y368612D01*
Y368542D01*
X966985Y368457D01*
Y368358D01*
X966999Y368246D01*
X967028Y367964D01*
X967070Y367668D01*
X967154Y367372D01*
X967253Y367104D01*
X967324Y366991D01*
X967394Y366878D01*
X967408Y366850D01*
X967479Y366794D01*
X967563Y366723D01*
X967690Y366625D01*
X967859Y366526D01*
X968043Y366455D01*
X968268Y366399D01*
X968522Y366371D01*
X968606D01*
X968705Y366385D01*
X968832Y366413D01*
X968973Y366441D01*
X969114Y366498D01*
X969255Y366568D01*
X969396Y366667D01*
X969410Y366681D01*
X969452Y366723D01*
X969509Y366794D01*
X969593Y366907D01*
X969678Y367048D01*
X969748Y367231D01*
X969833Y367456D01*
X969889Y367710D01*
X971722Y367400D01*
Y367386D01*
X971708Y367344D01*
X971694Y367273D01*
X971665Y367188D01*
X971623Y367090D01*
X971581Y366963D01*
X971468Y366681D01*
X971327Y366371D01*
X971130Y366061D01*
X970890Y365751D01*
X970749Y365610D01*
X970608Y365483D01*
X970594D01*
X970566Y365455D01*
X970524Y365426D01*
X970467Y365384D01*
X970383Y365342D01*
X970284Y365285D01*
X970171Y365229D01*
X970030Y365173D01*
X969889Y365102D01*
X969720Y365046D01*
X969551Y364989D01*
X969354Y364947D01*
X969142Y364905D01*
X968917Y364877D01*
X968691Y364863D01*
X968437Y364848D01*
X968282D01*
X968184Y364863D01*
X968057Y364877D01*
X967902Y364905D01*
X967732Y364933D01*
X967549Y364975D01*
X967352Y365018D01*
X967154Y365088D01*
X966943Y365159D01*
X966746Y365257D01*
X966534Y365370D01*
X966337Y365497D01*
X966154Y365652D01*
X965970Y365821D01*
X965956Y365835D01*
X965928Y365863D01*
X965886Y365920D01*
X965829Y366004D01*
X965759Y366103D01*
X965674Y366216D01*
X965604Y366357D01*
X965519Y366526D01*
X965421Y366709D01*
X965350Y366907D01*
X965266Y367132D01*
X965195Y367372D01*
X965139Y367640D01*
X965096Y367907D01*
X965068Y368218D01*
X965054Y368528D01*
Y368542D01*
Y368598D01*
Y368697D01*
X965068Y368810D01*
X965082Y368965D01*
X965096Y369134D01*
X965125Y369317D01*
X965167Y369529D01*
X965280Y369966D01*
X965350Y370191D01*
X965435Y370417D01*
X965547Y370642D01*
X965674Y370854D01*
X965815Y371051D01*
X965970Y371248D01*
X965984Y371263D01*
X966013Y371291D01*
X966069Y371333D01*
X966140Y371404D01*
X966238Y371474D01*
X966351Y371559D01*
X966478Y371657D01*
X966633Y371742D01*
X966802Y371841D01*
X966985Y371925D01*
X967197Y372010D01*
X967422Y372080D01*
X967648Y372151D01*
X967916Y372193D01*
X968184Y372221D01*
X968465Y372235D01*
X968592D01*
X968677Y372221D01*
D02*
G37*
G36*
X950661Y373025D02*
X948786D01*
Y374759D01*
X950661D01*
Y373025D01*
D02*
G37*
G36*
X989597Y372221D02*
X989780Y372193D01*
X989992Y372151D01*
X990203Y372094D01*
X990429Y372024D01*
X990640Y371911D01*
X990668Y371897D01*
X990725Y371855D01*
X990823Y371784D01*
X990950Y371685D01*
X991077Y371544D01*
X991218Y371389D01*
X991345Y371206D01*
X991458Y370981D01*
X991472Y370966D01*
X991486Y370896D01*
X991514Y370783D01*
X991556Y370628D01*
X991599Y370431D01*
X991627Y370177D01*
X991641Y369867D01*
X991655Y369515D01*
Y365004D01*
X989780D01*
Y369035D01*
Y369049D01*
Y369077D01*
Y369134D01*
Y369204D01*
X989766Y369388D01*
X989752Y369599D01*
X989738Y369825D01*
X989696Y370050D01*
X989653Y370247D01*
X989611Y370318D01*
X989583Y370388D01*
X989569Y370403D01*
X989526Y370459D01*
X989470Y370515D01*
X989385Y370600D01*
X989273Y370671D01*
X989132Y370741D01*
X988962Y370783D01*
X988779Y370797D01*
X988709D01*
X988638Y370783D01*
X988540Y370769D01*
X988427Y370741D01*
X988300Y370699D01*
X988159Y370642D01*
X988032Y370558D01*
X988018Y370544D01*
X987976Y370515D01*
X987919Y370459D01*
X987849Y370374D01*
X987764Y370276D01*
X987680Y370163D01*
X987609Y370022D01*
X987539Y369853D01*
Y369825D01*
X987511Y369768D01*
X987496Y369655D01*
X987468Y369500D01*
X987440Y369289D01*
X987426Y369035D01*
X987398Y368739D01*
Y368387D01*
Y365004D01*
X985523D01*
Y368866D01*
Y368880D01*
Y368908D01*
Y368965D01*
Y369035D01*
Y369204D01*
X985509Y369416D01*
X985495Y369641D01*
X985481Y369853D01*
X985452Y370050D01*
X985424Y370135D01*
X985410Y370191D01*
Y370205D01*
X985396Y370247D01*
X985368Y370304D01*
X985340Y370360D01*
X985241Y370515D01*
X985170Y370586D01*
X985100Y370642D01*
X985086Y370656D01*
X985058Y370671D01*
X985015Y370699D01*
X984959Y370727D01*
X984874Y370755D01*
X984776Y370769D01*
X984663Y370797D01*
X984466D01*
X984381Y370783D01*
X984282Y370769D01*
X984155Y370741D01*
X984029Y370699D01*
X983902Y370642D01*
X983761Y370558D01*
X983747Y370544D01*
X983704Y370515D01*
X983648Y370459D01*
X983577Y370388D01*
X983493Y370290D01*
X983408Y370177D01*
X983338Y370036D01*
X983267Y369881D01*
Y369867D01*
X983239Y369796D01*
X983225Y369684D01*
X983197Y369543D01*
X983169Y369331D01*
X983155Y369092D01*
X983126Y368782D01*
Y368429D01*
Y365004D01*
X981252D01*
Y372080D01*
X982971D01*
Y371107D01*
X982985Y371122D01*
X983014Y371150D01*
X983070Y371206D01*
X983140Y371291D01*
X983225Y371375D01*
X983324Y371460D01*
X983451Y371573D01*
X983592Y371671D01*
X983747Y371770D01*
X983916Y371883D01*
X984282Y372066D01*
X984494Y372136D01*
X984705Y372193D01*
X984931Y372221D01*
X985170Y372235D01*
X985283D01*
X985410Y372221D01*
X985565Y372207D01*
X985748Y372165D01*
X985946Y372122D01*
X986143Y372052D01*
X986340Y371953D01*
X986369Y371939D01*
X986425Y371897D01*
X986524Y371841D01*
X986637Y371742D01*
X986763Y371615D01*
X986904Y371474D01*
X987045Y371291D01*
X987172Y371093D01*
X987200Y371122D01*
X987257Y371192D01*
X987341Y371291D01*
X987468Y371418D01*
X987623Y371559D01*
X987793Y371699D01*
X987976Y371841D01*
X988173Y371953D01*
X988201Y371967D01*
X988272Y371996D01*
X988384Y372038D01*
X988525Y372094D01*
X988695Y372151D01*
X988892Y372193D01*
X989103Y372221D01*
X989329Y372235D01*
X989456D01*
X989597Y372221D01*
D02*
G37*
G36*
X956074D02*
X956229Y372193D01*
X956427Y372151D01*
X956638Y372080D01*
X956850Y371996D01*
X957075Y371869D01*
X956483Y370247D01*
X956469Y370262D01*
X956398Y370290D01*
X956314Y370346D01*
X956201Y370403D01*
X956060Y370459D01*
X955919Y370515D01*
X955764Y370544D01*
X955609Y370558D01*
X955553D01*
X955468Y370544D01*
X955384Y370530D01*
X955285Y370501D01*
X955172Y370459D01*
X955059Y370403D01*
X954947Y370332D01*
X954932Y370318D01*
X954904Y370290D01*
X954848Y370233D01*
X954791Y370149D01*
X954721Y370050D01*
X954650Y369909D01*
X954580Y369740D01*
X954523Y369543D01*
Y369515D01*
X954509Y369472D01*
X954495Y369430D01*
Y369359D01*
X954481Y369275D01*
X954467Y369162D01*
X954453Y369035D01*
X954439Y368894D01*
X954425Y368711D01*
X954411Y368528D01*
Y368302D01*
X954397Y368063D01*
X954383Y367795D01*
Y367499D01*
Y367174D01*
Y365004D01*
X952508D01*
Y372080D01*
X954242D01*
Y371079D01*
X954256Y371093D01*
X954312Y371178D01*
X954397Y371305D01*
X954509Y371460D01*
X954622Y371615D01*
X954763Y371770D01*
X954890Y371911D01*
X955031Y372010D01*
X955045Y372024D01*
X955087Y372052D01*
X955172Y372080D01*
X955271Y372122D01*
X955384Y372165D01*
X955524Y372207D01*
X955665Y372221D01*
X955835Y372235D01*
X955947D01*
X956074Y372221D01*
D02*
G37*
G36*
X929389Y365004D02*
X927570D01*
X927556Y372672D01*
X925639Y365004D01*
X923736D01*
X921818Y372672D01*
Y365004D01*
X920000D01*
Y374759D01*
X922946D01*
X924694Y368091D01*
X926428Y374759D01*
X929389D01*
Y365004D01*
D02*
G37*
G36*
X950661D02*
X948786D01*
Y372080D01*
X950661D01*
Y365004D01*
D02*
G37*
G36*
X933237D02*
X931362D01*
Y366878D01*
X933237D01*
Y365004D01*
D02*
G37*
G36*
X1004526Y372221D02*
X1004624D01*
X1004723Y372193D01*
X1004864Y372179D01*
X1005005Y372136D01*
X1005160Y372094D01*
X1005329Y372024D01*
X1005498Y371953D01*
X1005682Y371855D01*
X1005865Y371742D01*
X1006048Y371615D01*
X1006231Y371446D01*
X1006401Y371277D01*
X1006570Y371065D01*
Y372080D01*
X1008318D01*
Y365722D01*
Y365708D01*
Y365666D01*
Y365610D01*
Y365525D01*
Y365412D01*
X1008304Y365299D01*
X1008289Y365032D01*
X1008261Y364721D01*
X1008233Y364411D01*
X1008177Y364115D01*
X1008148Y363988D01*
X1008106Y363862D01*
X1008092Y363833D01*
X1008064Y363763D01*
X1008022Y363650D01*
X1007951Y363509D01*
X1007867Y363354D01*
X1007768Y363185D01*
X1007655Y363030D01*
X1007514Y362889D01*
X1007500Y362875D01*
X1007444Y362832D01*
X1007359Y362762D01*
X1007260Y362692D01*
X1007119Y362607D01*
X1006950Y362508D01*
X1006753Y362424D01*
X1006527Y362339D01*
X1006499Y362325D01*
X1006415Y362311D01*
X1006288Y362269D01*
X1006105Y362240D01*
X1005865Y362198D01*
X1005597Y362156D01*
X1005287Y362142D01*
X1004949Y362128D01*
X1004779D01*
X1004652Y362142D01*
X1004511D01*
X1004342Y362156D01*
X1004159Y362184D01*
X1003962Y362212D01*
X1003539Y362283D01*
X1003116Y362396D01*
X1002918Y362466D01*
X1002721Y362551D01*
X1002552Y362635D01*
X1002397Y362748D01*
X1002383Y362762D01*
X1002369Y362776D01*
X1002284Y362861D01*
X1002157Y362988D01*
X1002030Y363171D01*
X1001889Y363396D01*
X1001763Y363664D01*
X1001678Y363974D01*
X1001664Y364143D01*
X1001650Y364313D01*
Y364327D01*
Y364383D01*
Y364454D01*
X1001664Y364538D01*
X1003807Y364285D01*
Y364270D01*
X1003821Y364228D01*
X1003835Y364158D01*
X1003849Y364087D01*
X1003919Y363918D01*
X1003976Y363833D01*
X1004046Y363777D01*
X1004060Y363763D01*
X1004103Y363749D01*
X1004159Y363707D01*
X1004258Y363678D01*
X1004370Y363636D01*
X1004511Y363594D01*
X1004681Y363580D01*
X1004878Y363566D01*
X1005005D01*
X1005132Y363580D01*
X1005287Y363594D01*
X1005470Y363622D01*
X1005653Y363664D01*
X1005823Y363721D01*
X1005978Y363791D01*
X1005992Y363805D01*
X1006020Y363819D01*
X1006062Y363848D01*
X1006119Y363904D01*
X1006175Y363974D01*
X1006231Y364059D01*
X1006288Y364158D01*
X1006344Y364270D01*
Y364285D01*
X1006358Y364313D01*
X1006372Y364369D01*
X1006401Y364468D01*
X1006415Y364581D01*
X1006429Y364721D01*
X1006443Y364905D01*
Y365116D01*
Y366145D01*
X1006429Y366131D01*
X1006401Y366103D01*
X1006358Y366047D01*
X1006288Y365962D01*
X1006217Y365877D01*
X1006119Y365779D01*
X1005992Y365680D01*
X1005865Y365581D01*
X1005724Y365469D01*
X1005555Y365370D01*
X1005202Y365187D01*
X1005005Y365116D01*
X1004793Y365060D01*
X1004568Y365018D01*
X1004328Y365004D01*
X1004272D01*
X1004187Y365018D01*
X1004089D01*
X1003976Y365046D01*
X1003835Y365074D01*
X1003680Y365102D01*
X1003511Y365159D01*
X1003342Y365215D01*
X1003158Y365299D01*
X1002961Y365398D01*
X1002778Y365511D01*
X1002594Y365652D01*
X1002411Y365807D01*
X1002242Y365990D01*
X1002073Y366202D01*
Y366216D01*
X1002045Y366244D01*
X1002016Y366300D01*
X1001974Y366371D01*
X1001918Y366469D01*
X1001861Y366582D01*
X1001805Y366709D01*
X1001749Y366864D01*
X1001692Y367019D01*
X1001636Y367203D01*
X1001579Y367400D01*
X1001523Y367611D01*
X1001452Y368063D01*
X1001438Y368316D01*
X1001424Y368570D01*
Y368584D01*
Y368655D01*
Y368739D01*
X1001438Y368866D01*
X1001452Y369007D01*
X1001467Y369176D01*
X1001495Y369374D01*
X1001537Y369571D01*
X1001636Y370022D01*
X1001706Y370247D01*
X1001777Y370473D01*
X1001875Y370685D01*
X1001988Y370910D01*
X1002115Y371107D01*
X1002270Y371291D01*
X1002284Y371305D01*
X1002312Y371333D01*
X1002355Y371375D01*
X1002425Y371446D01*
X1002510Y371516D01*
X1002608Y371587D01*
X1002721Y371671D01*
X1002862Y371770D01*
X1003003Y371855D01*
X1003172Y371939D01*
X1003525Y372094D01*
X1003736Y372151D01*
X1003948Y372193D01*
X1004173Y372221D01*
X1004399Y372235D01*
X1004455D01*
X1004526Y372221D01*
D02*
G37*
G36*
X999916Y365004D02*
X998182D01*
Y366061D01*
X998168Y366032D01*
X998111Y365962D01*
X998027Y365863D01*
X997900Y365737D01*
X997759Y365581D01*
X997576Y365440D01*
X997378Y365285D01*
X997153Y365159D01*
X997125Y365144D01*
X997040Y365116D01*
X996913Y365060D01*
X996744Y365004D01*
X996547Y364947D01*
X996321Y364891D01*
X996081Y364863D01*
X995828Y364848D01*
X995701D01*
X995574Y364863D01*
X995405Y364891D01*
X995193Y364919D01*
X994982Y364975D01*
X994756Y365060D01*
X994545Y365159D01*
X994517Y365173D01*
X994460Y365215D01*
X994348Y365285D01*
X994235Y365384D01*
X994094Y365511D01*
X993967Y365652D01*
X993840Y365835D01*
X993727Y366032D01*
X993713Y366061D01*
X993685Y366131D01*
X993643Y366258D01*
X993600Y366441D01*
X993558Y366667D01*
X993516Y366935D01*
X993488Y367245D01*
X993474Y367597D01*
Y372080D01*
X995349D01*
Y368824D01*
Y368810D01*
Y368753D01*
Y368683D01*
Y368584D01*
Y368471D01*
Y368344D01*
X995363Y368048D01*
X995377Y367724D01*
X995391Y367428D01*
X995405Y367301D01*
X995419Y367174D01*
X995433Y367076D01*
X995447Y367005D01*
Y366991D01*
X995461Y366949D01*
X995489Y366893D01*
X995532Y366808D01*
X995574Y366723D01*
X995645Y366639D01*
X995715Y366554D01*
X995814Y366469D01*
X995828Y366455D01*
X995870Y366441D01*
X995926Y366413D01*
X996011Y366385D01*
X996110Y366343D01*
X996237Y366315D01*
X996363Y366300D01*
X996518Y366286D01*
X996603D01*
X996688Y366300D01*
X996800Y366315D01*
X996941Y366343D01*
X997082Y366399D01*
X997237Y366455D01*
X997378Y366540D01*
X997393Y366554D01*
X997435Y366582D01*
X997505Y366639D01*
X997590Y366723D01*
X997674Y366822D01*
X997759Y366921D01*
X997844Y367048D01*
X997900Y367188D01*
Y367203D01*
X997928Y367273D01*
Y367329D01*
X997942Y367400D01*
X997956Y367470D01*
X997971Y367569D01*
X997985Y367696D01*
X997999Y367823D01*
X998013Y367978D01*
Y368161D01*
X998027Y368358D01*
X998041Y368584D01*
Y368824D01*
Y369092D01*
Y372080D01*
X999916D01*
Y365004D01*
D02*
G37*
G36*
X1012039D02*
X1010164D01*
Y374759D01*
X1012039D01*
Y365004D01*
D02*
G37*
G36*
X974908Y371150D02*
X974922Y371164D01*
X974950Y371192D01*
X975006Y371248D01*
X975063Y371319D01*
X975162Y371404D01*
X975260Y371488D01*
X975387Y371587D01*
X975514Y371699D01*
X975669Y371798D01*
X975838Y371897D01*
X976205Y372066D01*
X976402Y372136D01*
X976613Y372193D01*
X976839Y372221D01*
X977065Y372235D01*
X977177D01*
X977304Y372221D01*
X977459Y372207D01*
X977643Y372179D01*
X977826Y372122D01*
X978037Y372066D01*
X978235Y371982D01*
X978263Y371967D01*
X978319Y371939D01*
X978418Y371883D01*
X978531Y371812D01*
X978658Y371728D01*
X978784Y371629D01*
X978911Y371502D01*
X979024Y371375D01*
X979038Y371361D01*
X979066Y371305D01*
X979109Y371234D01*
X979165Y371136D01*
X979236Y371009D01*
X979292Y370868D01*
X979348Y370713D01*
X979391Y370544D01*
Y370530D01*
X979405Y370459D01*
X979419Y370346D01*
X979447Y370205D01*
X979461Y370008D01*
X979475Y369768D01*
X979489Y369486D01*
Y369148D01*
Y365004D01*
X977614D01*
Y368725D01*
Y368739D01*
Y368767D01*
Y368824D01*
Y368908D01*
Y368993D01*
Y369092D01*
X977600Y369317D01*
X977586Y369557D01*
X977572Y369796D01*
X977544Y369994D01*
X977516Y370064D01*
X977502Y370135D01*
Y370149D01*
X977474Y370191D01*
X977445Y370233D01*
X977417Y370304D01*
X977290Y370459D01*
X977220Y370544D01*
X977121Y370614D01*
X977107Y370628D01*
X977079Y370642D01*
X977008Y370671D01*
X976938Y370713D01*
X976839Y370741D01*
X976726Y370769D01*
X976585Y370783D01*
X976444Y370797D01*
X976360D01*
X976275Y370783D01*
X976162Y370769D01*
X976036Y370741D01*
X975895Y370699D01*
X975754Y370642D01*
X975613Y370558D01*
X975599Y370544D01*
X975556Y370515D01*
X975486Y370459D01*
X975415Y370388D01*
X975317Y370290D01*
X975232Y370177D01*
X975147Y370036D01*
X975077Y369881D01*
Y369867D01*
X975049Y369796D01*
X975021Y369698D01*
X974992Y369543D01*
X974964Y369359D01*
X974936Y369120D01*
X974922Y368852D01*
X974908Y368542D01*
Y365004D01*
X973033D01*
Y374759D01*
X974908D01*
Y371150D01*
D02*
G37*
G36*
X1010661Y680974D02*
X1024046D01*
Y676002D01*
X994251Y646207D01*
X991076Y647343D01*
X991065Y647453D01*
X990058Y650775D01*
X988421Y653836D01*
X986219Y656519D01*
X983537Y658721D01*
X980475Y660357D01*
X977154Y661364D01*
X973700Y661704D01*
X970561Y661395D01*
X950088Y681869D01*
X954527Y686308D01*
X959861Y680974D01*
X974593D01*
X979927Y686308D01*
X985261Y680974D01*
X999993D01*
X1005327Y686308D01*
X1010661Y680974D01*
D02*
G37*
G36*
X1085401Y685872D02*
X1087193Y682520D01*
X1090144Y678923D01*
X1093741Y675972D01*
X1095877Y674830D01*
X1095113Y671782D01*
X1089780D01*
Y662998D01*
X1082436Y655654D01*
X1079620Y656821D01*
Y659880D01*
Y680120D01*
X1079620D01*
X1078387Y683168D01*
X1081821Y686602D01*
X1083106Y686610D01*
X1085401Y685872D01*
D02*
G37*
G36*
X647695Y688340D02*
X649765Y686270D01*
X648598Y683454D01*
X635616D01*
X634449Y686270D01*
X636519Y688340D01*
Y698498D01*
X647695D01*
Y688340D01*
D02*
G37*
G36*
X876295D02*
X878365Y686270D01*
X877198Y683454D01*
X854056D01*
X852889Y686270D01*
X854959Y688340D01*
Y698498D01*
X876295D01*
Y688340D01*
D02*
G37*
%LPC*%
G36*
X270000Y516237D02*
X266444Y515769D01*
X263131Y514397D01*
X260286Y512214D01*
X259370Y511020D01*
X255630D01*
X254714Y512214D01*
X251869Y514397D01*
X248556Y515769D01*
X245000Y516237D01*
X241444Y515769D01*
X238131Y514397D01*
X235286Y512214D01*
X233103Y509369D01*
X231731Y506055D01*
X231262Y502500D01*
X231731Y498944D01*
X233103Y495631D01*
X235286Y492786D01*
X238131Y490603D01*
X241444Y489231D01*
X245000Y488763D01*
X248556Y489231D01*
X251869Y490603D01*
X254714Y492786D01*
X255630Y493980D01*
X259370D01*
X260286Y492786D01*
X263131Y490603D01*
X266444Y489231D01*
X270000Y488763D01*
X273556Y489231D01*
X276869Y490603D01*
X279714Y492786D01*
X281897Y495631D01*
X283269Y498944D01*
X283738Y502500D01*
X283269Y506055D01*
X281897Y509369D01*
X279714Y512214D01*
X276869Y514397D01*
X273556Y515769D01*
X270000Y516237D01*
D02*
G37*
G36*
X1068230Y567281D02*
X1066226Y567017D01*
X1063176Y565754D01*
X1060556Y563744D01*
X1058546Y561124D01*
X1057283Y558074D01*
X1057019Y556070D01*
X1068230D01*
Y567281D01*
D02*
G37*
G36*
X1068230Y470281D02*
X1066226Y470017D01*
X1063176Y468754D01*
X1060556Y466744D01*
X1058546Y464124D01*
X1057283Y461074D01*
X1057019Y459070D01*
X1068230D01*
Y470281D01*
D02*
G37*
G36*
X1070770D02*
Y459070D01*
X1081981D01*
X1081717Y461074D01*
X1080454Y464124D01*
X1078444Y466744D01*
X1075824Y468754D01*
X1072774Y470017D01*
X1070770Y470281D01*
D02*
G37*
G36*
X320000Y572729D02*
X315566Y572293D01*
X311302Y570999D01*
X307372Y568899D01*
X303928Y566072D01*
X301101Y562628D01*
X299001Y558698D01*
X297707Y554434D01*
X297271Y550000D01*
X297707Y545566D01*
X299001Y541302D01*
X301101Y537372D01*
X303928Y533928D01*
X307372Y531101D01*
X311302Y529001D01*
X315566Y527707D01*
Y524793D01*
X311302Y523499D01*
X307372Y521399D01*
X303928Y518572D01*
X301101Y515128D01*
X299001Y511198D01*
X297707Y506934D01*
X297271Y502500D01*
X297707Y498066D01*
X299001Y493802D01*
X301101Y489872D01*
X303928Y486428D01*
X307372Y483601D01*
X311302Y481501D01*
X315566Y480207D01*
X320000Y479771D01*
X324434Y480207D01*
X328698Y481501D01*
X332628Y483601D01*
X336072Y486428D01*
X338899Y489872D01*
X340999Y493802D01*
X342293Y498066D01*
X342729Y502500D01*
X342293Y506934D01*
X340999Y511198D01*
X338899Y515128D01*
X336072Y518572D01*
X332628Y521399D01*
X328698Y523499D01*
X324434Y524793D01*
Y527707D01*
X328698Y529001D01*
X332628Y531101D01*
X336072Y533928D01*
X338899Y537372D01*
X340999Y541302D01*
X342293Y545566D01*
X342729Y550000D01*
X342293Y554434D01*
X340999Y558698D01*
X338899Y562628D01*
X336072Y566072D01*
X332628Y568899D01*
X328698Y570999D01*
X324434Y572293D01*
X320000Y572729D01*
D02*
G37*
G36*
X287500Y598730D02*
X271270D01*
Y582500D01*
X273438Y582714D01*
X276745Y583717D01*
X279792Y585345D01*
X282463Y587537D01*
X284655Y590208D01*
X286283Y593255D01*
X287286Y596562D01*
X287500Y598730D01*
D02*
G37*
G36*
X320000Y613737D02*
X316444Y613269D01*
X313131Y611897D01*
X310286Y609714D01*
X308103Y606869D01*
X306731Y603555D01*
X306262Y600000D01*
X306731Y596445D01*
X308103Y593131D01*
X310286Y590286D01*
X313131Y588103D01*
X316444Y586731D01*
X320000Y586263D01*
X323555Y586731D01*
X326869Y588103D01*
X329714Y590286D01*
X331897Y593131D01*
X333269Y596445D01*
X333737Y600000D01*
X333269Y603555D01*
X331897Y606869D01*
X329714Y609714D01*
X326869Y611897D01*
X323555Y613269D01*
X320000Y613737D01*
D02*
G37*
G36*
X268730Y598730D02*
X252500D01*
X252714Y596562D01*
X253717Y593255D01*
X255345Y590208D01*
X257537Y587537D01*
X260208Y585345D01*
X263255Y583717D01*
X266562Y582714D01*
X268730Y582500D01*
Y598730D01*
D02*
G37*
G36*
X1070770Y567281D02*
Y556070D01*
X1081981D01*
X1081717Y558074D01*
X1080454Y561124D01*
X1078444Y563744D01*
X1075824Y565754D01*
X1072774Y567017D01*
X1070770Y567281D01*
D02*
G37*
G36*
X270000Y563737D02*
X266444Y563269D01*
X263131Y561897D01*
X260286Y559714D01*
X259370Y558520D01*
X255630D01*
X254714Y559714D01*
X251869Y561897D01*
X248556Y563269D01*
X245000Y563737D01*
X241444Y563269D01*
X238131Y561897D01*
X235286Y559714D01*
X233103Y556869D01*
X231731Y553555D01*
X231262Y550000D01*
X231731Y546444D01*
X233103Y543131D01*
X235286Y540286D01*
X238131Y538103D01*
X241444Y536731D01*
X245000Y536263D01*
X248556Y536731D01*
X251869Y538103D01*
X254714Y540286D01*
X255630Y541480D01*
X259370D01*
X260286Y540286D01*
X263131Y538103D01*
X266444Y536731D01*
X270000Y536263D01*
X273556Y536731D01*
X276869Y538103D01*
X279714Y540286D01*
X281897Y543131D01*
X283269Y546444D01*
X283738Y550000D01*
X283269Y553555D01*
X281897Y556869D01*
X279714Y559714D01*
X276869Y561897D01*
X273556Y563269D01*
X270000Y563737D01*
D02*
G37*
G36*
X1022725Y385181D02*
X1021442D01*
Y378724D01*
X1023176D01*
X1023359Y378738D01*
X1023557D01*
X1023754Y378766D01*
X1023937Y378781D01*
X1024092Y378809D01*
X1024120D01*
X1024177Y378837D01*
X1024261Y378865D01*
X1024374Y378907D01*
X1024501Y378964D01*
X1024628Y379034D01*
X1024755Y379119D01*
X1024882Y379217D01*
X1024896Y379232D01*
X1024938Y379274D01*
X1024994Y379344D01*
X1025065Y379443D01*
X1025135Y379570D01*
X1025234Y379725D01*
X1025305Y379922D01*
X1025389Y380148D01*
Y380162D01*
X1025403Y380176D01*
Y380218D01*
X1025417Y380275D01*
X1025445Y380331D01*
X1025460Y380416D01*
X1025502Y380627D01*
X1025530Y380881D01*
X1025572Y381177D01*
X1025586Y381544D01*
X1025601Y381938D01*
Y381952D01*
Y381995D01*
Y382051D01*
Y382122D01*
Y382220D01*
X1025586Y382333D01*
X1025572Y382573D01*
X1025544Y382854D01*
X1025516Y383150D01*
X1025460Y383418D01*
X1025389Y383672D01*
Y383686D01*
X1025375Y383700D01*
X1025347Y383771D01*
X1025305Y383884D01*
X1025248Y384025D01*
X1025164Y384165D01*
X1025065Y384321D01*
X1024952Y384476D01*
X1024825Y384617D01*
X1024811Y384631D01*
X1024769Y384673D01*
X1024684Y384729D01*
X1024586Y384800D01*
X1024445Y384884D01*
X1024290Y384955D01*
X1024120Y385025D01*
X1023923Y385082D01*
X1023909D01*
X1023839Y385096D01*
X1023726Y385110D01*
X1023571Y385138D01*
X1023472D01*
X1023345Y385152D01*
X1023218D01*
X1023077Y385166D01*
X1022908D01*
X1022725Y385181D01*
D02*
G37*
G36*
X268730Y451230D02*
X252500D01*
X252714Y449062D01*
X253717Y445755D01*
X255345Y442708D01*
X257537Y440037D01*
X260208Y437845D01*
X263255Y436217D01*
X266562Y435214D01*
X268730Y435000D01*
Y451230D01*
D02*
G37*
G36*
X877187Y440436D02*
X868167D01*
Y431416D01*
X872042D01*
X877187Y436561D01*
Y440436D01*
D02*
G37*
G36*
X663770Y417945D02*
Y413770D01*
X667945D01*
X667764Y414680D01*
X666529Y416529D01*
X664680Y417764D01*
X663770Y417945D01*
D02*
G37*
G36*
X762040Y431230D02*
X756270D01*
Y426960D01*
X762040D01*
Y431230D01*
D02*
G37*
G36*
X268730Y470000D02*
X266562Y469786D01*
X263255Y468783D01*
X260208Y467155D01*
X257537Y464963D01*
X255345Y462292D01*
X253717Y459245D01*
X252714Y455938D01*
X252500Y453770D01*
X268730D01*
Y470000D01*
D02*
G37*
G36*
X271270D02*
Y453770D01*
X287500D01*
X287286Y455938D01*
X286283Y459245D01*
X284655Y462292D01*
X282463Y464963D01*
X279792Y467155D01*
X276745Y468783D01*
X273438Y469786D01*
X271270Y470000D01*
D02*
G37*
G36*
X320000Y466237D02*
X316444Y465769D01*
X313131Y464397D01*
X310286Y462214D01*
X308103Y459369D01*
X306731Y456055D01*
X306262Y452500D01*
X306731Y448944D01*
X308103Y445631D01*
X310286Y442786D01*
X313131Y440603D01*
X316444Y439231D01*
X320000Y438763D01*
X323555Y439231D01*
X326869Y440603D01*
X329714Y442786D01*
X331897Y445631D01*
X333269Y448944D01*
X333737Y452500D01*
X333269Y456055D01*
X331897Y459369D01*
X329714Y462214D01*
X326869Y464397D01*
X323555Y465769D01*
X320000Y466237D01*
D02*
G37*
G36*
X947940Y381558D02*
X947828D01*
X947701Y381529D01*
X947560Y381501D01*
X947391Y381445D01*
X947221Y381360D01*
X947052Y381233D01*
X946911Y381078D01*
X946897Y381050D01*
X946855Y380994D01*
X946813Y380895D01*
X946756Y380768D01*
X946686Y380613D01*
X946643Y380444D01*
X946601Y380247D01*
X946587Y380049D01*
Y380035D01*
Y380021D01*
Y379979D01*
Y379922D01*
X946615Y379781D01*
X946643Y379598D01*
X946686Y379401D01*
X946756Y379203D01*
X946855Y379006D01*
X946982Y378823D01*
X946996Y378809D01*
X947052Y378752D01*
X947137Y378696D01*
X947250Y378611D01*
X947391Y378541D01*
X947560Y378470D01*
X947757Y378414D01*
X947968Y378400D01*
X948067D01*
X948166Y378428D01*
X948307Y378456D01*
X948462Y378498D01*
X948617Y378569D01*
X948772Y378668D01*
X948927Y378809D01*
X948941Y378823D01*
X948983Y378893D01*
X949054Y378978D01*
X949124Y379119D01*
X949195Y379288D01*
X949265Y379499D01*
X949308Y379739D01*
X949322Y380021D01*
Y380035D01*
Y380049D01*
Y380134D01*
X949308Y380261D01*
X949279Y380416D01*
X949223Y380599D01*
X949153Y380782D01*
X949054Y380965D01*
X948927Y381135D01*
X948913Y381149D01*
X948857Y381205D01*
X948772Y381276D01*
X948659Y381346D01*
X948518Y381431D01*
X948349Y381487D01*
X948152Y381544D01*
X947940Y381558D01*
D02*
G37*
G36*
X287500Y451230D02*
X271270D01*
Y435000D01*
X273438Y435214D01*
X276745Y436217D01*
X279792Y437845D01*
X282463Y440037D01*
X284655Y442708D01*
X286283Y445755D01*
X287286Y449062D01*
X287500Y451230D01*
D02*
G37*
G36*
X967450Y358444D02*
X967394D01*
X967324Y358430D01*
X967253Y358416D01*
X967154Y358388D01*
X967056Y358345D01*
X966943Y358289D01*
X966844Y358219D01*
X966830Y358204D01*
X966802Y358176D01*
X966760Y358120D01*
X966703Y358049D01*
X966633Y357937D01*
X966577Y357810D01*
X966506Y357641D01*
X966450Y357443D01*
Y357429D01*
X966435Y357415D01*
Y357359D01*
X966421Y357302D01*
X966407Y357218D01*
X966393Y357119D01*
X966379Y357006D01*
X966365Y356865D01*
X966337Y356696D01*
X966323Y356527D01*
X966309Y356315D01*
X966294Y356104D01*
X966280Y355850D01*
Y355597D01*
X966266Y355300D01*
Y354990D01*
Y354976D01*
Y354920D01*
Y354821D01*
Y354708D01*
Y354567D01*
X966280Y354412D01*
Y354229D01*
X966294Y354046D01*
X966309Y353651D01*
X966337Y353256D01*
X966351Y353073D01*
X966379Y352904D01*
X966407Y352749D01*
X966435Y352608D01*
X966450Y352580D01*
X966464Y352509D01*
X966506Y352397D01*
X966548Y352270D01*
X966619Y352129D01*
X966689Y351988D01*
X966774Y351861D01*
X966858Y351762D01*
X966872Y351748D01*
X966901Y351734D01*
X966957Y351692D01*
X967028Y351664D01*
X967112Y351621D01*
X967211Y351579D01*
X967324Y351565D01*
X967450Y351551D01*
X967507D01*
X967577Y351565D01*
X967648Y351579D01*
X967747Y351607D01*
X967845Y351635D01*
X967944Y351692D01*
X968043Y351762D01*
X968057Y351776D01*
X968085Y351804D01*
X968141Y351861D01*
X968198Y351945D01*
X968254Y352044D01*
X968325Y352185D01*
X968395Y352340D01*
X968451Y352537D01*
Y352552D01*
X968465Y352566D01*
Y352622D01*
X968480Y352678D01*
X968494Y352763D01*
X968508Y352862D01*
X968536Y352975D01*
X968550Y353115D01*
X968564Y353270D01*
X968592Y353454D01*
X968606Y353651D01*
X968621Y353877D01*
X968635Y354116D01*
Y354384D01*
X968649Y354680D01*
Y354990D01*
Y355004D01*
Y355061D01*
Y355159D01*
Y355272D01*
Y355413D01*
X968635Y355568D01*
Y355752D01*
X968621Y355935D01*
X968606Y356330D01*
X968578Y356710D01*
X968550Y356893D01*
X968522Y357077D01*
X968494Y357232D01*
X968465Y357359D01*
Y357373D01*
X968451Y357387D01*
X968437Y357457D01*
X968395Y357570D01*
X968353Y357711D01*
X968282Y357852D01*
X968212Y357993D01*
X968127Y358120D01*
X968043Y358219D01*
X968028Y358233D01*
X968000Y358261D01*
X967944Y358289D01*
X967873Y358331D01*
X967789Y358374D01*
X967690Y358416D01*
X967577Y358430D01*
X967450Y358444D01*
D02*
G37*
G36*
X837500Y660205D02*
X834046Y659865D01*
X830724Y658858D01*
X827663Y657221D01*
X824980Y655020D01*
X824620D01*
X821937Y657221D01*
X818876Y658858D01*
X815554Y659865D01*
X812100Y660205D01*
X808646Y659865D01*
X805324Y658858D01*
X802263Y657221D01*
X799581Y655020D01*
X798113Y653232D01*
X796934Y652378D01*
X794085Y652640D01*
X793024Y653454D01*
X789974Y654717D01*
X787970Y654981D01*
Y642500D01*
Y630019D01*
X789974Y630283D01*
X793024Y631546D01*
X794085Y632360D01*
X796934Y632622D01*
X798113Y631768D01*
X799581Y629981D01*
X802263Y627779D01*
X803646Y627040D01*
Y588485D01*
X803182Y587880D01*
X802107Y585285D01*
X801740Y582500D01*
X802107Y579715D01*
X803182Y577120D01*
X804892Y574892D01*
X807120Y573181D01*
X809715Y572107D01*
X812500Y571740D01*
X815285Y572107D01*
X817880Y573181D01*
X820108Y574892D01*
X822392D01*
X824620Y573181D01*
X827215Y572107D01*
X830000Y571740D01*
X832785Y572107D01*
X835380Y573181D01*
X837608Y574892D01*
X839318Y577120D01*
X840393Y579715D01*
X840579Y581123D01*
X843478Y584022D01*
X844822Y585773D01*
X845666Y587812D01*
X845954Y590000D01*
Y627040D01*
X847337Y627779D01*
X850020Y629981D01*
X852221Y632663D01*
X853858Y635724D01*
X854865Y639046D01*
X855205Y642500D01*
X854865Y645954D01*
X853858Y649276D01*
X852221Y652337D01*
X850020Y655020D01*
X847337Y657221D01*
X844276Y658858D01*
X840954Y659865D01*
X837500Y660205D01*
D02*
G37*
G36*
X986411Y358444D02*
X986355D01*
X986284Y358430D01*
X986214Y358416D01*
X986115Y358388D01*
X986016Y358345D01*
X985903Y358289D01*
X985805Y358219D01*
X985791Y358204D01*
X985762Y358176D01*
X985720Y358120D01*
X985664Y358049D01*
X985593Y357937D01*
X985537Y357810D01*
X985467Y357641D01*
X985410Y357443D01*
Y357429D01*
X985396Y357415D01*
Y357359D01*
X985382Y357302D01*
X985368Y357218D01*
X985354Y357119D01*
X985340Y357006D01*
X985325Y356865D01*
X985297Y356696D01*
X985283Y356527D01*
X985269Y356315D01*
X985255Y356104D01*
X985241Y355850D01*
Y355597D01*
X985227Y355300D01*
Y354990D01*
Y354976D01*
Y354920D01*
Y354821D01*
Y354708D01*
Y354567D01*
X985241Y354412D01*
Y354229D01*
X985255Y354046D01*
X985269Y353651D01*
X985297Y353256D01*
X985311Y353073D01*
X985340Y352904D01*
X985368Y352749D01*
X985396Y352608D01*
X985410Y352580D01*
X985424Y352509D01*
X985467Y352397D01*
X985509Y352270D01*
X985579Y352129D01*
X985650Y351988D01*
X985734Y351861D01*
X985819Y351762D01*
X985833Y351748D01*
X985861Y351734D01*
X985918Y351692D01*
X985988Y351664D01*
X986073Y351621D01*
X986171Y351579D01*
X986284Y351565D01*
X986411Y351551D01*
X986467D01*
X986538Y351565D01*
X986608Y351579D01*
X986707Y351607D01*
X986806Y351635D01*
X986904Y351692D01*
X987003Y351762D01*
X987017Y351776D01*
X987045Y351804D01*
X987102Y351861D01*
X987158Y351945D01*
X987215Y352044D01*
X987285Y352185D01*
X987355Y352340D01*
X987412Y352537D01*
Y352552D01*
X987426Y352566D01*
Y352622D01*
X987440Y352678D01*
X987454Y352763D01*
X987468Y352862D01*
X987496Y352975D01*
X987511Y353115D01*
X987525Y353270D01*
X987553Y353454D01*
X987567Y353651D01*
X987581Y353877D01*
X987595Y354116D01*
Y354384D01*
X987609Y354680D01*
Y354990D01*
Y355004D01*
Y355061D01*
Y355159D01*
Y355272D01*
Y355413D01*
X987595Y355568D01*
Y355752D01*
X987581Y355935D01*
X987567Y356330D01*
X987539Y356710D01*
X987511Y356893D01*
X987482Y357077D01*
X987454Y357232D01*
X987426Y357359D01*
Y357373D01*
X987412Y357387D01*
X987398Y357457D01*
X987355Y357570D01*
X987313Y357711D01*
X987243Y357852D01*
X987172Y357993D01*
X987088Y358120D01*
X987003Y358219D01*
X986989Y358233D01*
X986961Y358261D01*
X986904Y358289D01*
X986834Y358331D01*
X986749Y358374D01*
X986651Y358416D01*
X986538Y358430D01*
X986411Y358444D01*
D02*
G37*
G36*
X785430Y654981D02*
X783426Y654717D01*
X780376Y653454D01*
X777756Y651444D01*
X775746Y648824D01*
X774483Y645774D01*
X774219Y643770D01*
X785430D01*
Y654981D01*
D02*
G37*
G36*
X1001805Y355145D02*
X1001720D01*
X1001608Y355117D01*
X1001481Y355089D01*
X1001340Y355033D01*
X1001185Y354962D01*
X1001030Y354849D01*
X1000889Y354708D01*
X1000874Y354694D01*
X1000832Y354624D01*
X1000776Y354525D01*
X1000705Y354398D01*
X1000635Y354215D01*
X1000578Y354004D01*
X1000536Y353750D01*
X1000522Y353454D01*
Y353440D01*
Y353411D01*
Y353369D01*
Y353299D01*
X1000550Y353144D01*
X1000578Y352932D01*
X1000621Y352707D01*
X1000691Y352467D01*
X1000790Y352241D01*
X1000931Y352044D01*
X1000945Y352030D01*
X1001001Y351974D01*
X1001100Y351889D01*
X1001213Y351804D01*
X1001354Y351706D01*
X1001509Y351635D01*
X1001692Y351579D01*
X1001889Y351551D01*
X1001974D01*
X1002073Y351579D01*
X1002200Y351607D01*
X1002327Y351649D01*
X1002482Y351720D01*
X1002623Y351819D01*
X1002764Y351945D01*
X1002778Y351959D01*
X1002820Y352030D01*
X1002876Y352129D01*
X1002947Y352270D01*
X1003003Y352453D01*
X1003059Y352678D01*
X1003102Y352960D01*
X1003116Y353285D01*
Y353299D01*
Y353327D01*
Y353383D01*
Y353440D01*
X1003102Y353609D01*
X1003074Y353820D01*
X1003017Y354046D01*
X1002961Y354286D01*
X1002862Y354511D01*
X1002735Y354694D01*
X1002721Y354708D01*
X1002665Y354765D01*
X1002594Y354835D01*
X1002482Y354920D01*
X1002341Y355004D01*
X1002186Y355075D01*
X1002002Y355131D01*
X1001805Y355145D01*
D02*
G37*
G36*
X268730Y685445D02*
X267820Y685264D01*
X265971Y684029D01*
X264736Y682180D01*
X264555Y681270D01*
X268730D01*
Y685445D01*
D02*
G37*
G36*
X271270D02*
Y681270D01*
X275445D01*
X275264Y682180D01*
X274029Y684029D01*
X272180Y685264D01*
X271270Y685445D01*
D02*
G37*
G36*
X275445Y678730D02*
X271270D01*
Y674555D01*
X272180Y674736D01*
X274029Y675971D01*
X275264Y677820D01*
X275445Y678730D01*
D02*
G37*
G36*
X270000Y663737D02*
X266444Y663269D01*
X263131Y661897D01*
X260286Y659714D01*
X259370Y658520D01*
X255630D01*
X254714Y659714D01*
X251869Y661897D01*
X248556Y663269D01*
X245000Y663737D01*
X241444Y663269D01*
X238131Y661897D01*
X235286Y659714D01*
X233103Y656869D01*
X231731Y653556D01*
X231262Y650000D01*
X231731Y646444D01*
X233103Y643131D01*
X235286Y640286D01*
X238131Y638103D01*
X241444Y636731D01*
X245000Y636263D01*
X248556Y636731D01*
X251869Y638103D01*
X254714Y640286D01*
X255630Y641480D01*
X259370D01*
X260286Y640286D01*
X263131Y638103D01*
X266444Y636731D01*
X270000Y636263D01*
X273556Y636731D01*
X276869Y638103D01*
X279714Y640286D01*
X281897Y643131D01*
X283269Y646444D01*
X283738Y650000D01*
X283269Y653556D01*
X281897Y656869D01*
X279714Y659714D01*
X276869Y661897D01*
X273556Y663269D01*
X270000Y663737D01*
D02*
G37*
G36*
X268730Y678730D02*
X264555D01*
X264736Y677820D01*
X265971Y675971D01*
X267820Y674736D01*
X268730Y674555D01*
Y678730D01*
D02*
G37*
G36*
X548127Y621284D02*
X539237D01*
Y612394D01*
X543047D01*
X548127Y617474D01*
Y621284D01*
D02*
G37*
G36*
X543047Y632714D02*
X539237D01*
Y623824D01*
X548127D01*
Y627634D01*
X543047Y632714D01*
D02*
G37*
G36*
X271270Y617500D02*
Y601270D01*
X287500D01*
X287286Y603438D01*
X286283Y606745D01*
X284655Y609792D01*
X282463Y612463D01*
X279792Y614655D01*
X276745Y616283D01*
X273438Y617286D01*
X271270Y617500D01*
D02*
G37*
G36*
X1004878Y370797D02*
X1004850D01*
X1004765Y370783D01*
X1004638Y370769D01*
X1004483Y370727D01*
X1004314Y370671D01*
X1004117Y370572D01*
X1003933Y370445D01*
X1003764Y370262D01*
X1003750Y370233D01*
X1003694Y370163D01*
X1003637Y370036D01*
X1003553Y369867D01*
X1003482Y369641D01*
X1003412Y369374D01*
X1003355Y369049D01*
X1003342Y368669D01*
Y368655D01*
Y368626D01*
Y368556D01*
X1003355Y368485D01*
Y368401D01*
X1003370Y368288D01*
X1003398Y368048D01*
X1003440Y367781D01*
X1003525Y367513D01*
X1003623Y367259D01*
X1003764Y367033D01*
X1003779Y367005D01*
X1003849Y366949D01*
X1003933Y366864D01*
X1004060Y366780D01*
X1004215Y366681D01*
X1004399Y366596D01*
X1004610Y366540D01*
X1004836Y366512D01*
X1004864D01*
X1004949Y366526D01*
X1005075Y366540D01*
X1005245Y366582D01*
X1005428Y366639D01*
X1005611Y366737D01*
X1005808Y366864D01*
X1005992Y367048D01*
X1006006Y367076D01*
X1006062Y367146D01*
X1006147Y367273D01*
X1006231Y367442D01*
X1006316Y367668D01*
X1006401Y367936D01*
X1006457Y368260D01*
X1006471Y368626D01*
Y368641D01*
Y368669D01*
Y368725D01*
Y368810D01*
X1006457Y368894D01*
X1006443Y369007D01*
X1006415Y369247D01*
X1006358Y369515D01*
X1006288Y369782D01*
X1006175Y370036D01*
X1006020Y370262D01*
X1006006Y370290D01*
X1005935Y370346D01*
X1005837Y370431D01*
X1005710Y370530D01*
X1005541Y370628D01*
X1005343Y370713D01*
X1005132Y370769D01*
X1004878Y370797D01*
D02*
G37*
G36*
X268730Y617500D02*
X266562Y617286D01*
X263255Y616283D01*
X260208Y614655D01*
X257537Y612463D01*
X255345Y609792D01*
X253717Y606745D01*
X252714Y603438D01*
X252500Y601270D01*
X268730D01*
Y617500D01*
D02*
G37*
G36*
X520187Y637794D02*
X504947D01*
X499867Y632714D01*
X494787Y637794D01*
X479547D01*
X474467Y632714D01*
X469387Y637794D01*
X454147D01*
X446527Y630174D01*
Y614934D01*
X454147Y607314D01*
X469387D01*
X474467Y612394D01*
X479547Y607314D01*
X494787D01*
X499867Y612394D01*
X504947Y607314D01*
X520187D01*
X527807Y614934D01*
X529603Y615678D01*
X532887Y612394D01*
X536697D01*
Y622554D01*
Y632714D01*
X532887D01*
X529603Y629430D01*
X527807Y630174D01*
X520187Y637794D01*
D02*
G37*
G36*
X932617Y355977D02*
X932518D01*
X932405Y355949D01*
X932264Y355921D01*
X932109Y355864D01*
X931940Y355794D01*
X931771Y355681D01*
X931616Y355526D01*
X931602Y355512D01*
X931560Y355442D01*
X931489Y355343D01*
X931419Y355202D01*
X931334Y355033D01*
X931278Y354821D01*
X931235Y354581D01*
X931221Y354314D01*
X934012D01*
Y354328D01*
Y354356D01*
Y354384D01*
X933998Y354441D01*
X933984Y354596D01*
X933956Y354765D01*
X933900Y354962D01*
X933829Y355174D01*
X933716Y355371D01*
X933589Y355540D01*
X933575Y355554D01*
X933519Y355611D01*
X933434Y355681D01*
X933322Y355766D01*
X933181Y355836D01*
X933011Y355907D01*
X932828Y355963D01*
X932617Y355977D01*
D02*
G37*
G36*
X924229Y358289D02*
X921974D01*
Y355808D01*
X923891D01*
X924173Y355822D01*
X924469Y355836D01*
X924765Y355850D01*
X924892Y355864D01*
X925004Y355878D01*
X925117Y355907D01*
X925188Y355921D01*
X925202D01*
X925244Y355949D01*
X925315Y355977D01*
X925385Y356019D01*
X925568Y356146D01*
X925653Y356231D01*
X925738Y356330D01*
X925752Y356344D01*
X925766Y356386D01*
X925808Y356442D01*
X925850Y356527D01*
X925878Y356640D01*
X925921Y356767D01*
X925935Y356908D01*
X925949Y357063D01*
Y357091D01*
Y357147D01*
X925935Y357232D01*
X925921Y357345D01*
X925878Y357471D01*
X925836Y357598D01*
X925766Y357739D01*
X925681Y357852D01*
X925667Y357866D01*
X925639Y357908D01*
X925568Y357951D01*
X925484Y358021D01*
X925385Y358092D01*
X925258Y358148D01*
X925103Y358204D01*
X924934Y358247D01*
X924920D01*
X924878Y358261D01*
X924793D01*
X924666Y358275D01*
X924356D01*
X924229Y358289D01*
D02*
G37*
G36*
X320000Y672729D02*
X315566Y672293D01*
X311302Y670999D01*
X307372Y668899D01*
X303928Y666072D01*
X301101Y662628D01*
X299001Y658698D01*
X297707Y654434D01*
X297271Y650000D01*
X297707Y645566D01*
X299001Y641302D01*
X301101Y637372D01*
X303928Y633928D01*
X307372Y631101D01*
X311302Y629001D01*
X315566Y627707D01*
X320000Y627271D01*
X324434Y627707D01*
X328698Y629001D01*
X332628Y631101D01*
X336072Y633928D01*
X338899Y637372D01*
X340999Y641302D01*
X342293Y645566D01*
X342729Y650000D01*
X342293Y654434D01*
X340999Y658698D01*
X338899Y662628D01*
X336072Y666072D01*
X332628Y668899D01*
X328698Y670999D01*
X324434Y672293D01*
X320000Y672729D01*
D02*
G37*
G36*
X785430Y641230D02*
X774219D01*
X774483Y639226D01*
X775746Y636176D01*
X777756Y633556D01*
X780376Y631546D01*
X783426Y630283D01*
X785430Y630019D01*
Y641230D01*
D02*
G37*
G36*
X947926Y385406D02*
X947842D01*
X947743Y385392D01*
X947616Y385364D01*
X947475Y385322D01*
X947334Y385265D01*
X947193Y385195D01*
X947066Y385082D01*
X947052Y385068D01*
X947024Y385025D01*
X946967Y384955D01*
X946911Y384856D01*
X946855Y384729D01*
X946798Y384588D01*
X946770Y384419D01*
X946756Y384222D01*
Y384194D01*
Y384123D01*
X946770Y384025D01*
X946798Y383898D01*
X946827Y383757D01*
X946883Y383616D01*
X946967Y383475D01*
X947066Y383348D01*
X947080Y383334D01*
X947123Y383306D01*
X947193Y383249D01*
X947292Y383193D01*
X947419Y383136D01*
X947560Y383080D01*
X947729Y383052D01*
X947912Y383038D01*
X947997D01*
X948095Y383052D01*
X948222Y383080D01*
X948363Y383108D01*
X948504Y383165D01*
X948645Y383249D01*
X948772Y383348D01*
X948786Y383362D01*
X948828Y383404D01*
X948871Y383475D01*
X948941Y383587D01*
X948997Y383714D01*
X949040Y383855D01*
X949082Y384039D01*
X949096Y384236D01*
Y384264D01*
Y384321D01*
X949082Y384419D01*
X949054Y384532D01*
X949012Y384673D01*
X948955Y384814D01*
X948885Y384955D01*
X948772Y385082D01*
X948758Y385096D01*
X948716Y385138D01*
X948645Y385181D01*
X948546Y385251D01*
X948419Y385307D01*
X948279Y385350D01*
X948109Y385392D01*
X947926Y385406D01*
D02*
G37*
G36*
X865627Y287640D02*
X860997Y287184D01*
X856544Y285834D01*
X852441Y283640D01*
X848844Y280689D01*
X845893Y277092D01*
X843699Y272989D01*
X842349Y268536D01*
X841893Y263906D01*
X842349Y259276D01*
X843699Y254823D01*
X845893Y250720D01*
X848844Y247123D01*
X852441Y244172D01*
X856544Y241978D01*
X860997Y240628D01*
X865627Y240172D01*
X870257Y240628D01*
X874710Y241978D01*
X878813Y244172D01*
X882410Y247123D01*
X885361Y250720D01*
X887554Y254823D01*
X888905Y259276D01*
X889361Y263906D01*
X888905Y268536D01*
X887554Y272989D01*
X885361Y277092D01*
X882410Y280689D01*
X878813Y283640D01*
X874710Y285834D01*
X870257Y287184D01*
X865627Y287640D01*
D02*
G37*
G36*
X617040Y237730D02*
X612770D01*
Y231960D01*
X617040D01*
Y237730D01*
D02*
G37*
G36*
Y246040D02*
X612770D01*
Y240270D01*
X617040D01*
Y246040D01*
D02*
G37*
G36*
X1155949Y262636D02*
X1146297D01*
Y252984D01*
X1150488D01*
X1155949Y258445D01*
Y262636D01*
D02*
G37*
G36*
X1143757D02*
X1134105D01*
Y258445D01*
X1139566Y252984D01*
X1143757D01*
Y262636D01*
D02*
G37*
G36*
X271270Y320000D02*
Y303770D01*
X287500D01*
X287286Y305938D01*
X286283Y309245D01*
X284655Y312292D01*
X282463Y314963D01*
X279792Y317155D01*
X276745Y318783D01*
X273438Y319786D01*
X271270Y320000D01*
D02*
G37*
G36*
X256230Y225445D02*
X255320Y225264D01*
X253471Y224029D01*
X252236Y222180D01*
X252055Y221270D01*
X256230D01*
Y225445D01*
D02*
G37*
G36*
X262945Y218730D02*
X258770D01*
Y214555D01*
X259680Y214736D01*
X261529Y215971D01*
X262764Y217820D01*
X262945Y218730D01*
D02*
G37*
G36*
X258770Y225445D02*
Y221270D01*
X262945D01*
X262764Y222180D01*
X261529Y224029D01*
X259680Y225264D01*
X258770Y225445D01*
D02*
G37*
G36*
X596900Y336134D02*
X594115Y335767D01*
X591520Y334692D01*
X589291Y332982D01*
X587581Y330754D01*
X586507Y328159D01*
X586140Y325374D01*
X586453Y322995D01*
X586212Y322236D01*
X584668Y320386D01*
X581620Y320807D01*
Y325113D01*
X536668D01*
X536380Y325113D01*
X533620D01*
X533332Y325113D01*
X488380D01*
Y300829D01*
X483000Y295450D01*
X481593Y295264D01*
X478998Y294189D01*
X476769Y292479D01*
X475060Y290251D01*
X473985Y287656D01*
X473618Y284871D01*
X473985Y282086D01*
X475060Y279491D01*
X476769Y277262D01*
X478998Y275553D01*
X481593Y274478D01*
X484378Y274111D01*
X487163Y274478D01*
X489758Y275553D01*
X491987Y277262D01*
X493697Y279491D01*
X494771Y282086D01*
X494957Y283493D01*
X509336Y297873D01*
X533332D01*
X533620Y297873D01*
X536380D01*
X536668Y297873D01*
X581620D01*
Y303039D01*
X596493D01*
X598681Y303327D01*
X599876Y303822D01*
X600720Y304171D01*
X602471Y305515D01*
X602878Y305922D01*
X604222Y307673D01*
X605066Y309712D01*
X605354Y311900D01*
Y318868D01*
X606218Y319994D01*
X607293Y322589D01*
X607660Y325374D01*
X607293Y328159D01*
X606218Y330754D01*
X604509Y332982D01*
X602280Y334692D01*
X599685Y335767D01*
X596900Y336134D01*
D02*
G37*
G36*
X320000Y375229D02*
X315566Y374793D01*
X311302Y373499D01*
X307372Y371399D01*
X303928Y368572D01*
X301101Y365128D01*
X299001Y361198D01*
X297707Y356934D01*
X297271Y352500D01*
X297707Y348066D01*
X299001Y343802D01*
X301101Y339872D01*
X303928Y336428D01*
X307372Y333601D01*
X311302Y331501D01*
X315566Y330207D01*
X320000Y329771D01*
X324434Y330207D01*
X328698Y331501D01*
X332628Y333601D01*
X336072Y336428D01*
X338899Y339872D01*
X340999Y343802D01*
X342293Y348066D01*
X342729Y352500D01*
X342293Y356934D01*
X340999Y361198D01*
X338899Y365128D01*
X336072Y368572D01*
X332628Y371399D01*
X328698Y373499D01*
X324434Y374793D01*
X320000Y375229D01*
D02*
G37*
G36*
X268730Y320000D02*
X266562Y319786D01*
X263255Y318783D01*
X260208Y317155D01*
X257537Y314963D01*
X255345Y312292D01*
X253717Y309245D01*
X252714Y305938D01*
X252500Y303770D01*
X268730D01*
Y320000D01*
D02*
G37*
G36*
X1113770Y267945D02*
Y263770D01*
X1117945D01*
X1117764Y264680D01*
X1116529Y266529D01*
X1114680Y267764D01*
X1113770Y267945D01*
D02*
G37*
G36*
X268730Y301230D02*
X252500D01*
X252714Y299062D01*
X253717Y295755D01*
X255345Y292708D01*
X257537Y290037D01*
X260208Y287845D01*
X263255Y286217D01*
X266562Y285214D01*
X268730Y285000D01*
Y301230D01*
D02*
G37*
G36*
X320000Y316238D02*
X316444Y315769D01*
X313131Y314397D01*
X310286Y312214D01*
X308103Y309369D01*
X306731Y306056D01*
X306262Y302500D01*
X306731Y298944D01*
X308103Y295631D01*
X310286Y292786D01*
X313131Y290603D01*
X316444Y289231D01*
X320000Y288762D01*
X323555Y289231D01*
X326869Y290603D01*
X329714Y292786D01*
X331897Y295631D01*
X333269Y298944D01*
X333737Y302500D01*
X333269Y306056D01*
X331897Y309369D01*
X329714Y312214D01*
X326869Y314397D01*
X323555Y315769D01*
X320000Y316238D01*
D02*
G37*
G36*
X287500Y301230D02*
X271270D01*
Y285000D01*
X273438Y285214D01*
X276745Y286217D01*
X279792Y287845D01*
X282463Y290037D01*
X284655Y292708D01*
X286283Y295755D01*
X287286Y299062D01*
X287500Y301230D01*
D02*
G37*
G36*
X1111230Y267945D02*
X1110320Y267764D01*
X1108471Y266529D01*
X1107236Y264680D01*
X1107055Y263770D01*
X1111230D01*
Y267945D01*
D02*
G37*
G36*
X1181349Y262636D02*
X1171697D01*
Y252984D01*
X1175888D01*
X1181349Y258445D01*
Y262636D01*
D02*
G37*
G36*
X1169157D02*
X1159505D01*
Y258445D01*
X1164966Y252984D01*
X1169157D01*
Y262636D01*
D02*
G37*
G36*
X1111230Y261230D02*
X1107055D01*
X1107236Y260320D01*
X1108471Y258471D01*
X1110320Y257236D01*
X1111230Y257055D01*
Y261230D01*
D02*
G37*
G36*
X270000Y266238D02*
X266444Y265769D01*
X263131Y264397D01*
X260286Y262214D01*
X259370Y261020D01*
X255630D01*
X254714Y262214D01*
X251869Y264397D01*
X248556Y265769D01*
X245000Y266238D01*
X241444Y265769D01*
X238131Y264397D01*
X235286Y262214D01*
X233103Y259369D01*
X231731Y256056D01*
X231262Y252500D01*
X231731Y248944D01*
X233103Y245631D01*
X235286Y242786D01*
X238131Y240603D01*
X241444Y239231D01*
X245000Y238762D01*
X248556Y239231D01*
X251869Y240603D01*
X254714Y242786D01*
X255630Y243980D01*
X259370D01*
X260286Y242786D01*
X263131Y240603D01*
X266444Y239231D01*
X270000Y238762D01*
X273556Y239231D01*
X276869Y240603D01*
X279714Y242786D01*
X281897Y245631D01*
X283269Y248944D01*
X283738Y252500D01*
X283269Y256056D01*
X281897Y259369D01*
X279714Y262214D01*
X276869Y264397D01*
X273556Y265769D01*
X270000Y266238D01*
D02*
G37*
G36*
X1117945Y261230D02*
X1113770D01*
Y257055D01*
X1114680Y257236D01*
X1116529Y258471D01*
X1117764Y260320D01*
X1117945Y261230D01*
D02*
G37*
G36*
X256230Y218730D02*
X252055D01*
X252236Y217820D01*
X253471Y215971D01*
X255320Y214736D01*
X256230Y214555D01*
Y218730D01*
D02*
G37*
G36*
Y376071D02*
X252055D01*
X252236Y375161D01*
X253471Y373312D01*
X255320Y372077D01*
X256230Y371896D01*
Y376071D01*
D02*
G37*
G36*
X262945D02*
X258770D01*
Y371896D01*
X259680Y372077D01*
X261529Y373312D01*
X262764Y375161D01*
X262945Y376071D01*
D02*
G37*
G36*
X939172Y395095D02*
X939144D01*
X939059Y395081D01*
X938932Y395067D01*
X938791Y395024D01*
X938608Y394968D01*
X938425Y394869D01*
X938242Y394743D01*
X938058Y394559D01*
X938044Y394531D01*
X937988Y394461D01*
X937917Y394334D01*
X937847Y394165D01*
X937762Y393939D01*
X937692Y393671D01*
X937635Y393347D01*
X937621Y392980D01*
Y392966D01*
Y392938D01*
Y392868D01*
Y392797D01*
X937635Y392699D01*
Y392600D01*
X937663Y392360D01*
X937692Y392092D01*
X937748Y391810D01*
X937833Y391557D01*
X937875Y391444D01*
X937931Y391345D01*
Y391331D01*
X937960Y391317D01*
X938016Y391232D01*
X938115Y391120D01*
X938256Y390993D01*
X938439Y390852D01*
X938650Y390739D01*
X938904Y390654D01*
X939045Y390640D01*
X939186Y390626D01*
X939214D01*
X939299Y390640D01*
X939412Y390654D01*
X939567Y390697D01*
X939736Y390753D01*
X939919Y390852D01*
X940102Y390979D01*
X940286Y391162D01*
X940300Y391190D01*
X940356Y391261D01*
X940426Y391387D01*
X940511Y391571D01*
X940596Y391796D01*
X940666Y392078D01*
X940723Y392416D01*
X940737Y392797D01*
Y392811D01*
Y392854D01*
Y392910D01*
Y392994D01*
X940723Y393093D01*
X940708Y393220D01*
X940680Y393474D01*
X940624Y393770D01*
X940553Y394052D01*
X940441Y394334D01*
X940370Y394446D01*
X940286Y394559D01*
X940272Y394588D01*
X940201Y394644D01*
X940116Y394728D01*
X939989Y394827D01*
X939820Y394926D01*
X939637Y395010D01*
X939412Y395067D01*
X939172Y395095D01*
D02*
G37*
G36*
X980307Y397407D02*
X979024D01*
Y390950D01*
X980758D01*
X980941Y390965D01*
X981139D01*
X981336Y390993D01*
X981519Y391007D01*
X981674Y391035D01*
X981703D01*
X981759Y391063D01*
X981843Y391091D01*
X981956Y391134D01*
X982083Y391190D01*
X982210Y391261D01*
X982337Y391345D01*
X982464Y391444D01*
X982478Y391458D01*
X982520Y391500D01*
X982577Y391571D01*
X982647Y391669D01*
X982718Y391796D01*
X982816Y391951D01*
X982887Y392149D01*
X982971Y392374D01*
Y392388D01*
X982985Y392402D01*
Y392445D01*
X982999Y392501D01*
X983028Y392557D01*
X983042Y392642D01*
X983084Y392854D01*
X983112Y393107D01*
X983155Y393403D01*
X983169Y393770D01*
X983183Y394165D01*
Y394179D01*
Y394221D01*
Y394277D01*
Y394348D01*
Y394446D01*
X983169Y394559D01*
X983155Y394799D01*
X983126Y395081D01*
X983098Y395377D01*
X983042Y395645D01*
X982971Y395899D01*
Y395913D01*
X982957Y395927D01*
X982929Y395997D01*
X982887Y396110D01*
X982830Y396251D01*
X982746Y396392D01*
X982647Y396547D01*
X982534Y396702D01*
X982407Y396843D01*
X982393Y396857D01*
X982351Y396899D01*
X982266Y396956D01*
X982168Y397026D01*
X982027Y397111D01*
X981872Y397181D01*
X981703Y397252D01*
X981505Y397308D01*
X981491D01*
X981421Y397322D01*
X981308Y397336D01*
X981153Y397365D01*
X981054D01*
X980927Y397379D01*
X980800D01*
X980659Y397393D01*
X980490D01*
X980307Y397407D01*
D02*
G37*
G36*
X968127Y395010D02*
X968057D01*
X968000Y394996D01*
X967873Y394982D01*
X967704Y394940D01*
X967507Y394869D01*
X967295Y394771D01*
X967084Y394630D01*
X966887Y394446D01*
X966872Y394418D01*
X966816Y394348D01*
X966731Y394207D01*
X966647Y394038D01*
X966548Y393812D01*
X966478Y393530D01*
X966421Y393206D01*
X966393Y392839D01*
Y392825D01*
Y392797D01*
Y392741D01*
X966407Y392670D01*
Y392572D01*
X966421Y392473D01*
X966450Y392247D01*
X966520Y391979D01*
X966605Y391712D01*
X966717Y391444D01*
X966887Y391218D01*
X966915Y391190D01*
X966971Y391134D01*
X967084Y391049D01*
X967239Y390950D01*
X967408Y390838D01*
X967620Y390753D01*
X967859Y390697D01*
X968127Y390668D01*
X968198D01*
X968254Y390683D01*
X968381Y390697D01*
X968550Y390739D01*
X968747Y390810D01*
X968959Y390894D01*
X969156Y391035D01*
X969354Y391218D01*
X969382Y391246D01*
X969438Y391317D01*
X969509Y391458D01*
X969607Y391627D01*
X969706Y391867D01*
X969777Y392135D01*
X969833Y392473D01*
X969861Y392839D01*
Y392854D01*
Y392882D01*
Y392938D01*
X969847Y393009D01*
Y393093D01*
X969833Y393206D01*
X969805Y393432D01*
X969734Y393685D01*
X969650Y393953D01*
X969523Y394221D01*
X969354Y394446D01*
X969325Y394475D01*
X969269Y394531D01*
X969156Y394630D01*
X969015Y394728D01*
X968832Y394827D01*
X968635Y394926D01*
X968395Y394982D01*
X968127Y395010D01*
D02*
G37*
G36*
X256230Y382786D02*
X255320Y382605D01*
X253471Y381370D01*
X252236Y379521D01*
X252055Y378611D01*
X256230D01*
Y382786D01*
D02*
G37*
G36*
X667945Y411230D02*
X663770D01*
Y407055D01*
X664680Y407236D01*
X666529Y408471D01*
X667764Y410320D01*
X667945Y411230D01*
D02*
G37*
G36*
X270000Y416237D02*
X266444Y415769D01*
X263131Y414397D01*
X260286Y412214D01*
X259370Y411020D01*
X255630D01*
X254714Y412214D01*
X251869Y414397D01*
X248556Y415769D01*
X245000Y416237D01*
X241444Y415769D01*
X238131Y414397D01*
X235286Y412214D01*
X233103Y409369D01*
X231731Y406055D01*
X231262Y402500D01*
X231731Y398944D01*
X233103Y395631D01*
X235286Y392786D01*
X238131Y390603D01*
X241444Y389231D01*
X245000Y388763D01*
X248556Y389231D01*
X251869Y390603D01*
X254714Y392786D01*
X255630Y393980D01*
X259370D01*
X260286Y392786D01*
X263131Y390603D01*
X266444Y389231D01*
X270000Y388763D01*
X273556Y389231D01*
X276869Y390603D01*
X279714Y392786D01*
X281897Y395631D01*
X283269Y398944D01*
X283738Y402500D01*
X283269Y406055D01*
X281897Y409369D01*
X279714Y412214D01*
X276869Y414397D01*
X273556Y415769D01*
X270000Y416237D01*
D02*
G37*
G36*
X555000Y438260D02*
X552215Y437893D01*
X549620Y436819D01*
X547392Y435108D01*
X545681Y432880D01*
X544607Y430285D01*
X544240Y427500D01*
X544607Y424715D01*
X545681Y422120D01*
X546546Y420994D01*
Y390620D01*
X536668D01*
X536380Y390620D01*
X533620D01*
X533332Y390620D01*
X488380D01*
Y385454D01*
X488000D01*
X485812Y385166D01*
X483773Y384322D01*
X482022Y382978D01*
X481325Y382281D01*
X481085Y382249D01*
X478490Y381175D01*
X476261Y379464D01*
X474907Y377699D01*
X472500Y375796D01*
X457130D01*
X449445Y368111D01*
X447833Y367443D01*
X444560Y370716D01*
X440685D01*
Y360426D01*
X439415D01*
Y359156D01*
X429125D01*
Y355281D01*
X431187Y353219D01*
X430910Y349576D01*
X424045Y342711D01*
Y327341D01*
X429060Y322326D01*
X424045Y317311D01*
Y301941D01*
X431730Y294256D01*
X447100D01*
X452115Y299271D01*
X457130Y294256D01*
X472500D01*
X480185Y301941D01*
Y317311D01*
X475170Y322326D01*
X480185Y327341D01*
Y342711D01*
X475170Y347726D01*
X480185Y352741D01*
Y358731D01*
X483233Y361180D01*
X483870Y361096D01*
X486655Y361463D01*
X489250Y362537D01*
X490348Y363380D01*
X533332D01*
X533620Y363380D01*
X536380D01*
X536668Y363380D01*
X581620D01*
Y390620D01*
X563454D01*
Y420994D01*
X564319Y422120D01*
X565393Y424715D01*
X565760Y427500D01*
X565393Y430285D01*
X564319Y432880D01*
X562608Y435108D01*
X560380Y436819D01*
X557785Y437893D01*
X555000Y438260D01*
D02*
G37*
G36*
X258770Y382786D02*
Y378611D01*
X262945D01*
X262764Y379521D01*
X261529Y381370D01*
X259680Y382605D01*
X258770Y382786D01*
D02*
G37*
G36*
X320000Y425229D02*
X315566Y424793D01*
X311302Y423499D01*
X307372Y421399D01*
X303928Y418572D01*
X301101Y415128D01*
X299001Y411198D01*
X297707Y406934D01*
X297271Y402500D01*
X297707Y398066D01*
X299001Y393802D01*
X301101Y389872D01*
X303928Y386428D01*
X307372Y383601D01*
X311302Y381501D01*
X315566Y380207D01*
X320000Y379771D01*
X324434Y380207D01*
X328698Y381501D01*
X332628Y383601D01*
X336072Y386428D01*
X338899Y389872D01*
X340999Y393802D01*
X342293Y398066D01*
X342729Y402500D01*
X342293Y406934D01*
X340999Y411198D01*
X338899Y415128D01*
X336072Y418572D01*
X332628Y421399D01*
X328698Y423499D01*
X324434Y424793D01*
X320000Y425229D01*
D02*
G37*
G36*
X621279Y211836D02*
X612897D01*
Y203454D01*
X616453D01*
X621279Y208280D01*
Y211836D01*
D02*
G37*
G36*
X270000Y366237D02*
X266444Y365769D01*
X263131Y364397D01*
X260286Y362214D01*
X259370Y361020D01*
X255630D01*
X254714Y362214D01*
X251869Y364397D01*
X248556Y365769D01*
X245000Y366237D01*
X241444Y365769D01*
X238131Y364397D01*
X235286Y362214D01*
X233103Y359369D01*
X231731Y356055D01*
X231262Y352500D01*
X231731Y348945D01*
X233103Y345631D01*
X235286Y342786D01*
X238131Y340603D01*
X241444Y339231D01*
X245000Y338763D01*
X248556Y339231D01*
X251869Y340603D01*
X254714Y342786D01*
X255630Y343980D01*
X259370D01*
X260286Y342786D01*
X263131Y340603D01*
X266444Y339231D01*
X270000Y338763D01*
X273556Y339231D01*
X276869Y340603D01*
X279714Y342786D01*
X281897Y345631D01*
X283269Y348945D01*
X283738Y352500D01*
X283269Y356055D01*
X281897Y359369D01*
X279714Y362214D01*
X276869Y364397D01*
X273556Y365769D01*
X270000Y366237D01*
D02*
G37*
G36*
X635757Y211836D02*
X627375D01*
Y208280D01*
X632201Y203454D01*
X635757D01*
Y211836D01*
D02*
G37*
G36*
X616453Y222758D02*
X612897D01*
Y214376D01*
X621279D01*
Y217932D01*
X616453Y222758D01*
D02*
G37*
G36*
X635757D02*
X632201D01*
X627375Y217932D01*
Y214376D01*
X635757D01*
Y222758D01*
D02*
G37*
G36*
X997999Y395095D02*
X997900D01*
X997787Y395067D01*
X997646Y395039D01*
X997491Y394982D01*
X997322Y394912D01*
X997153Y394799D01*
X996998Y394644D01*
X996984Y394630D01*
X996941Y394559D01*
X996871Y394461D01*
X996800Y394320D01*
X996716Y394150D01*
X996659Y393939D01*
X996617Y393699D01*
X996603Y393432D01*
X999394D01*
Y393446D01*
Y393474D01*
Y393502D01*
X999380Y393558D01*
X999366Y393713D01*
X999338Y393883D01*
X999281Y394080D01*
X999211Y394291D01*
X999098Y394489D01*
X998971Y394658D01*
X998957Y394672D01*
X998901Y394728D01*
X998816Y394799D01*
X998704Y394883D01*
X998563Y394954D01*
X998393Y395024D01*
X998210Y395081D01*
X997999Y395095D01*
D02*
G37*
G36*
X924807Y396787D02*
X923482Y393164D01*
X926174D01*
X924807Y396787D01*
D02*
G37*
G36*
X1070770Y373281D02*
Y362070D01*
X1081981D01*
X1081717Y364074D01*
X1080454Y367124D01*
X1078444Y369744D01*
X1075824Y371754D01*
X1072774Y373017D01*
X1070770Y373281D01*
D02*
G37*
G36*
X438145Y370716D02*
X434270D01*
X429125Y365571D01*
Y361696D01*
X438145D01*
Y370716D01*
D02*
G37*
G36*
X1068230Y373281D02*
X1066226Y373017D01*
X1063176Y371754D01*
X1060556Y369744D01*
X1058546Y367124D01*
X1057283Y364074D01*
X1057019Y362070D01*
X1068230D01*
Y373281D01*
D02*
G37*
%LPD*%
G36*
X827663Y627779D02*
X829046Y627040D01*
Y593502D01*
X828622Y593079D01*
X827215Y592893D01*
X824620Y591819D01*
X823602Y591038D01*
X820554Y592541D01*
Y627040D01*
X821937Y627779D01*
X824620Y629981D01*
X824980D01*
X827663Y627779D01*
D02*
G37*
D10*
X1099900Y661162D02*
D03*
X1109900D02*
D03*
X576300Y239000D02*
D03*
X586300D02*
D03*
X1110000Y645000D02*
D03*
X1100000D02*
D03*
D11*
X596500Y239000D02*
D03*
X611500D02*
D03*
X547500Y580000D02*
D03*
X532500D02*
D03*
X547500Y567500D02*
D03*
X532500D02*
D03*
X412500Y540000D02*
D03*
X397500D02*
D03*
X412500Y522500D02*
D03*
X397500D02*
D03*
D12*
X721000Y443000D02*
D03*
Y449500D02*
D03*
Y456000D02*
D03*
Y462500D02*
D03*
Y469000D02*
D03*
Y475500D02*
D03*
Y482000D02*
D03*
Y488500D02*
D03*
Y495000D02*
D03*
Y501500D02*
D03*
Y508000D02*
D03*
Y514500D02*
D03*
Y521000D02*
D03*
Y527500D02*
D03*
X645000Y443000D02*
D03*
Y449500D02*
D03*
Y456000D02*
D03*
Y462500D02*
D03*
Y469000D02*
D03*
Y475500D02*
D03*
Y482000D02*
D03*
Y488500D02*
D03*
Y495000D02*
D03*
Y501500D02*
D03*
Y508000D02*
D03*
Y514500D02*
D03*
Y521000D02*
D03*
D13*
Y527500D02*
D03*
D14*
X755000Y447500D02*
D03*
Y432500D02*
D03*
D15*
X742500Y448000D02*
D03*
Y438000D02*
D03*
X707500Y597500D02*
D03*
Y587500D02*
D03*
X670000Y597500D02*
D03*
Y587500D02*
D03*
X695000Y597500D02*
D03*
Y587500D02*
D03*
X682500Y597500D02*
D03*
Y587500D02*
D03*
X1094000Y236300D02*
D03*
Y246300D02*
D03*
X1069000Y660000D02*
D03*
Y670000D02*
D03*
X1044000Y660000D02*
D03*
Y670000D02*
D03*
X942000Y236300D02*
D03*
Y246300D02*
D03*
X992500Y236300D02*
D03*
Y246300D02*
D03*
X710000Y236300D02*
D03*
Y246300D02*
D03*
X967250Y236300D02*
D03*
Y246300D02*
D03*
D16*
X559000Y377000D02*
D03*
X511000D02*
D03*
X559000Y311493D02*
D03*
X511000D02*
D03*
D17*
X357627Y695706D02*
D03*
X1106927D02*
D03*
X865627Y543306D02*
D03*
Y263906D02*
D03*
X1170427Y213106D02*
D03*
X344927D02*
D03*
D18*
X509081Y710000D02*
X925000D01*
X494787Y695706D02*
X509081Y710000D01*
X925000D02*
X930000Y705000D01*
X951230Y545084D02*
X1006348Y600202D01*
X951230Y503682D02*
Y545084D01*
X1006348Y600202D02*
X1038940D01*
X1099900Y661162D01*
X1157727Y657606D02*
X1170427Y670306D01*
X1131316Y657606D02*
X1157727D01*
X1127760Y661162D02*
X1131316Y657606D01*
X1109900Y661162D02*
X1127760D01*
X483870Y372870D02*
X488000Y377000D01*
X483870Y371856D02*
Y372870D01*
X609406Y498094D02*
X619000Y488500D01*
X592582Y498094D02*
X609406D01*
X721000Y456000D02*
X810952D01*
X790000Y462500D02*
X797500Y470000D01*
X494792Y562102D02*
Y569792D01*
X505000Y580000D01*
X512500Y550000D02*
X515000D01*
X532500Y567500D01*
X587068Y535432D02*
X621000Y501500D01*
X586740Y535432D02*
X587068D01*
X622000Y508000D02*
X622554Y508554D01*
X519684Y469000D02*
X645000D01*
X497500Y462500D02*
X570000D01*
X420000Y540000D02*
X497500Y462500D01*
X536690Y475500D02*
X645000D01*
X536194Y475996D02*
X536690Y475500D01*
X488000Y377000D02*
X511000D01*
X484378Y284871D02*
X511000Y311493D01*
X596900Y311900D02*
Y325374D01*
X596493Y311493D02*
X596900Y311900D01*
X999400Y529400D02*
X1069500D01*
X738627Y268627D02*
X999400Y529400D01*
X738627Y213106D02*
Y268627D01*
X919900Y432400D02*
X1069500D01*
X764027Y276527D02*
X919900Y432400D01*
X764027Y213106D02*
Y276527D01*
X837900Y335400D02*
X1069500D01*
X789427Y286927D02*
X837900Y335400D01*
X789427Y213106D02*
Y286927D01*
X692500Y572500D02*
X707500Y587500D01*
X692500Y517500D02*
Y572500D01*
Y517500D02*
X695500Y514500D01*
X721000D01*
X687500Y580000D02*
X695000Y587500D01*
X687500Y500000D02*
Y580000D01*
Y500000D02*
X699000Y488500D01*
X721000D01*
X682500Y497500D02*
Y587500D01*
Y497500D02*
X697500Y482500D01*
X720500D01*
X721000Y482000D01*
X670000Y535000D02*
Y587500D01*
X656000Y521000D02*
X670000Y535000D01*
X645000Y521000D02*
X656000D01*
X531433Y706952D02*
X902500D01*
Y689799D02*
Y706952D01*
Y689799D02*
X948300Y643999D01*
X545587Y679413D02*
Y695706D01*
Y679413D02*
X550000Y675000D01*
X891899D01*
X922900Y643999D01*
X520187Y695706D02*
X531433Y706952D01*
X973700Y643999D02*
Y646300D01*
X930000Y690000D02*
X973700Y646300D01*
X930000Y690000D02*
Y705000D01*
X397500Y540000D02*
Y607500D01*
X387500Y512500D02*
X397500Y522500D01*
X375000Y512500D02*
X387500D01*
X555000Y381000D02*
X559000Y377000D01*
X555000Y381000D02*
Y427500D01*
X559000Y311493D02*
X596493D01*
X412500Y522500D02*
X425000D01*
X490000Y457500D01*
X412500Y540000D02*
X420000D01*
X505000Y580000D02*
X532500D01*
X597500Y567500D02*
X612500Y582500D01*
X547500Y567500D02*
X597500D01*
X595000Y580000D02*
X600000Y585000D01*
X547500Y580000D02*
X595000D01*
X600000Y585000D02*
Y612500D01*
X612500Y582500D02*
Y625000D01*
X830000Y582500D02*
X837500Y590000D01*
Y642500D01*
X812100Y582900D02*
Y642500D01*
X967250Y213129D02*
Y236300D01*
X942000Y213279D02*
Y236300D01*
X935800Y252500D02*
X942000Y246300D01*
X917500Y252500D02*
X935800D01*
X967500Y246550D02*
Y267500D01*
X992500Y213233D02*
Y236300D01*
X992500Y246300D02*
Y287500D01*
X710000Y216333D02*
Y236300D01*
Y246300D02*
Y287500D01*
X1144933Y645000D02*
X1145027Y644906D01*
X1110000Y645000D02*
X1144933D01*
X1047500Y592500D02*
X1100000Y645000D01*
X1017500Y592500D02*
X1047500D01*
X1094000Y213333D02*
X1094227Y213106D01*
X1094000Y213333D02*
Y236300D01*
X1065000Y247500D02*
X1066200Y246300D01*
X1094000D01*
X798000Y508000D02*
X807500Y517500D01*
X721000Y508000D02*
X798000D01*
X1044000Y670000D02*
Y695133D01*
X1057500Y681500D02*
X1068827Y670173D01*
Y695706D01*
X1057500Y681500D02*
Y702500D01*
X1052500Y707500D02*
X1057500Y702500D01*
X1035000Y707500D02*
X1052500D01*
X1032500Y705000D02*
X1035000Y707500D01*
X1032500Y672500D02*
Y705000D01*
X880000Y520000D02*
X1032500Y672500D01*
X830000Y520000D02*
X880000D01*
X1037500Y670000D02*
X1044000D01*
X882500Y515000D02*
X1037500Y670000D01*
X832500Y515000D02*
X882500D01*
X812500Y495000D02*
X832500Y515000D01*
X721000Y495000D02*
X812500D01*
X811500Y501500D02*
X830000Y520000D01*
X721000Y501500D02*
X811500D01*
X742500Y448000D02*
X743000Y447500D01*
X741000Y449500D02*
X742500Y448000D01*
X743000Y447500D02*
X755000D01*
X721000Y449500D02*
X741000D01*
X721000Y462500D02*
X790000D01*
X774000Y469000D02*
X775000Y470000D01*
X721000Y469000D02*
X774000D01*
X755500Y475500D02*
X762500Y482500D01*
X721000Y475500D02*
X755500D01*
X619000Y488500D02*
X645000D01*
X620000Y495000D02*
X645000D01*
X612500Y502500D02*
X620000Y495000D01*
X600000Y502500D02*
X612500D01*
X592500Y510000D02*
X600000Y502500D01*
X630500Y514500D02*
X645000D01*
X622000Y508000D02*
X645000D01*
X621000Y501500D02*
X645000D01*
X570000Y462500D02*
X594452Y438048D01*
X490000Y457500D02*
X570000D01*
X592500Y435000D01*
X607500D01*
X594452Y438048D02*
X605548D01*
X623500Y456000D01*
X607500Y435000D02*
X622000Y449500D01*
X645000D01*
X623500Y456000D02*
X645000D01*
X586300Y239000D02*
X596500D01*
D19*
X676402Y479738D02*
Y557500D01*
X659164Y462500D02*
X676402Y479738D01*
X662500Y442500D02*
Y459164D01*
X659164Y462500D02*
X662500Y459164D01*
X645000Y462500D02*
X659164D01*
X604012Y457708D02*
X605208D01*
X610000Y462500D01*
X632500Y527500D02*
Y540218D01*
X555498Y542998D02*
X567500Y555000D01*
X555498Y541528D02*
Y542998D01*
X682500Y597500D02*
X707500D01*
X702500Y532500D02*
X722500Y552500D01*
Y595000D01*
X720000Y597500D02*
X722500Y595000D01*
X707500Y597500D02*
X720000D01*
X670000D02*
X682500D01*
X597500Y555000D02*
X637500Y595000D01*
X567500Y555000D02*
X597500D01*
X721000Y443000D02*
X726000Y438000D01*
X742500D01*
X748000Y432500D01*
X755000D01*
X663000Y443000D02*
X721000D01*
X662500Y442500D02*
X663000Y443000D01*
X662500Y412500D02*
Y442500D01*
X645000Y412500D02*
Y443000D01*
X610000Y462500D02*
X645000D01*
X610500Y482000D02*
X645000D01*
X745000Y535000D02*
Y545000D01*
X731000Y521000D02*
X745000Y535000D01*
X721000Y521000D02*
X731000D01*
X702500Y532500D02*
X707500Y527500D01*
X721000D01*
X632500D02*
X645000D01*
X1055000Y642500D02*
X1069000Y656500D01*
Y660000D01*
X1044000D02*
X1069000D01*
X560827Y233327D02*
X564973Y237473D01*
X510027D02*
X564973D01*
X1112500Y262500D02*
X1169021D01*
X1140000Y200000D02*
Y258879D01*
X650133Y200000D02*
X1140000D01*
X637027Y213106D02*
X650133Y200000D01*
X611627Y213106D02*
X637027D01*
X257500Y220000D02*
X270000D01*
X287500Y237500D01*
X443681Y670000D02*
X469387Y695706D01*
X345000Y670000D02*
X443681D01*
X335000Y680000D02*
X345000Y670000D01*
X270000Y680000D02*
X335000D01*
X469387Y695706D02*
X537967Y627126D01*
X510413Y595000D02*
X537967Y622554D01*
X455000Y595000D02*
X510413D01*
X451830Y598170D02*
X455000Y595000D01*
Y577500D02*
Y595000D01*
X450270Y572770D02*
X455000Y577500D01*
X443225Y572770D02*
X450270D01*
X443225Y598170D02*
X451830D01*
X443225Y560070D02*
Y572770D01*
X257500Y377341D02*
X422500D01*
X439415Y360426D01*
X287500Y237500D02*
Y255000D01*
X310000Y277500D01*
X335000D01*
X379572Y232928D01*
X611627Y204127D02*
Y213106D01*
X607500Y200000D02*
X611627Y204127D01*
X472500Y200000D02*
X607500D01*
X462500Y210000D02*
X472500Y200000D01*
X462500Y210000D02*
Y225000D01*
X454572Y232928D02*
X462500Y225000D01*
X379572Y232928D02*
X454572D01*
X510027Y213106D02*
Y237473D01*
X560827Y213106D02*
Y233327D01*
X566500Y239000D02*
X576300D01*
X611627Y213106D02*
Y238873D01*
D20*
X1119627Y213106D02*
D03*
X1094227D02*
D03*
X1068827D02*
D03*
X1043427D02*
D03*
X1018027D02*
D03*
X992627D02*
D03*
X967227D02*
D03*
X941827D02*
D03*
X891027D02*
D03*
X865627D02*
D03*
X840227D02*
D03*
X814827D02*
D03*
X789427D02*
D03*
X764027D02*
D03*
X738627D02*
D03*
X713227D02*
D03*
X393187Y695706D02*
D03*
X418587D02*
D03*
X443987D02*
D03*
X469387D02*
D03*
X494787D02*
D03*
X520187D02*
D03*
X545587D02*
D03*
X570987D02*
D03*
X596387D02*
D03*
X621787D02*
D03*
X662427D02*
D03*
X687827D02*
D03*
X713227D02*
D03*
X738627D02*
D03*
X764027D02*
D03*
X789427D02*
D03*
X814827D02*
D03*
X840227D02*
D03*
X662427Y213106D02*
D03*
X637027D02*
D03*
X611627D02*
D03*
X586227D02*
D03*
X560827D02*
D03*
X535427D02*
D03*
X510027D02*
D03*
X484627D02*
D03*
X1068827Y695706D02*
D03*
X1043427D02*
D03*
X1018027D02*
D03*
X992627D02*
D03*
X967227D02*
D03*
X941827D02*
D03*
X916427D02*
D03*
X891027D02*
D03*
D21*
X439415Y360426D02*
D03*
X464815D02*
D03*
X439415Y335026D02*
D03*
X464815D02*
D03*
X439415Y309626D02*
D03*
X464815D02*
D03*
X866897Y441706D02*
D03*
X841497D02*
D03*
X866897Y467106D02*
D03*
X841497D02*
D03*
X866897Y492506D02*
D03*
X841497D02*
D03*
D22*
X461767Y622554D02*
D03*
X487167D02*
D03*
X512567D02*
D03*
X537967D02*
D03*
D23*
X270000Y302500D02*
D03*
X320000Y352500D02*
D03*
Y252500D02*
D03*
X270000Y600000D02*
D03*
X320000Y650000D02*
D03*
Y550000D02*
D03*
X270000Y452500D02*
D03*
X320000Y502500D02*
D03*
Y402500D02*
D03*
D24*
X430525Y598170D02*
D03*
X443225D02*
D03*
X430525Y585470D02*
D03*
X443225D02*
D03*
X430525Y572770D02*
D03*
X443225D02*
D03*
X430525Y560070D02*
D03*
X443225D02*
D03*
X430525Y547370D02*
D03*
D25*
X443225D02*
D03*
D26*
X1170427Y263906D02*
D03*
X1145027D02*
D03*
X1170427Y289306D02*
D03*
X1145027D02*
D03*
X1170427Y314706D02*
D03*
X1145027D02*
D03*
X1170427Y340106D02*
D03*
X1145027D02*
D03*
X1170427Y365506D02*
D03*
X1145027D02*
D03*
X1170427Y390906D02*
D03*
X1145027D02*
D03*
X1170427Y416306D02*
D03*
X1145027D02*
D03*
X1170427Y441706D02*
D03*
X1145027D02*
D03*
X1170427Y467106D02*
D03*
X1145027D02*
D03*
X1170427Y492506D02*
D03*
X1145027D02*
D03*
X1170427Y517906D02*
D03*
X1145027D02*
D03*
X1170427Y543306D02*
D03*
X1145027D02*
D03*
X1170427Y568706D02*
D03*
X1145027D02*
D03*
X1170427Y594106D02*
D03*
X1145027D02*
D03*
X1170427Y619506D02*
D03*
X1145027D02*
D03*
X1170427Y644906D02*
D03*
X1145027D02*
D03*
X1170427Y670306D02*
D03*
X1145027D02*
D03*
X1170427Y695706D02*
D03*
X1145027D02*
D03*
D27*
X1069500Y554800D02*
D03*
Y529400D02*
D03*
Y504000D02*
D03*
Y457800D02*
D03*
Y432400D02*
D03*
Y407000D02*
D03*
Y360800D02*
D03*
Y335400D02*
D03*
Y310000D02*
D03*
X786700Y642500D02*
D03*
X812100D02*
D03*
X837500D02*
D03*
X948300Y643999D02*
D03*
X922900D02*
D03*
X897500D02*
D03*
X973700D02*
D03*
D28*
X951230Y503682D02*
D03*
X676402Y557500D02*
D03*
X604012Y457708D02*
D03*
X483870Y371856D02*
D03*
X592582Y498094D02*
D03*
X811022Y455930D02*
D03*
X632500Y540218D02*
D03*
X494792Y562102D02*
D03*
X512500Y550000D02*
D03*
X555498Y541528D02*
D03*
X586740Y535432D02*
D03*
X622554Y508554D02*
D03*
X630500Y514500D02*
D03*
X519684Y469000D02*
D03*
X536194Y475996D02*
D03*
X484378Y284871D02*
D03*
X596900Y325374D02*
D03*
X637500Y595000D02*
D03*
X375000Y512500D02*
D03*
X397500Y607500D02*
D03*
X555000Y427500D02*
D03*
X600000Y612500D02*
D03*
X612500Y625000D02*
D03*
X830000Y582500D02*
D03*
X812500D02*
D03*
X797500Y470000D02*
D03*
X917500Y252500D02*
D03*
X967500Y267500D02*
D03*
X710000Y287500D02*
D03*
X992500D02*
D03*
X1017500Y592500D02*
D03*
X1065000Y247500D02*
D03*
X807500Y517500D02*
D03*
X775000Y470000D02*
D03*
X762500Y482500D02*
D03*
X592500Y510000D02*
D03*
X662500Y412500D02*
D03*
X645000D02*
D03*
X610000Y482500D02*
D03*
X745000Y545000D02*
D03*
X702500Y532500D02*
D03*
X1055000Y642500D02*
D03*
X1112500Y262500D02*
D03*
X257500Y220000D02*
D03*
Y377341D02*
D03*
X270000Y680000D02*
D03*
M02*
